<?xml version="1.0" standalone="no"?>
<!DOCTYPE svg PUBLIC "-//W3C//DTD SVG 1.1//EN" "http://www.w3.org/Graphics/SVG/1.1/DTD/svg11.dtd" >
<svg xmlns="http://www.w3.org/2000/svg" xmlns:xlink="http://www.w3.org/1999/xlink" version="1.1">
<metadata>
Created by FontForge 20160407 at Fri May 13 14:11:27 2016
 By Jimmy Wärting
Created by gluk with FontForge 2.0 (http://fontforge.sf.net)

</metadata>
<defs>
<font id="RawengulkRegular" horiz-adv-x="950" >
  <font-face 
    font-family="Rawengulk"
    font-weight="400"
    font-stretch="normal"
    units-per-em="2048"
    panose-1="4 0 5 0 0 0 0 0 0 0"
    ascent="1609"
    descent="-439"
    x-height="951"
    cap-height="1390"
    bbox="-731 -457 1975 1829"
    underline-thickness="73"
    underline-position="-364"
    unicode-range="U+0020-FB04"
  />
<missing-glyph horiz-adv-x="877" 
d="M219 878v-732h439v732h-439zM146 951h585v-878h-585v878z" />
    <glyph glyph-name="uniFB01" unicode="fi" horiz-adv-x="1024" 
d="M658 1381v-64h-73v11q-31 7 -55 7q-99 0 -168 -69.5t-69 -168.5v-146h292v-73h-292v-878h-74v878h-146v73h146v146q0 129 91 220t220 91q70 0 128 -27zM768 1253q0 26 19 45t45 19t45 -19t19 -45t-19 -45t-45 -19t-45 19t-19 45zM804 878h-36v73h109v-951h-73v878z" />
    <glyph glyph-name="uniFB02" unicode="fl" horiz-adv-x="1024" 
d="M768 1390h109v-1390h-73v1317h-36v73zM658 1381v-64h-73v11q-31 7 -55 7q-99 0 -168 -69.5t-69 -168.5v-146h292v-73h-292v-878h-74v878h-146v73h146v146q0 129 91 220t220 91q70 0 128 -27z" />
    <glyph glyph-name="uniFB03" unicode="ffi" horiz-adv-x="1609" 
d="M1355 1253q0 26 19 45t45 19t45 -19t19 -45t-19 -45t-45 -19t-45 19t-19 45zM1392 878h-37v73h110v-951h-73v878zM1245 1381v-64h-73v11q-32 7 -55 7q-99 0 -168 -69.5t-69 -168.5v-146h292v-73h-292v-878h-74v878h-146v73h146v146q0 129 91 220t220 91q69 0 128 -27z
M658 1381v-64h-73v11q-31 7 -55 7q-99 0 -168 -69.5t-69 -168.5v-146h256v-73h-256v-878h-74v878h-146v73h146v146q0 129 91 220t220 91q70 0 128 -27z" />
    <glyph glyph-name="uniFB04" unicode="ffl" horiz-adv-x="1609" 
d="M1353 1390h109v-1390h-73v1317h-36v73zM1243 1381v-64h-73v11q-31 7 -55 7q-99 0 -168 -69.5t-69 -168.5v-146h292v-73h-292v-878h-74v878h-146v73h146v146q0 129 91 220t220 91q70 0 128 -27zM658 1381v-64h-73v11q-31 7 -55 7q-99 0 -168 -69.5t-69 -168.5v-146h256
v-73h-256v-878h-74v878h-146v73h146v146q0 129 91 220t220 91q70 0 128 -27z" />
    <glyph glyph-name=".notdef" horiz-adv-x="877" 
d="M219 878v-732h439v732h-439zM146 951h585v-878h-585v878z" />
    <glyph glyph-name="glyph1" horiz-adv-x="54" 
 />
    <glyph glyph-name="glyph2" horiz-adv-x="663" 
 />
    <glyph glyph-name="space" unicode=" " horiz-adv-x="731" 
 />
    <glyph glyph-name="exclam" unicode="!" horiz-adv-x="365" 
d="M119 46q0 26 19 45t45 19t45 -19t19 -45t-19 -45t-45 -19t-45 19t-19 45zM146 1390h110v-73h-37v-951h-73v1024z" />
    <glyph glyph-name="quotedbl" unicode="&#x22;" horiz-adv-x="512" 
d="M309 1159q20 71 20 161q0 48 -5 68l71 13q7 -34 7 -81q0 -101 -22 -179l-16 -57l-71 20zM108 1159q20 71 20 161q0 48 -5 68l71 13q7 -34 7 -81q0 -101 -22 -179l-16 -57l-72 20z" />
    <glyph glyph-name="numbersign" unicode="#" horiz-adv-x="804" 
d="M499 512l26 293h-220l-25 -293h219zM494 439h-220l-20 -220h-73l20 220h-146l7 73h145l25 293h-146l7 73h145l20 219h73l-20 -219h219l20 219h74l-21 -219h147l-8 -73h-144l-26 -293h147l-8 -73h-144l-20 -220h-73z" />
    <glyph glyph-name="dollar" unicode="$" horiz-adv-x="1243" 
d="M658 658v-585q202 7 320.5 80.5t118.5 190.5q0 42 -13.5 77.5t-33 61.5t-56.5 50t-68 39.5t-83.5 33t-88 27.5t-96.5 25zM585 753v489q-156 -9 -261 -78t-105 -147q0 -46 20.5 -83.5t51 -63t82 -48.5t98.5 -37.5t114 -31.5zM585 1426h73v-111q114 -6 230 -49t198 -125
l11 -11v-69h-73v38q-69 64 -167.5 101t-198.5 42v-507q53 -13 84 -21t80.5 -23t79.5 -27.5t71 -31.5t66 -38.5t53 -46.5t43 -56.5t25 -67t10 -79.5q0 -146 -136 -241.5t-376 -102.5v-110h-73v112q-146 10 -289.5 82t-211.5 141l-11 11v57h73v-28q68 -63 193 -122t246 -68
v602q-56 14 -96 25.5t-89 29t-83 35.5t-68.5 44t-55.5 55t-34 67.5t-13 83.5q0 79 62 146t162 106t215 46v111z" />
    <glyph glyph-name="percent" unicode="%" horiz-adv-x="1316" 
d="M1143 1267l55 -47l-1024 -1171l-55 48zM585 1061q0 -105 -68 -180.5t-188 -75.5t-188 75.5t-68 180.5q0 104 67.5 180t188.5 76t188.5 -76t67.5 -180zM329 1243q-89 0 -136 -54t-47 -128q0 -75 47 -129t136 -54t136 54t47 129t-46.5 128.5t-136.5 53.5zM1243 256
q0 -105 -68 -180.5t-188 -75.5t-188 75.5t-68 180.5q0 104 67.5 180t188.5 76t188.5 -76t67.5 -180zM987 439q-89 0 -135.5 -54.5t-46.5 -128.5q0 -75 46.5 -129t135.5 -54t136 54t47 129t-46.5 129t-136.5 54z" />
    <glyph glyph-name="ampersand" unicode="&#x26;" horiz-adv-x="1389" 
d="M146 366q0 -58 27 -111t81.5 -99t151 -73.5t221.5 -27.5q153 0 284 64l-331 355q-153 168 -189 217q-113 -55 -179 -142t-66 -183zM349 753q-56 95 -56 194v4q0 151 107 258.5t258 107.5q146 0 256 -100.5t110 -229.5v-36h-110v73h33q-17 87 -99 153t-190 66
q-121 0 -206.5 -85.5t-85.5 -206.5v-4q0 -86 51 -166.5t216 -255.5l343 -368q194 130 194 362q0 18 -5 43.5t-18.5 62.5t-45.5 66t-77 37v-33h-73v110h36q45 0 83.5 -13t64 -33.5t46 -48t31.5 -54.5t18.5 -55.5t10 -48t2.5 -33.5q0 -264 -215 -417q36 -29 78 -29h211v-73
h-211q-80 0 -144 64q-152 -82 -335 -82q-138 0 -247 32.5t-174.5 87t-99 122t-33.5 142.5q0 114 73.5 218t202.5 169z" />
    <glyph glyph-name="quotesingle" unicode="'" horiz-adv-x="292" 
d="M108 1159q20 71 20 161q0 48 -5 68l71 13q7 -34 7 -81q0 -101 -22 -179l-16 -57l-72 20z" />
    <glyph glyph-name="parenleft" unicode="(" horiz-adv-x="512" 
d="M73 528v2q0 148 21 298.5t61 291t108.5 252t155.5 164.5l38 -62q-139 -84 -225 -353.5t-86 -590.5v-2q0 -314 84.5 -567t226.5 -338l-38 -62q-87 52 -155 156t-108.5 237t-61.5 278.5t-21 295.5z" />
    <glyph glyph-name="parenright" unicode=")" horiz-adv-x="512" 
d="M439 530q0 -203 -35 -391.5t-115.5 -348.5t-195.5 -229l-38 62q141 85 226 339t85 568q0 321 -86 590.5t-225 353.5l38 62q87 -53 155.5 -164.5t108.5 -252t61 -291t21 -298.5z" />
    <glyph glyph-name="asterisk" unicode="*" horiz-adv-x="658" 
d="M560 1181l25 -67l-197 -72l122 -168l-58 -44l-123 168l-122 -168l-59 44l123 168l-198 72l26 67l194 -69v205h73v-205z" />
    <glyph glyph-name="plus" unicode="+" 
d="M512 731h366v-73h-366v-365h-73v365h-366v73h366v366h73v-366z" />
    <glyph glyph-name="comma" unicode="," horiz-adv-x="365" 
d="M110 46q0 26 19 45t45 19t45 -19t19 -45q0 -133 -123 -256l-33 33q73 73 73 162q-19 5 -32 23t-13 38z" />
    <glyph glyph-name="hyphen" unicode="-" horiz-adv-x="658" 
d="M585 512h-512v73h512v-73z" />
    <glyph glyph-name="period" unicode="." horiz-adv-x="365" 
d="M110 46q0 26 19 45t45 19t45 -19t19 -45t-19 -45t-45 -19t-45 19t-19 45z" />
    <glyph glyph-name="slash" unicode="/" horiz-adv-x="1097" 
d="M998 1426l63 -40l-962 -1503l-62 40z" />
    <glyph glyph-name="zero" unicode="0" horiz-adv-x="1170" 
d="M585 1335q142 0 260.5 -90t185 -241t66.5 -327q0 -185 -66 -344.5t-184.5 -255t-261.5 -95.5t-261.5 95.5t-184.5 255t-66 344.5q0 176 66.5 327t185 241t260.5 90zM146 677q0 -166 57.5 -308.5t159 -228t222.5 -85.5q86 0 166.5 48t140.5 129.5t96 198t36 246.5
q0 162 -60.5 297t-161.5 211.5t-217 76.5t-217 -76.5t-161.5 -211.5t-60.5 -297z" />
    <glyph glyph-name="one" unicode="1" horiz-adv-x="438" 
d="M218 1203l-99 -111l-55 47l157 178h72v-1317h-74v1205h-1v-2z" />
    <glyph glyph-name="two" unicode="2" 
d="M475 1335q166 0 284.5 -118t118.5 -284v-2q0 -110 -68 -222t-221 -256l-402 -380h618v37h73v-110h-805v68l466 440q146 138 206 236t60 187v2q0 136 -97 232.5t-233 96.5t-232.5 -96.5t-96.5 -232.5h-73q0 166 118 284t284 118z" />
    <glyph glyph-name="three" unicode="3" 
d="M475 695v73q107 0 181.5 72.5t74.5 174.5t-74.5 174.5t-181.5 72.5t-181.5 -72.5t-74.5 -174.5h-73q0 133 96.5 226.5t232.5 93.5q133 0 231.5 -95.5t98.5 -224.5q0 -95 -52.5 -169t-139.5 -111v-2q118 -39 191.5 -136t73.5 -222q0 -163 -118.5 -278t-284.5 -115
t-284 115t-118 278h73q0 -132 96 -226t233 -94t233.5 94t96.5 226t-96.5 226t-233.5 94z" />
    <glyph glyph-name="four" unicode="4" 
d="M731 878h74v-585h73v-74h-73v-219h-74v219h-658v68l6 9q241 363 335 586.5t94 434.5h73q0 -220 -93 -447.5t-323 -576.5h566v585z" />
    <glyph glyph-name="five" unicode="5" 
d="M185 1243l-30 -440q64 68 153 108t167 40q58 0 114 -17.5t108.5 -55.5t92.5 -92t64 -134.5t24 -176.5q0 -100 -25 -183t-66.5 -139.5t-96 -95.5t-112.5 -57t-117 -18q-109 0 -219 57.5t-165 157.5l-4 10v9v40h73v-31q45 -76 135.5 -123t179.5 -47q61 0 119.5 24t110 72
t83 132t31.5 192q0 105 -31 186t-81 126.5t-105.5 68t-112.5 22.5q-92 0 -196.5 -67t-134.5 -164l-71 13l40 622l2 35h690v-110h-74v36h-546z" />
    <glyph glyph-name="six" unicode="6" 
d="M146 457q0 -167 103 -284.5t245 -117.5q126 0 218.5 116.5t92.5 285.5t-92.5 285.5t-218.5 116.5q-142 0 -245 -117.5t-103 -284.5zM494 933q103 0 191 -62t140.5 -172t52.5 -242t-52.5 -241.5t-140.5 -171.5t-191 -62q-116 0 -213 64t-152.5 173.5t-55.5 237.5
q0 59 0.5 99.5t4.5 115t11 129.5t21 128t34 126t50.5 109t69.5 91t93 57.5t118 22.5q97 0 181.5 -42.5t140.5 -116.5l8 -11v-59h-74v35q-46 57 -112.5 89t-143.5 32q-280 0 -331 -540h2q58 96 150.5 153.5t197.5 57.5z" />
    <glyph glyph-name="seven" unicode="7" horiz-adv-x="877" 
d="M37 1317h768v-68l-170 -232q-269 -368 -269 -1017h-73q0 678 281 1061l135 182h-599v-36h-73v110z" />
    <glyph glyph-name="eight" unicode="8" 
d="M805 1015q0 -95 -52.5 -169t-139.5 -111v-2q118 -39 191.5 -136t73.5 -222q0 -163 -118.5 -278t-284.5 -115t-284 115t-118 278q0 125 73.5 222t191.5 136v2q-87 37 -139.5 111t-52.5 169q0 133 96.5 226.5t232.5 93.5t233 -94t97 -226zM805 375q0 132 -96.5 226
t-233.5 94t-233 -94t-96 -226t96 -226t233 -94t233.5 94t96.5 226zM219 1015q0 -102 74.5 -174.5t181.5 -72.5t181.5 72.5t74.5 174.5t-74.5 174.5t-181.5 72.5t-181.5 -72.5t-74.5 -174.5z" />
    <glyph glyph-name="nine" unicode="9" 
d="M805 859q0 168 -103 285.5t-245 117.5q-126 0 -218.5 -117t-92.5 -286t92.5 -285.5t218.5 -116.5q142 0 245 117.5t103 284.5zM457 384q-103 0 -191 62t-140.5 171.5t-52.5 241.5t52.5 242t140.5 172t191 62q116 0 213 -64.5t152.5 -174t55.5 -237.5q0 -58 -0.5 -99.5
t-4.5 -115.5t-11 -129t-21.5 -128t-34 -126t-50.5 -108.5t-70 -90.5t-93 -57.5t-118 -22.5q-97 0 -181 42.5t-140 116.5l-8 11v58h73v-34q46 -57 112.5 -89t143.5 -32q280 0 331 539h-1q-58 -95 -150 -152.5t-198 -57.5z" />
    <glyph glyph-name="colon" unicode=":" horiz-adv-x="365" 
d="M110 832q0 26 19 45t45 19t45 -19t19 -45t-19 -45t-45 -19t-45 19t-19 45zM110 46q0 26 19 45t45 19t45 -19t19 -45t-19 -45t-45 -19t-45 19t-19 45z" />
    <glyph glyph-name="semicolon" unicode=";" horiz-adv-x="365" 
d="M110 46q0 26 19 45t45 19t45 -19t19 -45q0 -133 -123 -256l-33 33q73 73 73 162q-19 5 -32 23t-13 38zM110 832q0 26 19 45t45 19t45 -19t19 -45t-19 -45t-45 -19t-45 19t-19 45z" />
    <glyph glyph-name="less" unicode="&#x3c;" horiz-adv-x="658" 
d="M622 318l-42 -60l-507 360v82l508 346l41 -62l-476 -322v-7z" />
    <glyph glyph-name="equal" unicode="=" 
d="M878 439h-805v73h805v-73zM878 805h-805v73h805v-73z" />
    <glyph glyph-name="greater" unicode="&#x3e;" horiz-adv-x="658" 
d="M37 318l475 337v7l-475 322l40 62l508 -346v-82l-506 -360z" />
    <glyph glyph-name="question" unicode="?" horiz-adv-x="877" 
d="M338 46q0 26 19 45t45 19t45 -19t19 -45t-19 -45t-45 -19t-45 19t-19 45zM366 508q0 52 20 93t52.5 69t71 53.5t77.5 52.5t71.5 59t52.5 80t20 109q0 121 -85.5 207t-206.5 86t-207 -86t-86 -207h-73q0 151 107.5 258.5t258.5 107.5t258.5 -107.5t107.5 -258.5
q0 -69 -20 -125t-52.5 -92.5t-71.5 -66.5t-78 -54.5t-71.5 -49t-52.5 -57t-20 -71.5v-142h-73v142z" />
    <glyph glyph-name="at" unicode="@" horiz-adv-x="1645" 
d="M967 276l114 576h-194q-46 0 -98.5 -21t-103.5 -64t-92 -100.5t-66.5 -137t-25.5 -167.5q0 -129 68 -198t151 -69q61 0 132 44t108 121zM730 -274q-165 0 -299 55t-219 149t-130 214.5t-45 255.5q0 167 67 323t182.5 274t282 189.5t354.5 71.5q133 0 247 -36.5t193.5 -99
t136 -145t83 -174.5t26.5 -187q0 -113 -30.5 -211t-79 -164.5t-110.5 -114.5t-124 -70.5t-120 -22.5q-75 0 -120.5 29.5t-59.5 78.5h-1q-51 -56 -116.5 -87.5t-127.5 -31.5q-52 0 -102 21t-93.5 61t-70 107.5t-26.5 150.5q0 100 29.5 191t77.5 157.5t108 116t123 74
t121 24.5h283l-131 -667q-8 -52 -8 -62q0 -44 24.5 -67t89.5 -23q45 0 96 18.5t104 59.5t95 98.5t69 144.5t27 189q0 106 -38.5 205t-111.5 181.5t-193 132.5t-270 50q-172 0 -325 -65.5t-259 -174t-167.5 -251t-61.5 -294.5q0 -119 39 -225.5t113.5 -191t195.5 -134.5
t272 -50q215 0 398 93l31 -64q-206 -102 -429 -102z" />
    <glyph glyph-name="A" unicode="A" horiz-adv-x="1243" 
d="M640 1275l-331 -836h666zM1004 366h-724l-145 -366h-80v73h29l529 1333h54l556 -1393l-67 -26z" />
    <glyph glyph-name="B" unicode="B" horiz-adv-x="1243" 
d="M805 784q169 -33 267 -147t98 -253q0 -77 -30 -145.5t-87 -122t-147 -85t-202 -31.5h-558v1317h-36v73h448q218 0 342 -88.5t124 -224.5q0 -90 -57 -168.5t-162 -122.5h-2v-2h2zM219 731v-658h485q190 0 291.5 90t101.5 221q0 62 -27.5 122.5t-77.5 111t-130 82
t-176 31.5h-467zM219 805h339q97 0 175 25t124 65.5t70 87t24 94.5q0 99 -100.5 169.5t-292.5 70.5h-339v-512z" />
    <glyph glyph-name="C" unicode="C" horiz-adv-x="1280" 
d="M1134 1232q-163 103 -348 103q-130 0 -248.5 -51t-204 -136.5t-136.5 -204t-51 -248.5t51 -248.5t136.5 -204t204 -136.5t248.5 -51q208 0 370 117l44 -59q-184 -131 -414 -131q-145 0 -277 56.5t-227.5 152t-152 227.5t-56.5 277t56.5 277t152 227.5t227.5 152t277 56.5
q223 0 404 -124l17 -11v-66h-73v25z" />
    <glyph glyph-name="D" unicode="D" horiz-adv-x="1389" 
d="M110 1390h512q141 0 270 -55t222 -148t148 -222t55 -270t-55 -270t-148 -222t-222 -148t-270 -55h-476v1317h-36v73zM219 73h403q169 0 312 83t226 226.5t83 312.5t-83 312.5t-226 226.5t-312 83h-403v-1244z" />
    <glyph glyph-name="E" unicode="E" horiz-adv-x="1170" 
d="M951 1317h-732v-586h439v-73h-439v-585h805v37h73v-110h-951v1317h-36v73h914v-110h-73v37z" />
    <glyph glyph-name="F" unicode="F" horiz-adv-x="1170" 
d="M146 1317h-36v73h987v-110h-73v37h-805v-586h512v-73h-512v-658h-73v1317z" />
    <glyph glyph-name="G" unicode="G" horiz-adv-x="1389" 
d="M951 585v73h366v-658h-74v170q-91 -81 -213.5 -134.5t-243.5 -53.5q-145 0 -277 56.5t-227.5 152t-152 227.5t-56.5 277t56.5 277t152 227.5t227.5 152t277 56.5q259 0 457 -166v-72h-73v37q-173 128 -384 128q-130 0 -248.5 -51t-204 -136.5t-136.5 -204t-51 -248.5
t51 -248.5t136.5 -204t204 -136.5t248.5 -51q132 0 250 50.5t207 141.5v338h-292z" />
    <glyph glyph-name="H" unicode="H" horiz-adv-x="1316" 
d="M146 1390h73v-659h878v659h73v-1390h-73v658h-878v-658h-73v1390z" />
    <glyph glyph-name="I" unicode="I" horiz-adv-x="365" 
d="M219 0h-73v1390h73v-1390z" />
    <glyph glyph-name="J" unicode="J" horiz-adv-x="804" 
d="M146 1390h512v-1097q0 -151 -99 -240.5t-237 -89.5q-84 0 -162 35.5t-118 98.5l-5 9v40h73v-18q29 -42 88 -66.5t124 -24.5q108 0 185.5 68.5t77.5 187.5v1024h-439v73z" />
    <glyph glyph-name="K" unicode="K" horiz-adv-x="1243" 
d="M223 494l761 896h113v-73h-78l-505 -593l497 -585q32 -38 63 -52t96 -14v-73q-82 0 -127.5 20.5t-87.5 70.5l-491 576l-245 -287v-380h-73v1390h73v-896h4z" />
    <glyph glyph-name="L" unicode="L" horiz-adv-x="1170" 
d="M219 73h805v37h73v-110h-951v1390h73v-1317z" />
    <glyph glyph-name="M" unicode="M" horiz-adv-x="1974" 
d="M110 73h22l162 1331h61l632 -1325l633 1325h60l185 -1400l-71 -9l-167 1252l-603 -1265h-71l-604 1263l-152 -1245h-87v73z" />
    <glyph glyph-name="N" unicode="N" horiz-adv-x="1316" 
d="M1170 1390v-1390h-73l-878 1264v-1264h-73v1317h-36v73h109l878 -1264v1264h73z" />
    <glyph glyph-name="O" unicode="O" horiz-adv-x="1572" 
d="M146 695q0 -130 51 -248.5t136.5 -204t204 -136.5t248.5 -51t248.5 51t204 136.5t136.5 204t51 248.5t-51 248.5t-136.5 204t-204 136.5t-248.5 51t-248.5 -51t-204 -136.5t-136.5 -204t-51 -248.5zM786 1408q145 0 277 -56.5t227.5 -152t152 -227.5t56.5 -277
t-56.5 -277t-152 -227.5t-227.5 -152t-277 -56.5t-277 56.5t-227.5 152t-152 227.5t-56.5 277t56.5 277t152 227.5t227.5 152t277 56.5z" />
    <glyph glyph-name="P" unicode="P" horiz-adv-x="1243" 
d="M146 1317h-36v73h585q197 0 336 -139.5t139 -336.5t-139 -336t-336 -139h-476v-439h-73v1317zM219 1317v-805h476q166 0 284 118t118 284t-118 284.5t-284 118.5h-476z" />
    <glyph glyph-name="Q" unicode="Q" horiz-adv-x="1572" 
d="M786 1408q145 0 277 -56.5t227.5 -152t152 -227.5t56.5 -277t-56.5 -277t-152 -227.5t-227.5 -152t-277 -56.5h-2q-294 0 -438 -190l27 -30q74 70 196 70q77 0 183 -31t201 -61.5t146 -30.5q42 0 69.5 30.5t27.5 59.5h73q0 -61 -49.5 -112t-120.5 -51q-59 0 -156.5 31
t-199.5 61.5t-174 30.5q-110 0 -169 -74l-27 -34l-121 135l15 24q103 156 307 205q-221 68 -361 255.5t-140 424.5q0 145 56.5 277t152 227.5t227.5 152t277 56.5zM146 695q0 -130 51 -248.5t136.5 -204t204 -136.5t248.5 -51t248.5 51t204 136.5t136.5 204t51 248.5
t-51 248.5t-136.5 204t-204 136.5t-248.5 51t-248.5 -51t-204 -136.5t-136.5 -204t-51 -248.5z" />
    <glyph glyph-name="R" unicode="R" horiz-adv-x="1243" 
d="M636 602q65 -31 125 -125l212 -333q28 -44 50.5 -57.5t62.5 -13.5h84v-73h-84q-57 0 -97 22.5t-78 83.5l-212 331q-25 39 -40 60.5t-36 40.5t-36 26.5t-45.5 13t-58.5 6.5t-81 1h-183v-585h-73v1317h-36v73h521q112 0 202.5 -34t147 -91.5t86.5 -128.5t30 -149
q0 -76 -30 -144.5t-86 -122t-145 -85t-200 -32.5h-1v-1h1zM631 658q96 0 173 28t124 75.5t71.5 105t24.5 120.5t-24.5 120.5t-71.5 105t-124 76t-173 28.5h-412v-659h412z" />
    <glyph glyph-name="S" unicode="S" horiz-adv-x="1243" 
d="M146 230q74 -64 208 -119.5t268 -55.5q227 0 351 79.5t124 187.5q0 40 -12.5 76t-33 65t-55.5 56.5t-69 48.5t-86.5 44.5t-96 40.5t-106.5 40q-195 71 -268 108q-192 98 -219 235q-5 24 -5 50q0 142 136.5 232t339.5 90q116 0 245 -42.5t219 -129.5l11 -11v-68h-73v37
q-75 67 -185.5 104t-216.5 37q-170 0 -286.5 -70t-116.5 -179q0 -33 11.5 -62.5t29.5 -53.5t52 -48t65.5 -42t84 -40.5t94.5 -38.5t108 -40q51 -18 77 -28t76 -30t78 -34.5t70.5 -38.5t67.5 -45.5t54.5 -51.5t45 -61t26.5 -69.5t11 -80.5q0 -149 -150 -244.5t-398 -95.5
q-158 0 -310.5 66.5t-227.5 139.5l-11 11v68h73v-37z" />
    <glyph glyph-name="T" unicode="T" horiz-adv-x="1243" 
d="M73 1390h1097v-110h-73v37h-439v-1317h-73v1317h-439v-37h-73v110z" />
    <glyph glyph-name="U" unicode="U" horiz-adv-x="1316" 
d="M219 1390v-896q0 -118 59 -219.5t160.5 -160.5t219.5 -59t219.5 59t160.5 160.5t59 219.5v896h73v-896q0 -212 -150 -362t-362 -150t-362 150t-150 362v823h-36v73h109z" />
    <glyph glyph-name="V" unicode="V" horiz-adv-x="1243" 
d="M1205 1377l-556 -1393h-55l-528 1333h-29v73h80l505 -1275l515 1288z" />
    <glyph glyph-name="W" unicode="W" horiz-adv-x="1974" 
d="M55 1317v73h80l468 -1269l348 921v201h73v-201l342 -921l477 1282l70 -26l-520 -1393h-54l-352 947l-356 -947h-55l-492 1333h-29z" />
    <glyph glyph-name="X" unicode="X" horiz-adv-x="1243" 
d="M1101 1408l58 -44l-492 -645l529 -693l-59 -44l-515 676l-516 -676l-58 44l528 693l-496 649l59 44l483 -633z" />
    <glyph glyph-name="Y" unicode="Y" horiz-adv-x="1243" 
d="M624 583l493 821l64 -36l-523 -869v-499h-73v499l-495 818h-35v73h75l490 -807h4z" />
    <glyph glyph-name="Z" unicode="Z" horiz-adv-x="1170" 
d="M1061 1390v-48l-880 -1267h-2v-2h845v37h73v-110h-1024v48l880 1267h2v2h-772v-37h-73v110h951z" />
    <glyph glyph-name="bracketleft" unicode="[" horiz-adv-x="438" 
d="M219 1463v-1829h147v-73h-220v1975h220v-73h-147z" />
    <glyph glyph-name="backslash" unicode="\" horiz-adv-x="1097" 
d="M99 1426l962 -1503l-63 -40l-961 1503z" />
    <glyph glyph-name="bracketright" unicode="]" horiz-adv-x="438" 
d="M219 1463h-146v73h220v-1975h-220v73h146v1829z" />
    <glyph glyph-name="asciicircum" unicode="^" horiz-adv-x="1047" 
d="M483 1408q8 11 22 11t22 -11l395 -514l-44 -33l-373 485l-390 -487l-42 37z" />
    <glyph glyph-name="underscore" unicode="_" horiz-adv-x="1444" 
d="M1317 -384h-1244v55h1244v-55z" />
    <glyph glyph-name="grave" unicode="`" horiz-adv-x="438" 
d="M336 1097l-281 236l77 75l252 -254z" />
    <glyph glyph-name="a" unicode="a" horiz-adv-x="1097" 
d="M878 245v267h-403q-160 0 -244.5 -68.5t-84.5 -160.5q0 -96 96.5 -162t232.5 -66q122 0 240.5 52t162.5 138zM876 150q-70 -80 -180.5 -124t-220.5 -44q-166 0 -284 87.5t-118 213.5q0 125 107.5 213.5t294.5 88.5h403v55q0 73 -28 125.5t-76.5 79.5t-101.5 39t-114 12
q-148 0 -265 -55v-36h-74v80q62 39 154.5 61.5t184.5 22.5q61 0 116 -10.5t106.5 -35t88.5 -61.5t59.5 -94t22.5 -128v-567h36v-73h-109v150h-2z" />
    <glyph glyph-name="b" unicode="b" horiz-adv-x="1170" 
d="M219 232v-232h-73v1317h-36v73h109v-671h2q59 115 165 182.5t236 67.5q129 0 238.5 -66.5t173 -180.5t63.5 -247t-63.5 -246.5t-173 -180t-238.5 -66.5q-130 0 -236 67.5t-165 182.5h-2zM219 475q0 -175 118.5 -297.5t284.5 -122.5t284 122.5t118 297.5t-118 298
t-284 123t-284.5 -123t-118.5 -298z" />
    <glyph glyph-name="c" unicode="c" horiz-adv-x="987" 
d="M841 794q-120 102 -274 102q-174 0 -297.5 -123.5t-123.5 -297.5t123.5 -297t297.5 -123q89 0 168.5 35t138.5 98l55 -51q-69 -74 -162.5 -114.5t-199.5 -40.5q-134 0 -247.5 66t-180 179.5t-66.5 247.5t66.5 247.5t180 180t247.5 66.5q189 0 334 -132l13 -10v-59h-73v26
z" />
    <glyph glyph-name="d" unicode="d" horiz-adv-x="1170" 
d="M951 475q0 175 -118 298t-284 123t-284.5 -123t-118.5 -298t118.5 -297.5t284.5 -122.5t284 122.5t118 297.5zM1024 1390v-1317h37v-73h-110v232h-2q-59 -115 -164.5 -182.5t-235.5 -67.5q-197 0 -336.5 145t-139.5 348q0 133 63.5 247t173.5 180.5t239 66.5
q130 0 235.5 -67.5t164.5 -182.5h2v598h-37v73h110z" />
    <glyph glyph-name="e" unicode="e" horiz-adv-x="1060" 
d="M494 512q25 0 53.5 7.5t51 16t55 29t49 31.5t52 40t45.5 37.5t46 41.5t39 35q-59 69 -141.5 107.5t-176.5 38.5q-163 0 -284 -111t-135 -273h346zM148 439q14 -162 134.5 -273t284.5 -111q89 0 168.5 35t138.5 98l53 -49q-69 -74 -162 -115.5t-198 -41.5
q-134 0 -247.5 66t-180 179.5t-66.5 247.5t66.5 247.5t180.5 180t247 66.5q121 0 225 -54.5t173 -148.5l21 -27l-26 -22q-10 -8 -63 -56.5t-89.5 -77t-93 -67t-112.5 -58t-108 -19.5h-346z" />
    <glyph glyph-name="f" unicode="f" horiz-adv-x="731" 
d="M73 878v73h146v146q0 129 91 220t220 91q85 0 157 -42t112 -113l6 -10v-54h-74v34q-32 52 -85.5 82t-115.5 30q-99 0 -168 -69.5t-69 -168.5v-146h292v-73h-292v-878h-74v878h-146z" />
    <glyph glyph-name="g" unicode="g" horiz-adv-x="1024" 
d="M245 66q-55 -37 -95 -110t-40 -143q0 -80 58 -129.5t187 -49.5h373q103 0 154 41t51 98q0 53 -38 99t-105 62zM188 187q0 -30 55 -44l563 -138q90 -21 145 -87t55 -145q0 -90 -72 -151t-206 -61h-373q-162 0 -240 71.5t-78 180.5q0 77 36.5 153.5t92.5 128.5
q-51 32 -51 92q0 86 125 217q-94 96 -94 227q0 141 108 239.5t258 98.5q68 0 119 -18h356v-73h-224q115 -100 115 -247q0 -140 -108 -239t-258 -99q-118 0 -216 65q-52 -52 -80 -97.5t-28 -73.5zM219 631q0 -109 85 -187t208 -78t208 78t85 187t-85.5 187t-207.5 78
q-123 0 -208 -78t-85 -187z" />
    <glyph glyph-name="h" unicode="h" horiz-adv-x="1170" 
d="M221 680q63 133 178.5 211t258.5 78q166 0 266 -88.5t100 -240.5v-567h37v-73h-110v73v567q0 122 -79 189t-214 67q-116 0 -216.5 -61t-161.5 -171t-61 -243v-421h-73v1317h-36v73h109v-710h2z" />
    <glyph glyph-name="i" unicode="i" horiz-adv-x="365" 
d="M110 1253q0 26 19 45t45 19t45 -19t19 -45t-19 -45t-45 -19t-45 19t-19 45zM146 878h-36v73h109v-951h-73v878z" />
    <glyph glyph-name="j" unicode="j" horiz-adv-x="329" 
d="M110 1253q0 26 19 45t45 19t45 -19t19 -45t-19 -45t-45 -19t-45 19t-19 45zM110 951h109v-1116q0 -114 -80 -194t-194 -80q-72 0 -133.5 34.5t-98.5 93.5l-6 9v46h74v-24q29 -39 71.5 -62.5t92.5 -23.5q84 0 142.5 58.5t58.5 142.5v1043h-36v73z" />
    <glyph glyph-name="k" unicode="k" horiz-adv-x="1097" 
d="M221 300l618 651h112v-73h-81l-332 -353l343 -386q61 -66 143 -66v-73q-114 0 -196 91l-342 381l-267 -284v-188h-73v1317h-36v73h109v-1090h2z" />
    <glyph glyph-name="l" unicode="l" horiz-adv-x="365" 
d="M110 1390h109v-1390h-73v1317h-36v73z" />
    <glyph glyph-name="m" unicode="m" horiz-adv-x="1828" 
d="M221 702q28 64 68.5 113t82 77.5t89 46.5t85.5 24t76 6q146 0 229.5 -70.5t97.5 -203.5h2q28 65 67.5 115t80.5 79.5t88.5 48t86.5 25t79 6.5q160 0 244.5 -85t84.5 -244v-567h37v-73h-110v73v567q0 256 -256 256q-174 0 -288 -134t-114 -341v-421h-73v640
q0 256 -256 256q-174 0 -288.5 -134t-114.5 -341v-421h-73v878h-36v73h109v-249h2z" />
    <glyph glyph-name="n" unicode="n" horiz-adv-x="1170" 
d="M221 680q63 133 178.5 211t258.5 78q166 0 266 -88.5t100 -240.5v-567h37v-73h-110v73v567q0 122 -79 189t-214 67q-116 0 -216.5 -61t-161.5 -171t-61 -243v-421h-73v878h-36v73h109v-271h2z" />
    <glyph glyph-name="o" unicode="o" horiz-adv-x="1133" 
d="M146 475q0 -174 123.5 -297t297.5 -123t297 123t123 297t-123 297.5t-297 123.5t-297.5 -123.5t-123.5 -297.5zM567 969q134 0 247.5 -66.5t180 -180t66.5 -247.5t-66.5 -247.5t-180 -179.5t-247.5 -66t-247.5 66t-180 179.5t-66.5 247.5t66.5 247.5t180 180t247.5 66.5z
" />
    <glyph glyph-name="p" unicode="p" horiz-adv-x="1170" 
d="M219 232v-671h-73v1317h-36v73h109v-232h2q59 115 165 182.5t236 67.5q129 0 238.5 -66.5t173 -180.5t63.5 -247t-63.5 -246.5t-173 -180t-238.5 -66.5q-130 0 -236 67.5t-165 182.5h-2zM219 475q0 -175 118.5 -297.5t284.5 -122.5t284 122.5t118 297.5t-118 298
t-284 123t-284.5 -123t-118.5 -298z" />
    <glyph glyph-name="q" unicode="q" horiz-adv-x="1170" 
d="M951 475q0 175 -118 298t-284 123t-284.5 -123t-118.5 -298t118.5 -297.5t284.5 -122.5t284 122.5t118 297.5zM1024 951v-1317h37v-73h-110v671h-2q-59 -115 -164.5 -182.5t-235.5 -67.5q-197 0 -336.5 145t-139.5 348q0 133 63.5 247t173.5 180.5t239 66.5
q130 0 235.5 -67.5t164.5 -182.5h2v232h73z" />
    <glyph glyph-name="r" unicode="r" horiz-adv-x="731" 
d="M221 640q64 148 179 238.5t222 90.5h36v-110h-73v33q-58 -11 -121 -54t-118 -109t-91 -162t-36 -201v-366h-73v878h-36v73h109v-311h2z" />
    <glyph glyph-name="s" unicode="s" 
d="M475 542q168 -56 224 -82q154 -74 175 -189q4 -20 4 -42q0 -109 -111 -178t-292 -69q-143 0 -243 44t-152 111l-7 9v55h73v-29q40 -47 120.5 -82t208.5 -35q160 0 245 53.5t85 120.5q0 37 -17.5 67.5t-43.5 52t-69.5 42t-81.5 34t-93 31.5q-17 5 -25 8q-61 20 -99 34.5
t-86.5 40t-76.5 51.5t-47.5 64.5t-19.5 84.5q0 90 100.5 160t228.5 70q199 0 319 -117l11 -11v-55h-74v24q-99 86 -256 86q-105 0 -180.5 -52.5t-75.5 -104.5q0 -30 14.5 -56t35.5 -44.5t57.5 -37t68.5 -31t80 -28.5z" />
    <glyph glyph-name="t" unicode="t" horiz-adv-x="877" 
d="M73 878v73h146v219h74v-219h438v-73h-438v-585q0 -99 69 -168.5t168 -69.5q62 0 115.5 30t85.5 81v17h74v-37l-6 -9q-40 -71 -112 -113t-157 -42q-129 0 -220 91t-91 220v585h-146z" />
    <glyph glyph-name="u" unicode="u" horiz-adv-x="1170" 
d="M219 951v-73v-567q0 -122 79 -189t214 -67q116 0 216.5 61t161.5 171t61 243v421h73v-878h37v-73h-110v271h-2q-63 -133 -178.5 -211t-258.5 -78q-166 0 -266 88.5t-100 240.5v567h-36v73h109z" />
    <glyph glyph-name="v" unicode="v" horiz-adv-x="1097" 
d="M1077 934l-486 -950h-48l-455 894h-33v73h77l435 -854l444 870z" />
    <glyph glyph-name="w" unicode="w" horiz-adv-x="1645" 
d="M512 106l293 649v159h73v-159l292 -649l386 859l66 -29l-426 -952h-51l-304 674l-303 -674h-52l-400 894h-31v73h78z" />
    <glyph glyph-name="x" unicode="x" horiz-adv-x="1024" 
d="M883 971l55 -48l-377 -427l414 -469l-55 -47l-408 461l-408 -461l-55 47l415 469l-338 382h-35v73h68l353 -401z" />
    <glyph glyph-name="y" unicode="y" horiz-adv-x="1097" 
d="M1061 903l-553 -1146q-95 -196 -245 -196q-68 0 -127 40t-94 94l-5 9v38h73v-16q28 -39 69 -65.5t84 -26.5q104 0 180 156l65 137l-422 951h-31v73h78l416 -936h1l437 907v29h74v-48z" />
    <glyph glyph-name="z" unicode="z" horiz-adv-x="1024" 
d="M795 878h-612v-37h-73v110h804v-51l-722 -825v-2h686v37h73v-110h-878v51l722 825v2z" />
    <glyph glyph-name="braceleft" unicode="{" horiz-adv-x="438" 
d="M146 -183v530q0 43 -12.5 74.5t-31.5 46t-35 20.5t-30 6h-37v109h37q14 0 30 6t35 20.5t31.5 46t12.5 74.5v530q0 80 18.5 133.5t52.5 78.5t69 34.5t80 9.5v-73q-36 0 -59.5 -6t-45 -24t-32 -56t-10.5 -97v-530q0 -147 -109 -201q47 -23 78 -73.5t31 -128.5v-530
q0 -59 10.5 -97t32 -56t45 -24t59.5 -6v-73q-45 0 -80 9.5t-69 34.5t-52.5 78.5t-18.5 133.5z" />
    <glyph glyph-name="bar" unicode="|" horiz-adv-x="365" 
d="M146 1317h73v-1683h-73v1683z" />
    <glyph glyph-name="braceright" unicode="}" horiz-adv-x="438" 
d="M293 -183q0 -80 -18.5 -133.5t-52.5 -78.5t-69 -34.5t-80 -9.5v73q36 0 59 6t44.5 24t32 56t10.5 97v530q0 78 31.5 128.5t78.5 73.5q-110 54 -110 201v530q0 59 -10.5 97t-32 56t-44.5 24t-59 6v73q45 0 80 -9.5t69 -34.5t52.5 -78.5t18.5 -133.5v-530q0 -43 12.5 -74.5
t31.5 -46t35 -20.5t30 -6h37v-109h-37q-14 0 -30 -6t-35 -20.5t-31.5 -46t-12.5 -74.5v-530z" />
    <glyph glyph-name="asciitilde" unicode="~" horiz-adv-x="731" 
d="M208 790q45 0 88 -22l172 -80q30 -15 57 -15q9 0 16.5 1.5t13 4t11 7t9 8t6.5 9t5 9.5t4 10t2.5 8.5t2 7.5t1.5 6l73 -13q-11 -61 -49 -96t-95 -35q-47 0 -90 22l-172 80q-30 15 -55 15q-27 0 -44.5 -15.5t-21 -26.5t-7.5 -28l-73 11q11 65 51 98.5t95 33.5z" />
    <glyph glyph-name="exclamdown" unicode="&#xa1;" horiz-adv-x="365" 
d="M119 905q0 26 19 45t45 19t45 -19t19 -45t-19 -45t-45 -19t-45 19t-19 45zM219 -439h-109v73h36v951h73v-1024z" />
    <glyph glyph-name="cent" unicode="&#xa2;" horiz-adv-x="1024" 
d="M512 115v867q-156 -26 -261 -149t-105 -284t105 -284.5t261 -149.5zM951 907v-66h-73v35q-127 111 -293 111v-877q93 0 177 37t145 102l51 -50q-71 -76 -168 -119t-205 -43v-110h-73v115q-187 28 -313 172t-126 335t126 334.5t313 171.5v115h73v-109q105 0 200 -40.5
t166 -113.5z" />
    <glyph glyph-name="sterling" unicode="&#xa3;" horiz-adv-x="1097" 
d="M55 73q99 0 168.5 69.5t69.5 168.5v347h-147v73h147v311q0 129 90.5 220t219.5 91q85 0 157 -42t112 -113l6 -9v-37h-73v16q-32 52 -86 82t-116 30q-99 0 -168 -69.5t-69 -168.5v-311h292v-73h-292v-347q0 -70 -29 -132.5t-81 -105.5h695v37h73v-110h-969v73z" />
    <glyph glyph-name="currency" unicode="&#xa4;" horiz-adv-x="658" 
d="M335 889q88 0 159 -55l87 89l50 -54l-86 -86q51 -68 51 -156q0 -90 -47 -152l80 -82l-55 -47l-77 76q-73 -56 -162 -56q-88 0 -156 51l-82 -81l-48 55l79 77q-55 71 -55 159q0 89 57 163l-88 88l55 47l86 -84q63 48 152 48zM201 761q-55 -55 -55 -134q0 -78 55 -133
t134 -55q78 0 133 55t55 133q0 79 -55 134t-133 55q-79 0 -134 -55z" />
    <glyph glyph-name="yen" unicode="&#xa5;" horiz-adv-x="1243" 
d="M293 512v73h241l-444 732h-35v73h75l488 -805h7l496 823l64 -37l-476 -786h242v-73h-285l-8 -13v-133h293v-73h-293v-293h-73v293h-292v73h292v133l-7 13h-285z" />
    <glyph glyph-name="brokenbar" unicode="&#xa6;" horiz-adv-x="365" 
d="M146 658v732h73v-732h-73zM219 293v-732h-73v732h73z" />
    <glyph glyph-name="section" unicode="&#xa7;" horiz-adv-x="1170" 
d="M817 112q103 35 155 96t52 136q0 89 -46.5 155t-125.5 108.5t-162.5 74.5t-180.5 73t-156 84q-103 -35 -155 -96t-52 -136q0 -89 46.5 -155t125.5 -108.5t162.5 -74.5t180.5 -73t156 -84zM585 1317q-149 0 -220.5 -63.5t-71.5 -163.5q0 -60 27.5 -109t74 -82.5t107 -62
t127 -53.5t133 -51.5t127 -61.5t107 -78t74 -106.5t27.5 -141.5q0 -92 -56 -167t-161 -120q71 -82 71 -196q0 -129 -92.5 -214.5t-273.5 -85.5q-151 0 -258.5 107.5t-107.5 258.5h74q0 -121 85.5 -207t206.5 -86q149 0 221 63.5t72 163.5q0 60 -27.5 109t-74 82.5t-107 62
t-127.5 53.5t-133.5 51.5t-127 61.5t-107 78t-74 106.5t-27.5 141.5q0 87 54 163.5t164 123.5q-72 83 -72 196q0 129 92.5 214.5t273.5 85.5q151 0 258.5 -107.5t107.5 -258.5h-73q0 121 -86 207t-207 86z" />
    <glyph glyph-name="dieresis" unicode="&#xa8;" horiz-adv-x="731" 
d="M521 1216q0 26 19 45t45 19t45 -19t19 -45t-19 -45t-45 -19t-45 19t-19 45zM91 1216q0 26 19 45t45 19t45 -19t19 -45t-19 -45t-45 -19t-45 19t-19 45z" />
    <glyph glyph-name="copyright" unicode="&#xa9;" horiz-adv-x="1682" 
d="M1097 995q-109 84 -238 84q-159 0 -271.5 -112.5t-112.5 -271.5t112.5 -271.5t271.5 -112.5q168 0 282 121l53 -50q-135 -144 -335 -144q-189 0 -323 134t-134 323t134 323t323 134q166 0 298 -112l13 -11v-78h-73v44zM1516 346q-104 -166 -282 -262q-181 -95 -393 -95
t-393 95q-178 96 -282 262q-102 157 -102 353q0 195 102 352q104 166 282 262q189 99 393 99t393 -99q178 -96 282 -262q102 -157 102 -352q0 -196 -102 -353zM1545 699q0 173 -91 314q-94 150 -254 236q-164 90 -359 90q-194 0 -358 -90q-160 -86 -254 -236
q-92 -142 -92 -314q0 -173 92 -315q94 -150 254 -236q159 -86 358 -86q202 0 359 86q160 86 254 236q91 141 91 315z" />
    <glyph glyph-name="ordfeminine" unicode="&#xaa;" horiz-adv-x="804" 
d="M658 830v194h-270q-117 0 -179.5 -45.5t-62.5 -109.5q0 -82 69 -128t173 -46q87 0 162.5 36.5t107.5 98.5zM750 658h-92v57q-106 -93 -270 -93q-138 0 -226.5 68.5t-88.5 178.5q0 98 85.5 163t229.5 65h270v73q0 183 -219 183q-134 0 -220 -53v-20h-73v57l15 11
q45 36 122.5 57t155.5 21q127 0 209.5 -62t82.5 -194v-439h19v-73z" />
    <glyph glyph-name="guillemotleft" unicode="&#xab;" horiz-adv-x="731" 
d="M128 477v-5l238 -287l-57 -46l-254 307v59l254 311l57 -48zM421 477v-5l237 -287l-56 -46l-255 307v59l255 311l56 -48z" />
    <glyph glyph-name="logicalnot" unicode="&#xac;" horiz-adv-x="1097" 
d="M73 731h878v-512h-73v439h-805v73z" />
    <glyph glyph-name="uni00AD" unicode="&#xad;" horiz-adv-x="658" 
d="M585 512h-512v73h512v-73z" />
    <glyph glyph-name="registered" unicode="&#xae;" horiz-adv-x="1682" 
d="M891 713q106 0 163.5 54.5t57.5 128.5t-57 128.5t-164 54.5h-233v-366h233zM1170 274q-74 0 -117 70l-133 214q-36 59 -60.5 70.5t-106.5 11.5h-95v-366h-73v878h306q138 0 216 -75.5t78 -180.5q0 -94 -66.5 -159.5t-187.5 -76.5q30 -30 49 -62l135 -214q15 -23 25 -30
t30 -7h51v-73h-51zM1545 699q0 173 -91 314q-94 150 -254 236q-164 90 -359 90q-194 0 -358 -90q-160 -86 -254 -236q-92 -142 -92 -314q0 -173 92 -315q94 -150 254 -236q159 -86 358 -86q202 0 359 86q160 86 254 236q91 141 91 315zM1516 346q-104 -166 -282 -262
q-181 -95 -393 -95t-393 95q-178 96 -282 262q-102 157 -102 353q0 195 102 352q104 166 282 262q189 99 393 99t393 -99q178 -96 282 -262q102 -157 102 -352q0 -196 -102 -353z" />
    <glyph glyph-name="macron" unicode="&#xaf;" horiz-adv-x="731" 
d="M658 1243h-585v74h585v-74z" />
    <glyph glyph-name="degree" unicode="&#xb0;" horiz-adv-x="512" 
d="M256 1317q-40 0 -75 -33.5t-35 -76.5t35 -76.5t75 -33.5t75 33.5t35 76.5t-35 76.5t-75 33.5zM256 1390q70 0 126.5 -55t56.5 -128t-56.5 -128t-126.5 -55t-126.5 55t-56.5 128t56.5 128t126.5 55z" />
    <glyph glyph-name="plusminus" unicode="&#xb1;" 
d="M878 146h-805v73h805v-73zM512 805h366v-74h-366v-365h-73v365h-366v74h366v365h73v-365z" />
    <glyph glyph-name="uni00B2" unicode="&#xb2;" horiz-adv-x="658" 
d="M585 878h-512v62l285 262q87 80 120.5 135t33.5 106v2q0 76 -53.5 129.5t-129.5 53.5t-129.5 -53.5t-53.5 -129.5h-73q0 106 75 181t181 75t181 -75t75 -181v-2q0 -70 -41.5 -140t-135.5 -156l-214 -196h318v33h73v-106z" />
    <glyph glyph-name="uni00B3" unicode="&#xb3;" horiz-adv-x="658" 
d="M146 1110q0 -73 53.5 -125t129.5 -52t129.5 52t53.5 125t-53.5 125.5t-129.5 52.5v73q58 0 98.5 39t40.5 94t-40.5 94.5t-98.5 39.5t-98.5 -39.5t-40.5 -94.5h-73q0 86 62 146.5t150 60.5t150 -60.5t62 -146.5q0 -51 -29 -95t-77 -71v-2q68 -29 109 -87t41 -129
q0 -104 -75 -177t-181 -73t-181 73t-75 177h73z" />
    <glyph glyph-name="acute" unicode="&#xb4;" horiz-adv-x="438" 
d="M121 1115l-52 52l203 204l53 -51z" />
    <glyph glyph-name="mu" unicode="&#xb5;" horiz-adv-x="1170" 
d="M219 951v-73v-567q0 -122 79 -189t214 -67q116 0 216.5 61t161.5 171t61 243v421h73v-878h37v-73h-110v271h-2q-63 -133 -178.5 -211t-258.5 -78q-104 0 -184 36t-127 103v-68q0 -50 19 -125.5t19 -106.5q0 -76 -36 -133l-62 39q24 38 24 94q0 25 -9.5 102t-9.5 130v258
v16v551h-36v73h109z" />
    <glyph glyph-name="paragraph" unicode="&#xb6;" horiz-adv-x="877" 
d="M366 -366v1097q-121 0 -207 86t-86 207t86 207t207 86h365v-1683h-73v1609h-219v-1609h-73zM366 1243q-92 0 -156 -64t-64 -155t64 -155t156 -64v438z" />
    <glyph glyph-name="periodcentered" unicode="&#xb7;" horiz-adv-x="365" 
d="M110 485q0 26 19 45t45 19t45 -19t19 -45t-19 -45t-45 -19t-45 19t-19 45z" />
    <glyph glyph-name="cedilla" unicode="&#xb8;" horiz-adv-x="822" 
d="M291 -146l-46 13l46 159l53 -15l-24 -84q25 7 57 7q79 0 125.5 -52.5t46.5 -122.5q0 -74 -55 -116t-125 -42q-50 0 -93.5 22.5t-67.5 63.5l48 28q35 -59 113 -59q51 0 78.5 32.5t27.5 77.5t-26 79t-72 34q-31 0 -86 -25z" />
    <glyph glyph-name="uni00B9" unicode="&#xb9;" horiz-adv-x="365" 
d="M146 1562l-34 -39l-55 48l98 111h64v-804h-73v684z" />
    <glyph glyph-name="ordmasculine" unicode="&#xba;" 
d="M475 1353q-136 0 -232.5 -96.5t-96.5 -232.5t96.5 -232.5t232.5 -96.5t233 96.5t97 232.5t-97 232.5t-233 96.5zM878 1024q0 -166 -118.5 -284t-284.5 -118t-284 118t-118 284t118 284t284 118t284.5 -118t118.5 -284z" />
    <glyph glyph-name="guillemotright" unicode="&#xbb;" horiz-adv-x="731" 
d="M603 474v5l-237 287l56 46l255 -307v-59l-255 -311l-56 48zM311 474v5l-238 287l57 46l254 -307v-59l-254 -311l-57 48z" />
    <glyph glyph-name="onequarter" unicode="&#xbc;" horiz-adv-x="1316" 
d="M1097 439h73v-293h73v-73h-73v-146h-73v146h-402v60l5 10q152 231 208 351t56 237h73q0 -129 -54.5 -253.5t-190.5 -331.5h305v293zM1033 1267l55 -47l-1024 -1171l-55 48zM146 1269l-34 -38l-55 47l98 112h64v-805h-73v684z" />
    <glyph glyph-name="onehalf" unicode="&#xbd;" horiz-adv-x="1316" 
d="M1243 -73h-512v62l286 262q87 80 120 135t33 106v2q0 76 -53.5 129.5t-129.5 53.5t-129 -53.5t-53 -129.5h-74q0 106 75 181t181 75t181 -75t75 -181v-2q0 -70 -41.5 -140t-135.5 -156l-214 -196h318v33h73v-106zM146 1269l-34 -38l-55 47l98 112h64v-805h-73v684z
M1033 1267l55 -47l-1024 -1171l-55 48z" />
    <glyph glyph-name="threequarters" unicode="&#xbe;" horiz-adv-x="1536" 
d="M146 817q0 -73 53.5 -125t129.5 -52t129.5 52t53.5 125t-53.5 125.5t-129.5 52.5v73q58 0 98.5 39t40.5 94t-40.5 94.5t-98.5 39.5t-98.5 -39.5t-40.5 -94.5h-73q0 86 62 146.5t150 60.5t150 -60.5t62 -146.5q0 -51 -29 -95t-77 -71v-2q68 -29 109 -87t41 -129
q0 -104 -75 -177t-181 -73t-181 73t-75 177h73zM1317 439h73v-293h73v-73h-73v-146h-73v146h-403v60l6 10q152 230 207.5 350.5t55.5 237.5h73q0 -129 -54.5 -253.5t-190.5 -331.5h306v293zM1253 1267l54 -47l-1024 -1171l-54 48z" />
    <glyph glyph-name="questiondown" unicode="&#xbf;" horiz-adv-x="877" 
d="M411 905q0 26 19 45t45 19t45 -19t19 -45t-19 -45t-45 -19t-45 19t-19 45zM512 443q0 -52 -20 -93t-52.5 -69t-71.5 -53.5t-78 -52.5t-71.5 -59t-52.5 -80t-20 -109q0 -121 86 -207t207 -86t206.5 86t85.5 207h74q0 -151 -107.5 -258.5t-258.5 -107.5t-258.5 107.5
t-107.5 258.5q0 69 20 125t52.5 92.5t71.5 66.5t78 54.5t71.5 49t52.5 57t20 71.5v142h73v-142z" />
    <glyph glyph-name="Agrave" unicode="&#xc0;" horiz-adv-x="1243" 
d="M684 1554l-203 205l53 51l203 -205zM1006 366h-728l-143 -366h-80v73h29l530 1351h52l557 -1409l-67 -30zM640 1289l-333 -850h669l-334 850h-2z" />
    <glyph glyph-name="Aacute" unicode="&#xc1;" horiz-adv-x="1243" 
d="M596 1554l-51 51l203 205l53 -51zM1006 366h-728l-143 -366h-80v73h29l530 1351h52l557 -1409l-67 -30zM640 1289l-333 -850h669l-334 850h-2z" />
    <glyph glyph-name="Acircumflex" unicode="&#xc2;" horiz-adv-x="1243" 
d="M644 1737h-8l-252 -201l-46 57l273 217h58l273 -217l-46 -57zM1006 366h-728l-143 -366h-80v73h29l530 1351h52l557 -1409l-67 -30zM640 1289l-333 -850h669l-334 850h-2z" />
    <glyph glyph-name="Atilde" unicode="&#xc3;" horiz-adv-x="1243" 
d="M709 1723q38 -19 63 -19q52 0 62 64l11 50l71 -13l-9 -50q-11 -62 -48 -92t-87 -30q-52 0 -88 20l-113 62q-36 18 -63 18q-52 0 -62 -64l-11 -49l-71 13l9 49q11 62 48 92.5t87 30.5q52 0 88 -20zM1006 366h-728l-143 -366h-80v73h29l530 1351h52l557 -1409l-67 -30z
M640 1289l-333 -850h669l-334 850h-2z" />
    <glyph glyph-name="Adieresis" unicode="&#xc4;" horiz-adv-x="1243" 
d="M795 1655q0 26 19 45t45 19t45 -19t19 -45t-19 -45t-45 -19t-45 19t-19 45zM366 1655q0 26 19 45t45 19t45 -19t19 -45t-19 -45t-45 -19t-45 19t-19 45zM1006 366h-728l-143 -366h-80v73h29l530 1351h52l557 -1409l-67 -30zM640 1289l-333 -850h669l-334 850h-2z" />
    <glyph glyph-name="Aring" unicode="&#xc5;" horiz-adv-x="1243" 
d="M640 1829q68 0 124 -55q59 -57 59 -128t-59 -128q-56 -55 -124 -55q-65 0 -124 57t-59 126q0 71 59 128q56 55 124 55zM640 1774q-44 0 -88 -41q-40 -40 -40 -87q0 -48 40 -88t88 -40q45 0 88 40q40 40 40 88q0 47 -40 87q-44 41 -88 41zM1006 366h-728l-143 -366h-80v73
h29l530 1351h52l557 -1409l-67 -30zM640 1289l-333 -850h669l-334 850h-2z" />
    <glyph glyph-name="AE" unicode="&#xc6;" horiz-adv-x="1755" 
d="M280 366l-185 -366h-58v73h14l660 1317h898v-110h-73v37h-603v-586h310v-73h-310v-585h676v37h73v-110h-823v366h-579zM316 439h543v878h-102z" />
    <glyph glyph-name="Ccedilla" unicode="&#xc7;" horiz-adv-x="1280" 
d="M613 -175l-46 13l46 159l53 -15l-24 -84q25 7 57 7q79 0 125.5 -52.5t46.5 -122.5q0 -74 -55 -116t-125 -42q-50 0 -93.5 22.5t-67.5 63.5l48 28q35 -59 113 -59q51 0 78.5 32.5t27.5 77.5t-26 79t-72 34q-31 0 -86 -25zM1134 1232q-163 103 -348 103q-130 0 -248.5 -51
t-204 -136.5t-136.5 -204t-51 -248.5t51 -248.5t136.5 -204t204 -136.5t248.5 -51q208 0 370 117l44 -59q-184 -131 -414 -131q-145 0 -277 56.5t-227.5 152t-152 227.5t-56.5 277t56.5 277t152 227.5t227.5 152t277 56.5q223 0 404 -124l17 -11v-66h-73v25z" />
    <glyph glyph-name="Egrave" unicode="&#xc8;" horiz-adv-x="1170" 
d="M629 1554l-203 205l53 51l203 -204zM951 1317h-732v-586h439v-73h-439v-585h805v37h73v-110h-951v1317h-36v73h914v-110h-73v37z" />
    <glyph glyph-name="Eacute" unicode="&#xc9;" horiz-adv-x="1170" 
d="M541 1554l-51 52l203 204l53 -51zM951 1317h-732v-586h439v-73h-439v-585h805v37h73v-110h-951v1317h-36v73h914v-110h-73v37z" />
    <glyph glyph-name="Ecircumflex" unicode="&#xca;" horiz-adv-x="1170" 
d="M588 1737h-7l-252 -201l-46 57l272 217h59l272 -217l-45 -57zM951 1317h-732v-586h439v-73h-439v-585h805v37h73v-110h-951v1317h-36v73h914v-110h-73v37z" />
    <glyph glyph-name="Edieresis" unicode="&#xcb;" horiz-adv-x="1170" 
d="M741 1655q0 26 19 45t45 19t45 -19t19 -45t-19 -45t-45 -19t-45 19t-19 45zM311 1655q0 26 19 45t45 19t45 -19t19 -45t-19 -45t-45 -19t-45 19t-19 45zM951 1317h-732v-586h439v-73h-439v-585h805v37h73v-110h-951v1317h-36v73h914v-110h-73v37z" />
    <glyph glyph-name="Igrave" unicode="&#xcc;" horiz-adv-x="365" 
d="M227 1554l-203 205l53 51l203 -205zM219 0h-73v1390h73v-1390z" />
    <glyph glyph-name="Iacute" unicode="&#xcd;" horiz-adv-x="365" 
d="M139 1554l-51 51l203 205l53 -51zM219 0h-73v1390h73v-1390z" />
    <glyph glyph-name="Icircumflex" unicode="&#xce;" horiz-adv-x="365" 
d="M187 1737h-8l-252 -201l-46 57l273 217h58l273 -217l-46 -57zM219 0h-73v1390h73v-1390z" />
    <glyph glyph-name="Idieresis" unicode="&#xcf;" horiz-adv-x="365" 
d="M338 1655q0 26 19 45t45 19t45 -19t19 -45t-19 -45t-45 -19t-45 19t-19 45zM-91 1655q0 26 19 45t45 19t45 -19t19 -45t-19 -45t-45 -19t-45 19t-19 45zM219 0h-73v1390h73v-1390z" />
    <glyph glyph-name="Eth" unicode="&#xd0;" horiz-adv-x="1389" 
d="M219 73h403q169 0 312 83t226 226.5t83 312.5t-83 312.5t-226 226.5t-312 83h-403v-586h366v-73h-366v-585zM146 1317h-36v73h36h39h437q141 0 270 -55t222 -148t148 -222t55 -270t-55 -270t-148 -222t-222 -148t-270 -55h-476v658h-73v73h73v586z" />
    <glyph glyph-name="Ntilde" unicode="&#xd1;" horiz-adv-x="1316" 
d="M764 1723q38 -19 63 -19q52 0 62 64l11 50l71 -13l-9 -50q-11 -62 -48 -92t-87 -30q-52 0 -88 20l-114 62q-36 18 -62 18q-52 0 -62 -64l-11 -49l-71 13l9 49q11 62 48 92.5t87 30.5q52 0 88 -20zM1170 1390v-1390h-73l-878 1264v-1264h-73v1317h-36v73h109l878 -1264
v1264h73z" />
    <glyph glyph-name="Ograve" unicode="&#xd2;" horiz-adv-x="1609" 
d="M848 1554l-203 205l54 51l202 -205zM146 695q0 -134 52 -256t140.5 -210t210.5 -140t256 -52q179 0 330.5 88t239.5 239.5t88 330.5t-88 330.5t-239.5 239.5t-330.5 88q-134 0 -256 -52t-210.5 -140t-140.5 -210t-52 -256zM805 1426q199 0 367 -98t266 -266t98 -367
t-98 -367.5t-266 -266.5t-367 -98q-149 0 -284.5 58t-233.5 156t-156 233.5t-58 284.5q0 199 98 367t266.5 266t367.5 98z" />
    <glyph glyph-name="Oacute" unicode="&#xd3;" horiz-adv-x="1572" 
d="M743 1554l-51 52l203 204l53 -51zM146 695q0 -130 51 -248.5t136.5 -204t204 -136.5t248.5 -51t248.5 51t204 136.5t136.5 204t51 248.5t-51 248.5t-136.5 204t-204 136.5t-248.5 51t-248.5 -51t-204 -136.5t-136.5 -204t-51 -248.5zM786 1408q145 0 277 -56.5
t227.5 -152t152 -227.5t56.5 -277t-56.5 -277t-152 -227.5t-227.5 -152t-277 -56.5t-277 56.5t-227.5 152t-152 227.5t-56.5 277t56.5 277t152 227.5t227.5 152t277 56.5z" />
    <glyph glyph-name="Ocircumflex" unicode="&#xd4;" horiz-adv-x="1609" 
d="M808 1737h-7l-252 -201l-46 57l272 217h59l272 -217l-45 -57zM146 695q0 -134 52 -256t140.5 -210t210.5 -140t256 -52q179 0 330.5 88t239.5 239.5t88 330.5t-88 330.5t-239.5 239.5t-330.5 88q-134 0 -256 -52t-210.5 -140t-140.5 -210t-52 -256zM805 1426
q199 0 367 -98t266 -266t98 -367t-98 -367.5t-266 -266.5t-367 -98q-149 0 -284.5 58t-233.5 156t-156 233.5t-58 284.5q0 199 98 367t266.5 266t367.5 98z" />
    <glyph glyph-name="Otilde" unicode="&#xd5;" horiz-adv-x="1609" 
d="M874 1723q38 -19 62 -19q52 0 62 64l11 50l72 -13l-9 -50q-11 -62 -48.5 -92t-87.5 -30q-52 0 -88 20l-113 62q-36 18 -62 18q-52 0 -62 -64l-11 -49l-72 13l10 49q11 62 48 92.5t87 30.5q52 0 88 -20zM146 695q0 -134 52 -256t140.5 -210t210.5 -140t256 -52
q179 0 330.5 88t239.5 239.5t88 330.5t-88 330.5t-239.5 239.5t-330.5 88q-134 0 -256 -52t-210.5 -140t-140.5 -210t-52 -256zM805 1426q199 0 367 -98t266 -266t98 -367t-98 -367.5t-266 -266.5t-367 -98q-149 0 -284.5 58t-233.5 156t-156 233.5t-58 284.5q0 199 98 367
t266.5 266t367.5 98z" />
    <glyph glyph-name="Odieresis" unicode="&#xd6;" horiz-adv-x="1609" 
d="M960 1655q0 26 19 45t45 19t45 -19t19 -45t-19 -45t-45 -19t-45 19t-19 45zM530 1655q0 26 19 45t45 19t45 -19t19 -45t-19 -45t-45 -19t-45 19t-19 45zM146 695q0 -134 52 -256t140.5 -210t210.5 -140t256 -52q179 0 330.5 88t239.5 239.5t88 330.5t-88 330.5
t-239.5 239.5t-330.5 88q-134 0 -256 -52t-210.5 -140t-140.5 -210t-52 -256zM805 1426q199 0 367 -98t266 -266t98 -367t-98 -367.5t-266 -266.5t-367 -98q-149 0 -284.5 58t-233.5 156t-156 233.5t-58 284.5q0 199 98 367t266.5 266t367.5 98z" />
    <glyph glyph-name="multiply" unicode="&#xd7;" horiz-adv-x="658" 
d="M329 709l207 209l51 -53l-207 -207l209 -206l-53 -53l-207 208l-206 -208l-54 53l209 206l-209 207l54 53z" />
    <glyph glyph-name="Oslash" unicode="&#xd8;" horiz-adv-x="1572" 
d="M1401 1359l51 -52l-135 -135q86 -96 134 -219t48 -258q0 -145 -56.5 -277t-152 -227.5t-227.5 -152t-277 -56.5q-134 0 -257 48.5t-220 135.5l-137 -137l-51 51l137 138q-88 96 -136.5 219t-48.5 258q0 145 56.5 277t152 227.5t227.5 152t277 56.5q136 0 259.5 -48.5
t219.5 -136.5zM1212 1172q-181 163 -426 163q-130 0 -248.5 -51t-204 -136.5t-136.5 -204t-51 -248.5q0 -120 43 -230t120 -196zM1264 1119l-904 -901q86 -77 196 -120t230 -43q130 0 248.5 51t204 136.5t136.5 204t51 248.5q0 243 -162 424z" />
    <glyph glyph-name="Ugrave" unicode="&#xd9;" horiz-adv-x="1316" 
d="M702 1554l-203 205l53 51l203 -205zM219 1390v-915q0 -118 59 -219t160 -160t220 -59t220 59t160 160t59 219v915h73v-915q0 -212 -150 -362t-362 -150t-362 150t-150 362v842h-36v73h109z" />
    <glyph glyph-name="Uacute" unicode="&#xda;" horiz-adv-x="1316" 
d="M614 1554l-51 51l203 205l53 -51zM219 1390v-915q0 -118 59 -219t160 -160t220 -59t220 59t160 160t59 219v915h73v-915q0 -212 -150 -362t-362 -150t-362 150t-150 362v842h-36v73h109z" />
    <glyph glyph-name="Ucircumflex" unicode="&#xdb;" horiz-adv-x="1316" 
d="M662 1737h-7l-253 -201l-45 57l272 217h59l272 -217l-46 -57zM219 1390v-915q0 -118 59 -219t160 -160t220 -59t220 59t160 160t59 219v915h73v-915q0 -212 -150 -362t-362 -150t-362 150t-150 362v842h-36v73h109z" />
    <glyph glyph-name="Udieresis" unicode="&#xdc;" horiz-adv-x="1316" 
d="M814 1655q0 26 19 45t45 19t45 -19t19 -45t-19 -45t-45 -19t-45 19t-19 45zM384 1655q0 26 19 45t45 19t45 -19t19 -45t-19 -45t-45 -19t-45 19t-19 45zM219 1390v-915q0 -118 59 -219t160 -160t220 -59t220 59t160 160t59 219v915h73v-915q0 -212 -150 -362t-362 -150
t-362 150t-150 362v842h-36v73h109z" />
    <glyph glyph-name="Yacute" unicode="&#xdd;" horiz-adv-x="1243" 
d="M578 1554l-51 51l203 205l53 -51zM624 583l497 825l64 -37l-527 -872v-499h-73v499l-495 818h-35v73h75l490 -807h4z" />
    <glyph glyph-name="Thorn" unicode="&#xde;" horiz-adv-x="1170" 
d="M219 1170v-804h403q166 0 284 118t118 284t-118 284t-284 118h-403zM146 1390h73v-147h403q197 0 336 -139t139 -336t-139 -336t-336 -139h-403v-293h-73v1390z" />
    <glyph glyph-name="germandbls" unicode="&#xdf;" horiz-adv-x="1097" 
d="M402 177q49 -60 129.5 -91t163.5 -31q107 0 181.5 49t74.5 134q0 47 -17 91t-42 77.5t-68 67.5t-79 56.5t-92.5 49t-91.5 41t-92.5 37l-80.5 31.5l-22 10v115h36q25 0 59.5 8t76 29t76 51.5t58 81.5t23.5 113q0 99 -69.5 168.5t-168.5 69.5q-98 0 -168 -69.5t-70 -168.5
v-1097h-73v878h-73v73h73v146q0 129 91.5 220t219.5 91q129 0 220 -91t91 -220q0 -68 -22.5 -125t-57.5 -94t-80.5 -65t-87 -42t-81.5 -19v-6q16 -7 55.5 -22t68.5 -26t74 -31t79 -37.5t76 -43.5t73.5 -51.5t62.5 -59.5t51 -69t32.5 -78.5t12.5 -89.5q0 -114 -93 -185
t-236 -71q-104 0 -202 41t-157 120l-7 9v49h73v-24z" />
    <glyph glyph-name="agrave" unicode="&#xe0;" horiz-adv-x="1097" 
d="M602 1115l-203 205l53 51l203 -204zM878 245v267h-403q-160 0 -244.5 -68.5t-84.5 -160.5q0 -96 96.5 -162t232.5 -66q122 0 240.5 52t162.5 138zM876 150q-70 -80 -180.5 -124t-220.5 -44q-166 0 -284 87.5t-118 213.5q0 125 107.5 213.5t294.5 88.5h403v55
q0 73 -28 125.5t-76.5 79.5t-101.5 39t-114 12q-148 0 -265 -55v-36h-74v80q62 39 154.5 61.5t184.5 22.5q61 0 116 -10.5t106.5 -35t88.5 -61.5t59.5 -94t22.5 -128v-567h36v-73h-109v150h-2z" />
    <glyph glyph-name="aacute" unicode="&#xe1;" horiz-adv-x="1097" 
d="M514 1115l-51 52l203 204l53 -51zM878 245v267h-403q-160 0 -244.5 -68.5t-84.5 -160.5q0 -96 96.5 -162t232.5 -66q122 0 240.5 52t162.5 138zM876 150q-70 -80 -180.5 -124t-220.5 -44q-166 0 -284 87.5t-118 213.5q0 125 107.5 213.5t294.5 88.5h403v55
q0 73 -28 125.5t-76.5 79.5t-101.5 39t-114 12q-148 0 -265 -55v-36h-74v80q62 39 154.5 61.5t184.5 22.5q61 0 116 -10.5t106.5 -35t88.5 -61.5t59.5 -94t22.5 -128v-567h36v-73h-109v150h-2z" />
    <glyph glyph-name="acircumflex" unicode="&#xe2;" horiz-adv-x="1097" 
d="M561 1298h-7l-252 -201l-46 57l272 217h59l272 -217l-45 -57zM878 245v267h-403q-160 0 -244.5 -68.5t-84.5 -160.5q0 -96 96.5 -162t232.5 -66q122 0 240.5 52t162.5 138zM876 150q-70 -80 -180.5 -124t-220.5 -44q-166 0 -284 87.5t-118 213.5q0 125 107.5 213.5
t294.5 88.5h403v55q0 73 -28 125.5t-76.5 79.5t-101.5 39t-114 12q-148 0 -265 -55v-36h-74v80q62 39 154.5 61.5t184.5 22.5q61 0 116 -10.5t106.5 -35t88.5 -61.5t59.5 -94t22.5 -128v-567h36v-73h-109v150h-2z" />
    <glyph glyph-name="atilde" unicode="&#xe3;" horiz-adv-x="1097" 
d="M627 1284q38 -19 62 -19q52 0 62 64l11 50l72 -13l-10 -49q-11 -62 -48 -92.5t-87 -30.5q-52 0 -88 20l-113 62q-38 19 -62 19q-52 0 -62 -64l-11 -50l-72 13l9 49q11 62 48.5 92.5t87.5 30.5q52 0 88 -20zM878 245v267h-403q-160 0 -244.5 -68.5t-84.5 -160.5
q0 -96 96.5 -162t232.5 -66q122 0 240.5 52t162.5 138zM876 150q-70 -80 -180.5 -124t-220.5 -44q-166 0 -284 87.5t-118 213.5q0 125 107.5 213.5t294.5 88.5h403v55q0 73 -28 125.5t-76.5 79.5t-101.5 39t-114 12q-148 0 -265 -55v-36h-74v80q62 39 154.5 61.5t184.5 22.5
q61 0 116 -10.5t106.5 -35t88.5 -61.5t59.5 -94t22.5 -128v-567h36v-73h-109v150h-2z" />
    <glyph glyph-name="adieresis" unicode="&#xe4;" horiz-adv-x="1097" 
d="M713 1216q0 26 19 45t45 19t45 -19t19 -45t-19 -45t-45 -19t-45 19t-19 45zM283 1216q0 26 19 45t45 19t45 -19t19 -45t-19 -45t-45 -19t-45 19t-19 45zM878 245v267h-403q-160 0 -244.5 -68.5t-84.5 -160.5q0 -96 96.5 -162t232.5 -66q122 0 240.5 52t162.5 138z
M876 150q-70 -80 -180.5 -124t-220.5 -44q-166 0 -284 87.5t-118 213.5q0 125 107.5 213.5t294.5 88.5h403v55q0 73 -28 125.5t-76.5 79.5t-101.5 39t-114 12q-148 0 -265 -55v-36h-74v80q62 39 154.5 61.5t184.5 22.5q61 0 116 -10.5t106.5 -35t88.5 -61.5t59.5 -94
t22.5 -128v-567h36v-73h-109v150h-2z" />
    <glyph glyph-name="aring" unicode="&#xe5;" horiz-adv-x="1097" 
d="M558 1390q68 0 124 -55q59 -57 59 -128t-59 -128q-56 -55 -124 -55q-65 0 -124 57t-59 126q0 71 59 128q56 55 124 55zM558 1335q-45 0 -88 -40q-40 -40 -40 -88t40 -88t88 -40q45 0 88 40q40 40 40 88t-40 88q-43 40 -88 40zM878 245v267h-403q-160 0 -244.5 -68.5
t-84.5 -160.5q0 -96 96.5 -162t232.5 -66q122 0 240.5 52t162.5 138zM876 150q-70 -80 -180.5 -124t-220.5 -44q-166 0 -284 87.5t-118 213.5q0 125 107.5 213.5t294.5 88.5h403v55q0 73 -28 125.5t-76.5 79.5t-101.5 39t-114 12q-148 0 -265 -55v-36h-74v80
q62 39 154.5 61.5t184.5 22.5q61 0 116 -10.5t106.5 -35t88.5 -61.5t59.5 -94t22.5 -128v-567h36v-73h-109v150h-2z" />
    <glyph glyph-name="ae" unicode="&#xe6;" horiz-adv-x="1865" 
d="M876 150q-70 -80 -180.5 -124t-220.5 -44q-166 0 -284 87.5t-118 213.5q0 125 107.5 213.5t294.5 88.5h403v55q0 73 -28 125.5t-76.5 79.5t-101.5 39t-114 12q-148 0 -265 -55v-36h-74v80q62 39 154.5 61.5t184.5 22.5t169 -23t138 -81t79 -145q66 113 179 181t248 68
q121 0 225.5 -54.5t173.5 -148.5l20 -27l-25 -22q-9 -8 -63 -56.5t-90 -76.5t-93 -67t-113 -58.5t-108 -19.5h-345q14 -162 134 -273t284 -111q89 0 169 35t139 98l53 -49q-69 -74 -162.5 -115.5t-198.5 -41.5q-130 0 -241.5 64t-178.5 172v-218h-73v150h-2zM1298 512
q23 0 46 4.5t48.5 16t45.5 20.5t48 29t44 31t45.5 36t40 34t40 36t34.5 31q-59 69 -142 107.5t-177 38.5q-163 0 -283.5 -111t-134.5 -273h345zM878 512h-403q-160 0 -244.5 -68.5t-84.5 -160.5q0 -96 96.5 -162t232.5 -66q122 0 240.5 52t162.5 138v267z" />
    <glyph glyph-name="ccedilla" unicode="&#xe7;" horiz-adv-x="987" 
d="M494 -157l-48 13l39 133q-177 29 -294.5 166t-117.5 320q0 134 66.5 247.5t180 180t247.5 66.5q189 0 334 -132l13 -10v-59h-73v26q-120 102 -274 102q-174 0 -297.5 -123.5t-123.5 -297.5t123.5 -297t297.5 -123q89 0 168.5 35t138.5 98l55 -51q-69 -74 -162.5 -114.5
t-199.5 -40.5h-26l-18 -66q25 7 55 7q79 0 125.5 -52.5t46.5 -122.5q0 -74 -54.5 -116t-124.5 -42q-50 0 -93.5 22.5t-67.5 63.5l47 28q35 -59 114 -59q51 0 78.5 32.5t27.5 77.5t-26 79t-73 34q-9 0 -16.5 -1t-13 -2t-14 -4t-11.5 -4.5t-14 -6.5t-15 -7z" />
    <glyph glyph-name="egrave" unicode="&#xe8;" horiz-adv-x="1060" 
d="M629 1115l-203 205l53 51l203 -204zM494 512q25 0 53.5 7.5t51 16t55 29t49 31.5t52 40t45.5 37.5t46 41.5t39 35q-59 69 -141.5 107.5t-176.5 38.5q-163 0 -284 -111t-135 -273h346zM148 439q14 -162 134.5 -273t284.5 -111q89 0 168.5 35t138.5 98l53 -49
q-69 -74 -162 -115.5t-198 -41.5q-134 0 -247.5 66t-180 179.5t-66.5 247.5t66.5 247.5t180.5 180t247 66.5q121 0 225 -54.5t173 -148.5l21 -27l-26 -22q-10 -8 -63 -56.5t-89.5 -77t-93 -67t-112.5 -58t-108 -19.5h-346z" />
    <glyph glyph-name="eacute" unicode="&#xe9;" horiz-adv-x="1060" 
d="M541 1115l-51 52l203 204l53 -51zM494 512q25 0 53.5 7.5t51 16t55 29t49 31.5t52 40t45.5 37.5t46 41.5t39 35q-59 69 -141.5 107.5t-176.5 38.5q-163 0 -284 -111t-135 -273h346zM148 439q14 -162 134.5 -273t284.5 -111q89 0 168.5 35t138.5 98l53 -49
q-69 -74 -162 -115.5t-198 -41.5q-134 0 -247.5 66t-180 179.5t-66.5 247.5t66.5 247.5t180.5 180t247 66.5q121 0 225 -54.5t173 -148.5l21 -27l-26 -22q-10 -8 -63 -56.5t-89.5 -77t-93 -67t-112.5 -58t-108 -19.5h-346z" />
    <glyph glyph-name="ecircumflex" unicode="&#xea;" horiz-adv-x="1060" 
d="M588 1298h-7l-252 -201l-46 57l272 217h59l272 -217l-45 -57zM494 512q25 0 53.5 7.5t51 16t55 29t49 31.5t52 40t45.5 37.5t46 41.5t39 35q-59 69 -141.5 107.5t-176.5 38.5q-163 0 -284 -111t-135 -273h346zM148 439q14 -162 134.5 -273t284.5 -111q89 0 168.5 35
t138.5 98l53 -49q-69 -74 -162 -115.5t-198 -41.5q-134 0 -247.5 66t-180 179.5t-66.5 247.5t66.5 247.5t180.5 180t247 66.5q121 0 225 -54.5t173 -148.5l21 -27l-26 -22q-10 -8 -63 -56.5t-89.5 -77t-93 -67t-112.5 -58t-108 -19.5h-346z" />
    <glyph glyph-name="edieresis" unicode="&#xeb;" horiz-adv-x="1060" 
d="M741 1216q0 26 19 45t45 19t45 -19t19 -45t-19 -45t-45 -19t-45 19t-19 45zM311 1216q0 26 19 45t45 19t45 -19t19 -45t-19 -45t-45 -19t-45 19t-19 45zM494 512q25 0 53.5 7.5t51 16t55 29t49 31.5t52 40t45.5 37.5t46 41.5t39 35q-59 69 -141.5 107.5t-176.5 38.5
q-163 0 -284 -111t-135 -273h346zM148 439q14 -162 134.5 -273t284.5 -111q89 0 168.5 35t138.5 98l53 -49q-69 -74 -162 -115.5t-198 -41.5q-134 0 -247.5 66t-180 179.5t-66.5 247.5t66.5 247.5t180.5 180t247 66.5q121 0 225 -54.5t173 -148.5l21 -27l-26 -22
q-10 -8 -63 -56.5t-89.5 -77t-93 -67t-112.5 -58t-108 -19.5h-346z" />
    <glyph glyph-name="igrave" unicode="&#xec;" horiz-adv-x="365" 
d="M218 1115l-203 205l53 51l203 -204zM146 878h-36v73h109v-951h-73v878z" />
    <glyph glyph-name="iacute" unicode="&#xed;" horiz-adv-x="365" 
d="M130 1115l-51 52l203 204l53 -51zM146 878h-36v73h109v-951h-73v878z" />
    <glyph glyph-name="icircumflex" unicode="&#xee;" horiz-adv-x="365" 
d="M187 1298h-8l-197 -146l-46 57l218 162h58l218 -162l-46 -57zM146 878h-36v73h109v-951h-73v878z" />
    <glyph glyph-name="idieresis" unicode="&#xef;" horiz-adv-x="365" 
d="M265 1216q0 26 19 45t45 19t45 -19t19 -45t-19 -45t-45 -19t-45 19t-19 45zM-27 1216q0 26 19 45t45 19t45 -19t19 -45t-19 -45t-45 -19t-45 19t-19 45zM146 878h-36v73h109v-951h-73v878z" />
    <glyph glyph-name="eth" unicode="&#xf0;" 
d="M805 475q0 176 -103 298.5t-245 122.5q-126 0 -218.5 -122.5t-92.5 -298.5q0 -177 92.5 -298.5t218.5 -121.5q142 0 245 122.5t103 297.5zM457 -18q-107 0 -196 68t-138.5 181t-49.5 244t49.5 244.5t138.5 181.5t196 68q99 0 183.5 -49.5t143.5 -135.5q-38 264 -166 388
l-170 -64l-22 60l132 52q-63 41 -132 64l26 67q112 -39 186 -98l152 62l27 -70l-124 -45q92 -102 138.5 -276.5t46.5 -448.5q0 -132 -55 -245t-152.5 -180.5t-213.5 -67.5z" />
    <glyph glyph-name="ntilde" unicode="&#xf1;" horiz-adv-x="1170" 
d="M655 1284q38 -19 62 -19q52 0 62 64l11 50l72 -13l-10 -49q-11 -62 -48 -92.5t-87 -30.5q-52 0 -88 20l-113 62q-38 19 -62 19q-52 0 -62 -64l-11 -50l-72 13l9 49q11 62 48.5 92.5t87.5 30.5q52 0 88 -20zM221 680q63 133 178.5 211t258.5 78q166 0 266 -88.5
t100 -240.5v-567h37v-73h-110v73v567q0 122 -79 189t-214 67q-116 0 -216.5 -61t-161.5 -171t-61 -243v-421h-73v878h-36v73h109v-271h2z" />
    <glyph glyph-name="ograve" unicode="&#xf2;" horiz-adv-x="1133" 
d="M611 1115l-203 205l53 51l203 -204zM146 475q0 -174 123.5 -297t297.5 -123t297 123t123 297t-123 297.5t-297 123.5t-297.5 -123.5t-123.5 -297.5zM567 969q134 0 247.5 -66.5t180 -180t66.5 -247.5t-66.5 -247.5t-180 -179.5t-247.5 -66t-247.5 66t-180 179.5
t-66.5 247.5t66.5 247.5t180 180t247.5 66.5z" />
    <glyph glyph-name="oacute" unicode="&#xf3;" horiz-adv-x="1133" 
d="M523 1115l-51 52l203 204l53 -51zM146 475q0 -174 123.5 -297t297.5 -123t297 123t123 297t-123 297.5t-297 123.5t-297.5 -123.5t-123.5 -297.5zM567 969q134 0 247.5 -66.5t180 -180t66.5 -247.5t-66.5 -247.5t-180 -179.5t-247.5 -66t-247.5 66t-180 179.5
t-66.5 247.5t66.5 247.5t180 180t247.5 66.5z" />
    <glyph glyph-name="ocircumflex" unicode="&#xf4;" horiz-adv-x="1133" 
d="M570 1298h-7l-252 -201l-46 57l272 217h59l272 -217l-45 -57zM146 475q0 -174 123.5 -297t297.5 -123t297 123t123 297t-123 297.5t-297 123.5t-297.5 -123.5t-123.5 -297.5zM567 969q134 0 247.5 -66.5t180 -180t66.5 -247.5t-66.5 -247.5t-180 -179.5t-247.5 -66
t-247.5 66t-180 179.5t-66.5 247.5t66.5 247.5t180 180t247.5 66.5z" />
    <glyph glyph-name="otilde" unicode="&#xf5;" horiz-adv-x="1133" 
d="M636 1284q38 -19 62 -19q52 0 62 64l11 50l72 -13l-10 -49q-11 -62 -48 -92.5t-87 -30.5q-52 0 -88 20l-113 62q-38 19 -62 19q-52 0 -62 -64l-11 -50l-72 13l9 49q11 62 48.5 92.5t87.5 30.5q52 0 88 -20zM146 475q0 -174 123.5 -297t297.5 -123t297 123t123 297
t-123 297.5t-297 123.5t-297.5 -123.5t-123.5 -297.5zM567 969q134 0 247.5 -66.5t180 -180t66.5 -247.5t-66.5 -247.5t-180 -179.5t-247.5 -66t-247.5 66t-180 179.5t-66.5 247.5t66.5 247.5t180 180t247.5 66.5z" />
    <glyph glyph-name="odieresis" unicode="&#xf6;" horiz-adv-x="1133" 
d="M723 1216q0 26 19 45t45 19t45 -19t19 -45t-19 -45t-45 -19t-45 19t-19 45zM293 1216q0 26 19 45t45 19t45 -19t19 -45t-19 -45t-45 -19t-45 19t-19 45zM146 475q0 -174 123.5 -297t297.5 -123t297 123t123 297t-123 297.5t-297 123.5t-297.5 -123.5t-123.5 -297.5z
M567 969q134 0 247.5 -66.5t180 -180t66.5 -247.5t-66.5 -247.5t-180 -179.5t-247.5 -66t-247.5 66t-180 179.5t-66.5 247.5t66.5 247.5t180 180t247.5 66.5z" />
    <glyph glyph-name="divide" unicode="&#xf7;" horiz-adv-x="804" 
d="M338 997q0 26 19 45t45 19t45 -19t19 -45t-19 -45t-45 -19t-45 19t-19 45zM338 539q0 26 19 45t45 19t45 -19t19 -45t-19 -45t-45 -19t-45 19t-19 45zM731 731h-658v74h658v-74z" />
    <glyph glyph-name="oslash" unicode="&#xf8;" horiz-adv-x="1133" 
d="M567 896q-174 0 -297.5 -123.5t-123.5 -297.5q0 -153 99 -270l592 592q-117 99 -270 99zM1061 475q0 -134 -66.5 -247.5t-180 -179.5t-247.5 -66q-186 0 -322 119l-73 -72l-51 51l71 74q-119 136 -119 321q0 134 66.5 247.5t180 180t247.5 66.5q186 0 322 -119l73 72
l51 -52l-71 -73q119 -136 119 -322zM889 746l-593 -592q117 -99 271 -99q174 0 297 123t123 297q0 156 -98 271z" />
    <glyph glyph-name="ugrave" unicode="&#xf9;" horiz-adv-x="1170" 
d="M629 1115l-203 205l53 51l203 -204zM219 951v-73v-567q0 -122 79 -189t214 -67q116 0 216.5 61t161.5 171t61 243v421h73v-878h37v-73h-110v271h-2q-63 -133 -178.5 -211t-258.5 -78q-166 0 -266 88.5t-100 240.5v567h-36v73h109z" />
    <glyph glyph-name="uacute" unicode="&#xfa;" horiz-adv-x="1170" 
d="M541 1115l-51 52l203 204l53 -51zM219 951v-73v-567q0 -122 79 -189t214 -67q116 0 216.5 61t161.5 171t61 243v421h73v-878h37v-73h-110v271h-2q-63 -133 -178.5 -211t-258.5 -78q-166 0 -266 88.5t-100 240.5v567h-36v73h109z" />
    <glyph glyph-name="ucircumflex" unicode="&#xfb;" horiz-adv-x="1170" 
d="M588 1298h-7l-252 -201l-46 57l272 217h59l272 -217l-45 -57zM219 951v-73v-567q0 -122 79 -189t214 -67q116 0 216.5 61t161.5 171t61 243v421h73v-878h37v-73h-110v271h-2q-63 -133 -178.5 -211t-258.5 -78q-166 0 -266 88.5t-100 240.5v567h-36v73h109z" />
    <glyph glyph-name="udieresis" unicode="&#xfc;" horiz-adv-x="1170" 
d="M741 1216q0 26 19 45t45 19t45 -19t19 -45t-19 -45t-45 -19t-45 19t-19 45zM311 1216q0 26 19 45t45 19t45 -19t19 -45t-19 -45t-45 -19t-45 19t-19 45zM219 951v-73v-567q0 -122 79 -189t214 -67q116 0 216.5 61t161.5 171t61 243v421h73v-878h37v-73h-110v271h-2
q-63 -133 -178.5 -211t-258.5 -78q-166 0 -266 88.5t-100 240.5v567h-36v73h109z" />
    <glyph glyph-name="yacute" unicode="&#xfd;" horiz-adv-x="1097" 
d="M505 1115l-51 52l203 204l53 -51zM1061 903l-553 -1146q-95 -196 -245 -196q-68 0 -127 40t-94 94l-5 9v38h73v-16q28 -39 69 -65.5t84 -26.5q104 0 180 156l65 137l-422 951h-31v73h78l416 -936h1l437 907v29h74v-48z" />
    <glyph glyph-name="thorn" unicode="&#xfe;" horiz-adv-x="1170" 
d="M219 232v-671h-73v1756h-36v73h109v-671h2q59 115 165 182.5t236 67.5q129 0 238.5 -66.5t173 -180.5t63.5 -247t-63.5 -246.5t-173 -180t-238.5 -66.5q-130 0 -236 67.5t-165 182.5h-2zM219 475q0 -175 118.5 -297.5t284.5 -122.5t284 122.5t118 297.5t-118 298
t-284 123t-284.5 -123t-118.5 -298z" />
    <glyph glyph-name="ydieresis" unicode="&#xff;" horiz-adv-x="1097" 
d="M704 1216q0 26 19 45t45 19t45 -19t19 -45t-19 -45t-45 -19t-45 19t-19 45zM274 1216q0 26 19 45t45 19t45 -19t19 -45t-19 -45t-45 -19t-45 19t-19 45zM1061 903l-553 -1146q-95 -196 -245 -196q-68 0 -127 40t-94 94l-5 9v38h73v-16q28 -39 69 -65.5t84 -26.5
q104 0 180 156l65 137l-422 951h-31v73h78l416 -936h1l437 907v29h74v-48z" />
    <glyph glyph-name="Amacron" unicode="&#x100;" horiz-adv-x="1243" 
d="M933 1682h-585v74h585v-74zM640 1275l-331 -836h666zM1004 366h-724l-145 -366h-80v73h29l529 1333h54l556 -1393l-67 -26z" />
    <glyph glyph-name="amacron" unicode="&#x101;" horiz-adv-x="1097" 
d="M850 1243h-585v74h585v-74zM878 245v267h-403q-160 0 -244.5 -68.5t-84.5 -160.5q0 -96 96.5 -162t232.5 -66q122 0 240.5 52t162.5 138zM876 150q-70 -80 -180.5 -124t-220.5 -44q-166 0 -284 87.5t-118 213.5q0 125 107.5 213.5t294.5 88.5h403v55q0 73 -28 125.5
t-76.5 79.5t-101.5 39t-114 12q-148 0 -265 -55v-36h-74v80q62 39 154.5 61.5t184.5 22.5q61 0 116 -10.5t106.5 -35t88.5 -61.5t59.5 -94t22.5 -128v-567h36v-73h-109v150h-2z" />
    <glyph glyph-name="Abreve" unicode="&#x102;" horiz-adv-x="1243" 
d="M640 1682q148 0 222 112l60 -42q-98 -143 -282 -143q-183 0 -281 143l60 42q74 -112 221 -112zM640 1275l-331 -836h666zM1004 366h-724l-145 -366h-80v73h29l529 1333h54l556 -1393l-67 -26z" />
    <glyph glyph-name="abreve" unicode="&#x103;" horiz-adv-x="1097" 
d="M557 1243q148 0 222 112l60 -42q-98 -143 -282 -143q-183 0 -281 143l60 42q74 -112 221 -112zM878 245v267h-403q-160 0 -244.5 -68.5t-84.5 -160.5q0 -96 96.5 -162t232.5 -66q122 0 240.5 52t162.5 138zM876 150q-70 -80 -180.5 -124t-220.5 -44q-166 0 -284 87.5
t-118 213.5q0 125 107.5 213.5t294.5 88.5h403v55q0 73 -28 125.5t-76.5 79.5t-101.5 39t-114 12q-148 0 -265 -55v-36h-74v80q62 39 154.5 61.5t184.5 22.5q61 0 116 -10.5t106.5 -35t88.5 -61.5t59.5 -94t22.5 -128v-567h36v-73h-109v150h-2z" />
    <glyph glyph-name="Aogonek" unicode="&#x104;" horiz-adv-x="1243" 
d="M640 1275l-331 -836h666zM1223 13l-67 -28q-112 -63 -147.5 -96.5t-35.5 -91.5q0 -35 23.5 -62.5t80.5 -27.5q45 0 79 22l36 -62q-53 -33 -115 -33q-82 0 -129.5 47t-47.5 116q0 21 3 39t11.5 34.5t15.5 28t24 25.5t26.5 22t34 21.5t36 19.5t42.5 21.5t44 22.5l-133 335
h-724l-145 -366h-80v73h29l529 1333h54z" />
    <glyph glyph-name="aogonek" unicode="&#x105;" horiz-adv-x="1097" 
d="M878 245v267h-403q-160 0 -244.5 -68.5t-84.5 -160.5q0 -96 96.5 -162t232.5 -66q122 0 240.5 52t162.5 138zM878 -4v154h-2q-70 -80 -180.5 -124t-220.5 -44q-166 0 -284 87.5t-118 213.5q0 125 107.5 213.5t294.5 88.5h403v55q0 73 -28 125.5t-76.5 79.5t-101.5 39
t-114 12q-148 0 -265 -55v-36h-74v80q62 39 154.5 61.5t184.5 22.5q61 0 116 -10.5t106.5 -35t88.5 -61.5t59.5 -94t22.5 -128v-567h36v-77q-123 -69 -152 -94q-48 -44 -49 -105q0 -35 24 -62.5t81 -27.5q44 0 78 22l37 -62q-53 -33 -115 -33q-82 0 -130 47t-48 116
q0 72 39.5 113.5t125.5 85.5z" />
    <glyph glyph-name="Cacute" unicode="&#x106;" horiz-adv-x="1280" 
d="M724 1554l-51 52l203 204l53 -51zM1134 1232q-163 103 -348 103q-130 0 -248.5 -51t-204 -136.5t-136.5 -204t-51 -248.5t51 -248.5t136.5 -204t204 -136.5t248.5 -51q208 0 370 117l44 -59q-184 -131 -414 -131q-145 0 -277 56.5t-227.5 152t-152 227.5t-56.5 277
t56.5 277t152 227.5t227.5 152t277 56.5q223 0 404 -124l17 -11v-66h-73v25z" />
    <glyph glyph-name="cacute" unicode="&#x107;" horiz-adv-x="987" 
d="M523 1115l-51 52l203 204l53 -51zM841 794q-120 102 -274 102q-174 0 -297.5 -123.5t-123.5 -297.5t123.5 -297t297.5 -123q89 0 168.5 35t138.5 98l55 -51q-69 -74 -162.5 -114.5t-199.5 -40.5q-134 0 -247.5 66t-180 179.5t-66.5 247.5t66.5 247.5t180 180t247.5 66.5
q189 0 334 -132l13 -10v-59h-73v26z" />
    <glyph glyph-name="Ccircumflex" unicode="&#x108;" horiz-adv-x="1280" 
d="M771 1737h-7l-252 -201l-46 57l272 217h59l272 -217l-45 -57zM1134 1232q-163 103 -348 103q-130 0 -248.5 -51t-204 -136.5t-136.5 -204t-51 -248.5t51 -248.5t136.5 -204t204 -136.5t248.5 -51q208 0 370 117l44 -59q-184 -131 -414 -131q-145 0 -277 56.5t-227.5 152
t-152 227.5t-56.5 277t56.5 277t152 227.5t227.5 152t277 56.5q223 0 404 -124l17 -11v-66h-73v25z" />
    <glyph glyph-name="ccircumflex" unicode="&#x109;" horiz-adv-x="987" 
d="M570 1298h-7l-252 -201l-46 57l272 217h59l272 -217l-45 -57zM841 794q-120 102 -274 102q-174 0 -297.5 -123.5t-123.5 -297.5t123.5 -297t297.5 -123q89 0 168.5 35t138.5 98l55 -51q-69 -74 -162.5 -114.5t-199.5 -40.5q-134 0 -247.5 66t-180 179.5t-66.5 247.5
t66.5 247.5t180 180t247.5 66.5q189 0 334 -132l13 -10v-59h-73v26z" />
    <glyph glyph-name="Cdotaccent" unicode="&#x10a;" horiz-adv-x="1280" 
d="M704 1692q0 26 19 45t45 19t45 -19t19 -45t-19 -45t-45 -19t-45 19t-19 45zM1134 1232q-163 103 -348 103q-130 0 -248.5 -51t-204 -136.5t-136.5 -204t-51 -248.5t51 -248.5t136.5 -204t204 -136.5t248.5 -51q208 0 370 117l44 -59q-184 -131 -414 -131
q-145 0 -277 56.5t-227.5 152t-152 227.5t-56.5 277t56.5 277t152 227.5t227.5 152t277 56.5q223 0 404 -124l17 -11v-66h-73v25z" />
    <glyph glyph-name="cdotaccent" unicode="&#x10b;" horiz-adv-x="987" 
d="M503 1253q0 26 19 45t45 19t45 -19t19 -45t-19 -45t-45 -19t-45 19t-19 45zM841 794q-120 102 -274 102q-174 0 -297.5 -123.5t-123.5 -297.5t123.5 -297t297.5 -123q89 0 168.5 35t138.5 98l55 -51q-69 -74 -162.5 -114.5t-199.5 -40.5q-134 0 -247.5 66t-180 179.5
t-66.5 247.5t66.5 247.5t180 180t247.5 66.5q189 0 334 -132l13 -10v-59h-73v26z" />
    <glyph glyph-name="Ccaron" unicode="&#x10c;" horiz-adv-x="1280" 
d="M771 1628l253 201l45 -57l-272 -218h-59l-272 218l46 57l252 -201h7zM1134 1232q-163 103 -348 103q-130 0 -248.5 -51t-204 -136.5t-136.5 -204t-51 -248.5t51 -248.5t136.5 -204t204 -136.5t248.5 -51q208 0 370 117l44 -59q-184 -131 -414 -131q-145 0 -277 56.5
t-227.5 152t-152 227.5t-56.5 277t56.5 277t152 227.5t227.5 152t277 56.5q223 0 404 -124l17 -11v-66h-73v25z" />
    <glyph glyph-name="ccaron" unicode="&#x10d;" horiz-adv-x="987" 
d="M570 1189l253 201l45 -57l-272 -218h-59l-272 218l46 57l252 -201h7zM841 794q-120 102 -274 102q-174 0 -297.5 -123.5t-123.5 -297.5t123.5 -297t297.5 -123q89 0 168.5 35t138.5 98l55 -51q-69 -74 -162.5 -114.5t-199.5 -40.5q-134 0 -247.5 66t-180 179.5
t-66.5 247.5t66.5 247.5t180 180t247.5 66.5q189 0 334 -132l13 -10v-59h-73v26z" />
    <glyph glyph-name="Dcaron" unicode="&#x10e;" horiz-adv-x="1389" 
d="M625 1628l253 201l45 -57l-272 -218h-59l-272 218l46 57l252 -201h7zM110 1390h512q141 0 270 -55t222 -148t148 -222t55 -270t-55 -270t-148 -222t-222 -148t-270 -55h-476v1317h-36v73zM219 73h403q169 0 312 83t226 226.5t83 312.5t-83 312.5t-226 226.5t-312 83h-403
v-1244z" />
    <glyph glyph-name="dcaron" unicode="&#x10f;" horiz-adv-x="1353" 
d="M1171 1326q0 26 19 45t45 19t45 -19t19 -45q0 -133 -123 -256l-33 33q73 73 73 162q-19 5 -32 23t-13 38zM951 475q0 175 -118 298t-284 123t-284.5 -123t-118.5 -298t118.5 -297.5t284.5 -122.5t284 122.5t118 297.5zM1024 1390v-1317h37v-73h-110v232h-2
q-59 -115 -164.5 -182.5t-235.5 -67.5q-197 0 -336.5 145t-139.5 348q0 133 63.5 247t173.5 180.5t239 66.5q130 0 235.5 -67.5t164.5 -182.5h2v598h-37v73h110z" />
    <glyph glyph-name="Dcroat" unicode="&#x110;" horiz-adv-x="1389" 
d="M219 73h403q169 0 312 83t226 226.5t83 312.5t-83 312.5t-226 226.5t-312 83h-403v-586h366v-73h-366v-585zM146 1317h-36v73h512q141 0 270 -55t222 -148t148 -222t55 -270t-55 -270t-148 -222t-222 -148t-270 -55h-476v658h-73v73h73v586z" />
    <glyph glyph-name="dcroat" unicode="&#x111;" horiz-adv-x="1170" 
d="M951 475q0 175 -118 298t-284 123t-284.5 -123t-118.5 -298t118.5 -297.5t284.5 -122.5t284 122.5t118 297.5zM914 1390h110v-220h73v-73h-73v-1024h37v-73h-110v232h-2q-59 -115 -164.5 -182.5t-235.5 -67.5q-197 0 -336.5 145t-139.5 348q0 133 63.5 247t173.5 180.5
t239 66.5q130 0 235.5 -67.5t164.5 -182.5h2v378h-439v73h439v147h-37v73z" />
    <glyph glyph-name="Emacron" unicode="&#x112;" horiz-adv-x="1170" 
d="M878 1682h-585v74h585v-74zM951 1317h-732v-586h439v-73h-439v-585h805v37h73v-110h-951v1317h-36v73h914v-110h-73v37z" />
    <glyph glyph-name="emacron" unicode="&#x113;" horiz-adv-x="1060" 
d="M878 1243h-585v74h585v-74zM494 512q25 0 53.5 7.5t51 16t55 29t49 31.5t52 40t45.5 37.5t46 41.5t39 35q-59 69 -141.5 107.5t-176.5 38.5q-163 0 -284 -111t-135 -273h346zM148 439q14 -162 134.5 -273t284.5 -111q89 0 168.5 35t138.5 98l53 -49q-69 -74 -162 -115.5
t-198 -41.5q-134 0 -247.5 66t-180 179.5t-66.5 247.5t66.5 247.5t180.5 180t247 66.5q121 0 225 -54.5t173 -148.5l21 -27l-26 -22q-10 -8 -63 -56.5t-89.5 -77t-93 -67t-112.5 -58t-108 -19.5h-346z" />
    <glyph glyph-name="Ebreve" unicode="&#x114;" horiz-adv-x="1170" 
d="M585 1682q148 0 222 112l60 -42q-98 -143 -282 -143q-183 0 -281 143l60 42q74 -112 221 -112zM951 1317h-732v-586h439v-73h-439v-585h805v37h73v-110h-951v1317h-36v73h914v-110h-73v37z" />
    <glyph glyph-name="ebreve" unicode="&#x115;" horiz-adv-x="1060" 
d="M585 1243q148 0 222 112l60 -42q-98 -143 -282 -143q-183 0 -281 143l60 42q74 -112 221 -112zM494 512q25 0 53.5 7.5t51 16t55 29t49 31.5t52 40t45.5 37.5t46 41.5t39 35q-59 69 -141.5 107.5t-176.5 38.5q-163 0 -284 -111t-135 -273h346zM148 439
q14 -162 134.5 -273t284.5 -111q89 0 168.5 35t138.5 98l53 -49q-69 -74 -162 -115.5t-198 -41.5q-134 0 -247.5 66t-180 179.5t-66.5 247.5t66.5 247.5t180.5 180t247 66.5q121 0 225 -54.5t173 -148.5l21 -27l-26 -22q-10 -8 -63 -56.5t-89.5 -77t-93 -67t-112.5 -58
t-108 -19.5h-346z" />
    <glyph glyph-name="Edotaccent" unicode="&#x116;" horiz-adv-x="1170" 
d="M521 1692q0 26 19 45t45 19t45 -19t19 -45t-19 -45t-45 -19t-45 19t-19 45zM951 1317h-732v-586h439v-73h-439v-585h805v37h73v-110h-951v1317h-36v73h914v-110h-73v37z" />
    <glyph glyph-name="edotaccent" unicode="&#x117;" horiz-adv-x="1060" 
d="M521 1253q0 26 19 45t45 19t45 -19t19 -45t-19 -45t-45 -19t-45 19t-19 45zM494 512q25 0 53.5 7.5t51 16t55 29t49 31.5t52 40t45.5 37.5t46 41.5t39 35q-59 69 -141.5 107.5t-176.5 38.5q-163 0 -284 -111t-135 -273h346zM148 439q14 -162 134.5 -273t284.5 -111
q89 0 168.5 35t138.5 98l53 -49q-69 -74 -162 -115.5t-198 -41.5q-134 0 -247.5 66t-180 179.5t-66.5 247.5t66.5 247.5t180.5 180t247 66.5q121 0 225 -54.5t173 -148.5l21 -27l-26 -22q-10 -8 -63 -56.5t-89.5 -77t-93 -67t-112.5 -58t-108 -19.5h-346z" />
    <glyph glyph-name="Eogonek" unicode="&#x118;" horiz-adv-x="1170" 
d="M1035 0q-127 -73 -154 -95q-51 -50 -54 -108q0 -35 23.5 -62.5t80.5 -27.5q44 0 78 22l37 -62q-53 -33 -115 -33q-82 0 -130 47t-48 116q0 39 11.5 69t38 54t52.5 40t72 40h-781v1317h-36v73h914v-110h-73v37h-732v-586h439v-73h-439v-585h805v37h73v-75z" />
    <glyph glyph-name="eogonek" unicode="&#x119;" horiz-adv-x="1060" 
d="M519 -203q0 -35 24.5 -62.5t81.5 -27.5q43 0 77 22l37 -62q-53 -33 -114 -33q-82 0 -130.5 47t-48.5 116q0 66 34 106t105 79h-18q-134 0 -247.5 66t-180 179.5t-66.5 247.5t66.5 247.5t180.5 180t247 66.5q121 0 225 -54.5t173 -148.5l21 -27l-26 -22q-10 -8 -63 -56.5
t-89.5 -77t-93 -67t-112.5 -58t-108 -19.5h-346q14 -162 134.5 -273t284.5 -111q89 0 168.5 35t138.5 98l53 -49q-64 -67 -139 -104q-29 -17 -75.5 -43t-64.5 -36.5t-47 -29t-39 -29t-23 -27.5t-16.5 -34t-3.5 -39zM494 512q25 0 53.5 7.5t51 16t55 29t49 31.5t52 40
t45.5 37.5t46 41.5t39 35q-59 69 -141.5 107.5t-176.5 38.5q-163 0 -284 -111t-135 -273h346z" />
    <glyph glyph-name="Ecaron" unicode="&#x11a;" horiz-adv-x="1170" 
d="M588 1628l253 201l45 -57l-272 -218h-59l-272 218l46 57l252 -201h7zM951 1317h-732v-586h439v-73h-439v-585h805v37h73v-110h-951v1317h-36v73h914v-110h-73v37z" />
    <glyph glyph-name="ecaron" unicode="&#x11b;" horiz-adv-x="1060" 
d="M588 1189l253 201l45 -57l-272 -218h-59l-272 218l46 57l252 -201h7zM494 512q25 0 53.5 7.5t51 16t55 29t49 31.5t52 40t45.5 37.5t46 41.5t39 35q-59 69 -141.5 107.5t-176.5 38.5q-163 0 -284 -111t-135 -273h346zM148 439q14 -162 134.5 -273t284.5 -111
q89 0 168.5 35t138.5 98l53 -49q-69 -74 -162 -115.5t-198 -41.5q-134 0 -247.5 66t-180 179.5t-66.5 247.5t66.5 247.5t180.5 180t247 66.5q121 0 225 -54.5t173 -148.5l21 -27l-26 -22q-10 -8 -63 -56.5t-89.5 -77t-93 -67t-112.5 -58t-108 -19.5h-346z" />
    <glyph glyph-name="Gcircumflex" unicode="&#x11c;" horiz-adv-x="1389" 
d="M771 1737h-7l-252 -201l-46 57l272 217h59l272 -217l-45 -57zM951 585v73h366v-658h-74v170q-91 -81 -213.5 -134.5t-243.5 -53.5q-145 0 -277 56.5t-227.5 152t-152 227.5t-56.5 277t56.5 277t152 227.5t227.5 152t277 56.5q259 0 457 -166v-72h-73v37
q-173 128 -384 128q-130 0 -248.5 -51t-204 -136.5t-136.5 -204t-51 -248.5t51 -248.5t136.5 -204t204 -136.5t248.5 -51q132 0 250 50.5t207 141.5v338h-292z" />
    <glyph glyph-name="gcircumflex" unicode="&#x11d;" horiz-adv-x="1024" 
d="M515 1298h-7l-252 -201l-46 57l272 217h59l272 -217l-45 -57zM245 66q-55 -37 -95 -110t-40 -143q0 -80 58 -129.5t187 -49.5h373q103 0 154 41t51 98q0 53 -38 99t-105 62zM188 187q0 -30 55 -44l563 -138q90 -21 145 -87t55 -145q0 -90 -72 -151t-206 -61h-373
q-162 0 -240 71.5t-78 180.5q0 77 36.5 153.5t92.5 128.5q-51 32 -51 92q0 86 125 217q-94 96 -94 227q0 141 108 239.5t258 98.5q68 0 119 -18h356v-73h-224q115 -100 115 -247q0 -140 -108 -239t-258 -99q-118 0 -216 65q-52 -52 -80 -97.5t-28 -73.5zM219 631
q0 -109 85 -187t208 -78t208 78t85 187t-85.5 187t-207.5 78q-123 0 -208 -78t-85 -187z" />
    <glyph glyph-name="Gbreve" unicode="&#x11e;" horiz-adv-x="1389" 
d="M768 1682q148 0 222 112l60 -42q-98 -143 -282 -143q-183 0 -281 143l60 42q74 -112 221 -112zM951 585v73h366v-658h-74v170q-91 -81 -213.5 -134.5t-243.5 -53.5q-145 0 -277 56.5t-227.5 152t-152 227.5t-56.5 277t56.5 277t152 227.5t227.5 152t277 56.5
q259 0 457 -166v-72h-73v37q-173 128 -384 128q-130 0 -248.5 -51t-204 -136.5t-136.5 -204t-51 -248.5t51 -248.5t136.5 -204t204 -136.5t248.5 -51q132 0 250 50.5t207 141.5v338h-292z" />
    <glyph glyph-name="gbreve" unicode="&#x11f;" horiz-adv-x="1024" 
d="M512 1243q148 0 222 112l60 -42q-98 -143 -282 -143q-183 0 -281 143l60 42q74 -112 221 -112zM245 66q-55 -37 -95 -110t-40 -143q0 -80 58 -129.5t187 -49.5h373q103 0 154 41t51 98q0 53 -38 99t-105 62zM188 187q0 -30 55 -44l563 -138q90 -21 145 -87t55 -145
q0 -90 -72 -151t-206 -61h-373q-162 0 -240 71.5t-78 180.5q0 77 36.5 153.5t92.5 128.5q-51 32 -51 92q0 86 125 217q-94 96 -94 227q0 141 108 239.5t258 98.5q68 0 119 -18h356v-73h-224q115 -100 115 -247q0 -140 -108 -239t-258 -99q-118 0 -216 65q-52 -52 -80 -97.5
t-28 -73.5zM219 631q0 -109 85 -187t208 -78t208 78t85 187t-85.5 187t-207.5 78q-123 0 -208 -78t-85 -187z" />
    <glyph glyph-name="Gdotaccent" unicode="&#x120;" horiz-adv-x="1389" 
d="M704 1692q0 26 19 45t45 19t45 -19t19 -45t-19 -45t-45 -19t-45 19t-19 45zM951 585v73h366v-658h-74v170q-91 -81 -213.5 -134.5t-243.5 -53.5q-145 0 -277 56.5t-227.5 152t-152 227.5t-56.5 277t56.5 277t152 227.5t227.5 152t277 56.5q259 0 457 -166v-72h-73v37
q-173 128 -384 128q-130 0 -248.5 -51t-204 -136.5t-136.5 -204t-51 -248.5t51 -248.5t136.5 -204t204 -136.5t248.5 -51q132 0 250 50.5t207 141.5v338h-292z" />
    <glyph glyph-name="gdotaccent" unicode="&#x121;" horiz-adv-x="1024" 
d="M448 1253q0 26 19 45t45 19t45 -19t19 -45t-19 -45t-45 -19t-45 19t-19 45zM245 66q-55 -37 -95 -110t-40 -143q0 -80 58 -129.5t187 -49.5h373q103 0 154 41t51 98q0 53 -38 99t-105 62zM188 187q0 -30 55 -44l563 -138q90 -21 145 -87t55 -145q0 -90 -72 -151t-206 -61
h-373q-162 0 -240 71.5t-78 180.5q0 77 36.5 153.5t92.5 128.5q-51 32 -51 92q0 86 125 217q-94 96 -94 227q0 141 108 239.5t258 98.5q68 0 119 -18h356v-73h-224q115 -100 115 -247q0 -140 -108 -239t-258 -99q-118 0 -216 65q-52 -52 -80 -97.5t-28 -73.5zM219 631
q0 -109 85 -187t208 -78t208 78t85 187t-85.5 187t-207.5 78q-123 0 -208 -78t-85 -187z" />
    <glyph glyph-name="uni0122" unicode="&#x122;" horiz-adv-x="1389" 
d="M645 -184q0 26 19 45t45 19t45 -19t19 -45q0 -133 -123 -256l-33 33q73 73 73 162q-19 5 -32 23t-13 38zM951 585v73h366v-658h-74v170q-91 -81 -213.5 -134.5t-243.5 -53.5q-145 0 -277 56.5t-227.5 152t-152 227.5t-56.5 277t56.5 277t152 227.5t227.5 152t277 56.5
q259 0 457 -166v-72h-73v37q-173 128 -384 128q-130 0 -248.5 -51t-204 -136.5t-136.5 -204t-51 -248.5t51 -248.5t136.5 -204t204 -136.5t248.5 -51q132 0 250 50.5t207 141.5v338h-292z" />
    <glyph glyph-name="uni0123" unicode="&#x123;" horiz-adv-x="1024" 
d="M578 1217.99q0 -26 -19 -45.001t-45 -19.0029q-26 -0.000976562 -45 18.9971q-19 18.999 -19 44.999q0 133 123 256.008l33 -32.998q-73 -73.0049 -73 -162.005q19 -4.99805 32 -22.998q13 -17.999 13 -37.999zM245 66q-55 -37 -95 -110t-40 -143q0 -80 58 -129.5
t187 -49.5h373q103 0 154 41t51 98q0 53 -38 99t-105 62zM188 187q0 -30 55 -44l563 -138q90 -21 145 -87t55 -145q0 -90 -72 -151t-206 -61h-373q-162 0 -240 71.5t-78 180.5q0 77 36.5 153.5t92.5 128.5q-51 32 -51 92q0 86 125 217q-94 96 -94 227q0 141 108 239.5
t258 98.5q68 0 119 -18h356v-73h-224q115 -100 115 -247q0 -140 -108 -239t-258 -99q-118 0 -216 65q-52 -52 -80 -97.5t-28 -73.5zM219 631q0 -109 85 -187t208 -78t208 78t85 187t-85.5 187t-207.5 78q-123 0 -208 -78t-85 -187z" />
    <glyph glyph-name="Hcircumflex" unicode="&#x124;" horiz-adv-x="1316" 
d="M662 1737h-7l-252 -201l-46 57l272 217h59l272 -217l-45 -57zM146 1390h73v-659h878v659h73v-1390h-73v658h-878v-658h-73v1390z" />
    <glyph glyph-name="hcircumflex" unicode="&#x125;" horiz-adv-x="1170" 
d="M588 1664h-7l-252 -201l-46 57l272 217h59l272 -217l-45 -57zM221 680q63 133 178.5 211t258.5 78q166 0 266 -88.5t100 -240.5v-567h37v-73h-110v73v567q0 122 -79 189t-214 67q-116 0 -216.5 -61t-161.5 -171t-61 -243v-421h-73v1317h-36v73h109v-710h2z" />
    <glyph glyph-name="Hbar" unicode="&#x126;" horiz-adv-x="1316" 
d="M1097 1024h-878v-293h878v293zM146 1390h73v-293h878v293h73v-293h73v-73h-73v-1024h-73v658h-878v-658h-73v1024h-73v73h73v293z" />
    <glyph glyph-name="hbar" unicode="&#x127;" horiz-adv-x="1170" 
d="M221 680q63 133 178.5 211t258.5 78q166 0 266 -88.5t100 -240.5v-567h37v-73h-110v73v567q0 122 -79 189t-214 67q-116 0 -216.5 -61t-161.5 -171t-61 -243v-421h-73v1097h-73v73h73v147h-36v73h109v-220h439v-73h-439v-417h2z" />
    <glyph glyph-name="Itilde" unicode="&#x128;" horiz-adv-x="365" 
d="M400 1726q-3 -17 -5 -22q-23 -73 -93 -73q-37 0 -79 24l-117 66q-20 12 -42 12q-17 0 -24 -21q-1 -2 -3 -11l-10 -52l-71 15l9 48q1 4 3.5 11.5t2.5 9.5q24 74 93 74q40 0 79 -22l117 -66q25 -15 42 -15q16 0 23 24q2 6 0 -3q1 3 4 16l9 47l72 -11zM219 0h-73v1390h73
v-1390z" />
    <glyph glyph-name="itilde" unicode="&#x129;" horiz-adv-x="365" 
d="M400 1269q-3 -17 -5 -22q-23 -73 -93 -73q-37 0 -79 24l-117 66q-20 12 -42 12q-17 0 -24 -22q-1 -2 -3 -11l-10 -51l-71 15l9 47q1 4 3.5 12t2.5 10q24 73 93 73q42 0 79 -21l117 -66q25 -15 42 -15q16 0 23 24q2 6 0 -3q1 3 4 16l9 47l72 -11zM146 878h-36v73h109v-951
h-73v878z" />
    <glyph glyph-name="Imacron" unicode="&#x12a;" horiz-adv-x="365" 
d="M402 1682h-439v73h439v-73zM219 0h-73v1390h73v-1390z" />
    <glyph glyph-name="imacron" unicode="&#x12b;" horiz-adv-x="365" 
d="M402 1243h-439v74h439v-74zM146 878h-36v73h109v-951h-73v878z" />
    <glyph glyph-name="Ibreve" unicode="&#x12c;" horiz-adv-x="365" 
d="M183 1682q106 0 161 81l60 -42q-74 -112 -221 -112t-221 112l60 42q55 -81 161 -81zM219 0h-73v1390h73v-1390z" />
    <glyph glyph-name="ibreve" unicode="&#x12d;" horiz-adv-x="365" 
d="M183 1243q106 0 161 81l60 -42q-74 -112 -221 -112t-221 112l60 42q55 -81 161 -81zM146 878h-36v73h109v-951h-73v878z" />
    <glyph glyph-name="Iogonek" unicode="&#x12e;" horiz-adv-x="365" 
d="M219 -18q-105 -59 -140 -92.5t-35 -92.5q0 -35 23.5 -62.5t80.5 -27.5q45 0 79 22l36 -62q-53 -33 -115 -33q-82 0 -129.5 47t-47.5 116q0 39 11.5 69t37.5 54t53 40.5t73 39.5v1390h73v-1408z" />
    <glyph glyph-name="iogonek" unicode="&#x12f;" horiz-adv-x="365" 
d="M219 -18q-105 -59 -140 -92.5t-35 -92.5q0 -35 23.5 -62.5t80.5 -27.5q45 0 79 22l36 -62q-53 -33 -115 -33q-82 0 -129.5 47t-47.5 116q0 39 11.5 69t37.5 54t53 40.5t73 39.5v878h-36v73h109v-969zM110 1253q0 26 19 45t45 19t45 -19t19 -45t-19 -45t-45 -19t-45 19
t-19 45z" />
    <glyph glyph-name="Idotaccent" unicode="&#x130;" horiz-adv-x="365" 
d="M119 1691q0 26 19 45t45 19t45 -19t19 -45t-19 -45t-45 -19t-45 19t-19 45zM219 0h-73v1390h73v-1390z" />
    <glyph glyph-name="dotlessi" unicode="&#x131;" horiz-adv-x="365" 
d="M146 878h-36v73h109v-951h-73v878z" />
    <glyph glyph-name="IJ" unicode="&#x132;" horiz-adv-x="1170" 
d="M512 1390h512v-1097q0 -151 -99 -240.5t-237 -89.5q-84 0 -162 35.5t-118 98.5l-6 9v40h73v-18q29 -42 88.5 -66.5t124.5 -24.5q108 0 185.5 68.5t77.5 187.5v1024h-439v73zM219 0h-73v1390h73v-1390z" />
    <glyph glyph-name="ij" unicode="&#x133;" horiz-adv-x="731" 
d="M476 1253q0 26 19 45t45 19t45 -19t19 -45t-19 -45t-45 -19t-45 19t-19 45zM476 951h109v-1116q0 -114 -80 -194t-194 -80q-72 0 -133.5 34.5t-98.5 93.5l-6 9v46h74v-24q29 -39 71.5 -62.5t92.5 -23.5q84 0 142.5 58.5t58.5 142.5v1043h-36v73zM110 1253q0 26 19 45
t45 19t45 -19t19 -45t-19 -45t-45 -19t-45 19t-19 45zM146 878h-36v73h109v-951h-73v878z" />
    <glyph glyph-name="Jcircumflex" unicode="&#x134;" horiz-adv-x="804" 
d="M406 1737h-7l-253 -201l-45 57l272 217h59l272 -217l-46 -57zM146 1390h512v-1097q0 -151 -99 -240.5t-237 -89.5q-84 0 -162 35.5t-118 98.5l-5 9v40h73v-18q29 -42 88 -66.5t124 -24.5q108 0 185.5 68.5t77.5 187.5v1024h-439v73z" />
    <glyph glyph-name="jcircumflex" unicode="&#x135;" horiz-adv-x="365" 
d="M110 951h109v-1116q0 -114 -80 -194t-194 -80q-72 0 -133.5 34.5t-98.5 93.5l-6 9v46h74v-24q29 -39 71.5 -62.5t92.5 -23.5q84 0 142.5 58.5t58.5 142.5v1043h-36v73zM177 1298h-7l-179 -142l-46 56l199 159h59l199 -159l-45 -56z" />
    <glyph glyph-name="uni0136" unicode="&#x136;" horiz-adv-x="1243" 
d="M608 -166q0 26 19 45t45 19t45 -19t19 -45q0 -133 -123 -256l-33 33q73 73 73 162q-19 5 -32 23t-13 38zM223 494l761 896h113v-73h-78l-505 -593l497 -585q32 -38 63 -52t96 -14v-73q-82 0 -127.5 20.5t-87.5 70.5l-491 576l-245 -287v-380h-73v1390h73v-896h4z" />
    <glyph glyph-name="uni0137" unicode="&#x137;" horiz-adv-x="1097" 
d="M517 -166q0 26 19 45t45 19t45 -19t19 -45q0 -133 -123 -256l-33 33q73 73 73 162q-19 5 -32 23t-13 38zM221 300l618 651h112v-73h-81l-332 -353l343 -386q61 -66 143 -66v-73q-114 0 -196 91l-342 381l-267 -284v-188h-73v1317h-36v73h109v-1090h2z" />
    <glyph glyph-name="kgreenlandic" unicode="&#x138;" horiz-adv-x="1097" 
d="M110 951h109v-653l620 653h112v-73h-81l-332 -353l343 -386q61 -66 143 -66v-73q-114 0 -196 91l-342 381l-267 -284v-188h-73v878h-36v73z" />
    <glyph glyph-name="Lacute" unicode="&#x139;" horiz-adv-x="1170" 
d="M578 1554l-51 51l203 205l53 -51zM219 73h805v37h73v-110h-951v1390h73v-1317z" />
    <glyph glyph-name="lacute" unicode="&#x13a;" horiz-adv-x="365" 
d="M139 1554l-51 52l203 204l53 -51zM110 1390h109v-1390h-73v1317h-36v73z" />
    <glyph glyph-name="uni013B" unicode="&#x13b;" horiz-adv-x="1170" 
d="M572 -166q0 26 19 45t45 19t45 -19t19 -45q0 -133 -123 -256l-33 33q73 73 73 162q-19 5 -32 23t-13 38zM219 73h805v37h73v-110h-951v1390h73v-1317z" />
    <glyph glyph-name="uni013C" unicode="&#x13c;" horiz-adv-x="365" 
d="M115 -166q0 26 19 45t45 19t45 -19t19 -45q0 -133 -123 -256l-33 33q73 73 73 162q-19 5 -32 23t-13 38zM110 1390h109v-1390h-73v1317h-36v73z" />
    <glyph glyph-name="Lcaron" unicode="&#x13d;" horiz-adv-x="1206" 
d="M1043 1344q0 26 19 45t45 19t45 -19t19 -45q0 -133 -123 -256l-33 33q73 73 73 162q-19 5 -32 23t-13 38zM219 73h805v37h73v-110h-951v1390h73v-1317z" />
    <glyph glyph-name="lcaron" unicode="&#x13e;" horiz-adv-x="548" 
d="M366 1326q0 26 19 45t45 19t45 -19t19 -45q0 -133 -123 -256l-33 33q73 73 73 162q-19 5 -32 23t-13 38zM110 1390h109v-1390h-73v1317h-36v73z" />
    <glyph glyph-name="Ldot" unicode="&#x13f;" horiz-adv-x="1170" 
d="M704 704q0 26 19 45t45 19t45 -19t19 -45t-19 -45t-45 -19t-45 19t-19 45zM219 73h805v37h73v-110h-951v1390h73v-1317z" />
    <glyph glyph-name="ldot" unicode="&#x140;" horiz-adv-x="621" 
d="M366 686q0 26 19 45t45 19t45 -19t19 -45t-19 -45t-45 -19t-45 19t-19 45zM110 1390h109v-1390h-73v1317h-36v73z" />
    <glyph glyph-name="Lslash" unicode="&#x141;" horiz-adv-x="1170" 
d="M73 388l-46 58l119 93v851h73v-794l538 417l44 -58l-582 -452v-430h805v37h73v-110h-951v444z" />
    <glyph glyph-name="lslash" unicode="&#x142;" horiz-adv-x="513" 
d="M84 567l-47 55l182 159v536h-36v73h110v-545l135 117l49 -55l-184 -159v-748h-74v684z" />
    <glyph glyph-name="Nacute" unicode="&#x143;" horiz-adv-x="1316" 
d="M651 1554l-51 52l203 204l53 -51zM1170 1390v-1390h-73l-878 1264v-1264h-73v1317h-36v73h109l878 -1264v1264h73z" />
    <glyph glyph-name="nacute" unicode="&#x144;" horiz-adv-x="1170" 
d="M541 1115l-51 52l203 204l53 -51zM221 680q63 133 178.5 211t258.5 78q166 0 266 -88.5t100 -240.5v-567h37v-73h-110v73v567q0 122 -79 189t-214 67q-116 0 -216.5 -61t-161.5 -171t-61 -243v-421h-73v878h-36v73h109v-271h2z" />
    <glyph glyph-name="uni0145" unicode="&#x145;" horiz-adv-x="1316" 
d="M590 -166q0 26 19 45t45 19t45 -19t19 -45q0 -133 -123 -256l-33 33q73 73 73 162q-19 5 -32 23t-13 38zM1170 1390v-1390h-73l-878 1264v-1264h-73v1317h-36v73h109l878 -1264v1264h73z" />
    <glyph glyph-name="uni0146" unicode="&#x146;" horiz-adv-x="1170" 
d="M535 -166q0 26 19 45t45 19t45 -19t19 -45q0 -133 -123 -256l-33 33q73 73 73 162q-19 5 -32 23t-13 38zM221 680q63 133 178.5 211t258.5 78q166 0 266 -88.5t100 -240.5v-567h37v-73h-110v73v567q0 122 -79 189t-214 67q-116 0 -216.5 -61t-161.5 -171t-61 -243v-421
h-73v878h-36v73h109v-271h2z" />
    <glyph glyph-name="Ncaron" unicode="&#x147;" horiz-adv-x="1316" 
d="M698 1628l253 201l45 -57l-272 -218h-59l-272 218l46 57l252 -201h7zM1170 1390v-1390h-73l-878 1264v-1264h-73v1317h-36v73h109l878 -1264v1264h73z" />
    <glyph glyph-name="ncaron" unicode="&#x148;" horiz-adv-x="1170" 
d="M588 1189l253 201l45 -57l-272 -218h-59l-272 218l46 57l252 -201h7zM221 680q63 133 178.5 211t258.5 78q166 0 266 -88.5t100 -240.5v-567h37v-73h-110v73v567q0 122 -79 189t-214 67q-116 0 -216.5 -61t-161.5 -171t-61 -243v-421h-73v878h-36v73h109v-271h2z" />
    <glyph glyph-name="napostrophe" unicode="&#x149;" horiz-adv-x="1316" 
d="M82 1326q0 26 20 45t46 19t44 -19t18 -45q0 -134 -122 -256l-51 51q69 69 91 144q-19 5 -32.5 23t-13.5 38zM805 969q166 0 265.5 -88.5t99.5 -240.5v-567h37v-73h-110v640q0 123 -78.5 189.5t-213.5 66.5q-116 0 -216.5 -61t-161.5 -171t-61 -243v-421h-73v878h-37v73
h110v-258q47 92 122.5 158t169.5 96q70 22 147 22z" />
    <glyph glyph-name="Eng" unicode="&#x14a;" horiz-adv-x="1133" 
d="M146 1317h-36v73h109v-247q68 122 185 193.5t254 71.5q166 0 266 -88.5t100 -240.5v-823q0 -101 -45.5 -175.5t-126.5 -113.5l-7 -4h-9h-50v74h41q124 66 124 219v823q0 122 -79 189t-214 67q-116 0 -216.5 -61t-161.5 -171t-61 -244v-859h-73v1317z" />
    <glyph glyph-name="eng" unicode="&#x14b;" horiz-adv-x="1133" 
d="M146 878h-36v73h109v-247q68 122 185 193.5t254 71.5q166 0 266 -88.5t100 -240.5v-786q0 -101 -45.5 -175.5t-126.5 -113.5l-7 -4h-9h-50v73h41q124 66 124 220v786q0 122 -79 189t-214 67q-116 0 -216.5 -61t-161.5 -171t-61 -243v-421h-73v878z" />
    <glyph glyph-name="Omacron" unicode="&#x14c;" horiz-adv-x="1572" 
d="M1079 1682h-585v74h585v-74zM146 695q0 -130 51 -248.5t136.5 -204t204 -136.5t248.5 -51t248.5 51t204 136.5t136.5 204t51 248.5t-51 248.5t-136.5 204t-204 136.5t-248.5 51t-248.5 -51t-204 -136.5t-136.5 -204t-51 -248.5zM786 1408q145 0 277 -56.5t227.5 -152
t152 -227.5t56.5 -277t-56.5 -277t-152 -227.5t-227.5 -152t-277 -56.5t-277 56.5t-227.5 152t-152 227.5t-56.5 277t56.5 277t152 227.5t227.5 152t277 56.5z" />
    <glyph glyph-name="omacron" unicode="&#x14d;" horiz-adv-x="1133" 
d="M860 1243h-585v74h585v-74zM146 475q0 -174 123.5 -297t297.5 -123t297 123t123 297t-123 297.5t-297 123.5t-297.5 -123.5t-123.5 -297.5zM567 969q134 0 247.5 -66.5t180 -180t66.5 -247.5t-66.5 -247.5t-180 -179.5t-247.5 -66t-247.5 66t-180 179.5t-66.5 247.5
t66.5 247.5t180 180t247.5 66.5z" />
    <glyph glyph-name="Obreve" unicode="&#x14e;" horiz-adv-x="1572" 
d="M786 1682q148 0 222 112l60 -42q-98 -143 -282 -143q-183 0 -281 143l60 42q74 -112 221 -112zM146 695q0 -130 51 -248.5t136.5 -204t204 -136.5t248.5 -51t248.5 51t204 136.5t136.5 204t51 248.5t-51 248.5t-136.5 204t-204 136.5t-248.5 51t-248.5 -51t-204 -136.5
t-136.5 -204t-51 -248.5zM786 1408q145 0 277 -56.5t227.5 -152t152 -227.5t56.5 -277t-56.5 -277t-152 -227.5t-227.5 -152t-277 -56.5t-277 56.5t-227.5 152t-152 227.5t-56.5 277t56.5 277t152 227.5t227.5 152t277 56.5z" />
    <glyph glyph-name="obreve" unicode="&#x14f;" horiz-adv-x="1133" 
d="M566 1243q148 0 222 112l60 -42q-98 -143 -282 -143q-183 0 -281 143l60 42q74 -112 221 -112zM146 475q0 -174 123.5 -297t297.5 -123t297 123t123 297t-123 297.5t-297 123.5t-297.5 -123.5t-123.5 -297.5zM567 969q134 0 247.5 -66.5t180 -180t66.5 -247.5
t-66.5 -247.5t-180 -179.5t-247.5 -66t-247.5 66t-180 179.5t-66.5 247.5t66.5 247.5t180 180t247.5 66.5z" />
    <glyph glyph-name="Ohungarumlaut" unicode="&#x150;" horiz-adv-x="1572" 
d="M953 1554l-53 52l204 204l52 -51zM587 1554l-53 52l205 204l51 -51zM146 695q0 -130 51 -248.5t136.5 -204t204 -136.5t248.5 -51t248.5 51t204 136.5t136.5 204t51 248.5t-51 248.5t-136.5 204t-204 136.5t-248.5 51t-248.5 -51t-204 -136.5t-136.5 -204t-51 -248.5z
M786 1408q145 0 277 -56.5t227.5 -152t152 -227.5t56.5 -277t-56.5 -277t-152 -227.5t-227.5 -152t-277 -56.5t-277 56.5t-227.5 152t-152 227.5t-56.5 277t56.5 277t152 227.5t227.5 152t277 56.5z" />
    <glyph glyph-name="ohungarumlaut" unicode="&#x151;" horiz-adv-x="1133" 
d="M734 1115l-53 52l204 204l52 -51zM368 1115l-53 52l205 204l51 -51zM146 475q0 -174 123.5 -297t297.5 -123t297 123t123 297t-123 297.5t-297 123.5t-297.5 -123.5t-123.5 -297.5zM567 969q134 0 247.5 -66.5t180 -180t66.5 -247.5t-66.5 -247.5t-180 -179.5t-247.5 -66
t-247.5 66t-180 179.5t-66.5 247.5t66.5 247.5t180 180t247.5 66.5z" />
    <glyph glyph-name="OE" unicode="&#x152;" horiz-adv-x="1755" 
d="M768 1317q-127 0 -242 -49t-198.5 -132.5t-132.5 -198.5t-49 -242t49 -242t132.5 -198.5t198.5 -132.5t242 -49h110v1244h-110zM1609 1390v-110h-73v37h-585v-586h366v-73h-366v-585h658v37h73v-110h-914q-141 0 -270 55t-222 148t-148 222t-55 270t55 270t148 222
t222 148t270 55h841z" />
    <glyph glyph-name="oe" unicode="&#x153;" horiz-adv-x="1974" 
d="M146 475q0 -174 123.5 -297t297.5 -123t297 123t123 297t-123 297.5t-297 123.5t-297.5 -123.5t-123.5 -297.5zM1062 439q14 -162 134.5 -273t284.5 -111q89 0 168.5 35t138.5 98l53 -49q-69 -74 -162 -115.5t-198 -41.5q-153 0 -277 85t-180 222q-56 -137 -180 -222
t-277 -85q-134 0 -247.5 66t-180 179.5t-66.5 247.5t66.5 247.5t180 180t247.5 66.5q153 0 277.5 -84.5t179.5 -222.5q55 137 180 222t277 85q121 0 225.5 -54.5t173.5 -148.5l20 -27l-26 -22q-10 -8 -63 -56.5t-89.5 -77t-93 -67t-112.5 -58t-108 -19.5h-346zM1408 512
q25 0 53.5 7.5t51 16t55 29t49 31.5t52 40t45.5 37.5t46 41.5t39 35q-59 69 -141.5 107.5t-176.5 38.5q-163 0 -284 -111t-135 -273h346z" />
    <glyph glyph-name="Racute" unicode="&#x154;" horiz-adv-x="1243" 
d="M505 1554l-51 52l203 204l53 -51zM636 602q65 -31 125 -125l212 -333q28 -44 50.5 -57.5t62.5 -13.5h84v-73h-84q-57 0 -97 22.5t-78 83.5l-212 331q-25 39 -40 60.5t-36 40.5t-36 26.5t-45.5 13t-58.5 6.5t-81 1h-183v-585h-73v1317h-36v73h521q112 0 202.5 -34
t147 -91.5t86.5 -128.5t30 -149q0 -76 -30 -144.5t-86 -122t-145 -85t-200 -32.5h-1v-1h1zM631 658q96 0 173 28t124 75.5t71.5 105t24.5 120.5t-24.5 120.5t-71.5 105t-124 76t-173 28.5h-412v-659h412z" />
    <glyph glyph-name="racute" unicode="&#x155;" horiz-adv-x="731" 
d="M359 1115l-51 52l203 204l53 -51zM221 640q64 148 179 238.5t222 90.5h36v-110h-73v33q-58 -11 -121 -54t-118 -109t-91 -162t-36 -201v-366h-73v878h-36v73h109v-311h2z" />
    <glyph glyph-name="uni0156" unicode="&#x156;" horiz-adv-x="1243" 
d="M600 -155q0 26 19 45t45 19t45 -19t19 -45q0 -133 -123 -256l-33 33q73 73 73 162q-19 5 -32 23t-13 38zM636 602q65 -31 125 -125l212 -333q28 -44 50.5 -57.5t62.5 -13.5h84v-73h-84q-57 0 -97 22.5t-78 83.5l-212 331q-25 39 -40 60.5t-36 40.5t-36 26.5t-45.5 13
t-58.5 6.5t-81 1h-183v-585h-73v1317h-36v73h521q112 0 202.5 -34t147 -91.5t86.5 -128.5t30 -149q0 -76 -30 -144.5t-86 -122t-145 -85t-200 -32.5h-1v-1h1zM631 658q96 0 173 28t124 75.5t71.5 105t24.5 120.5t-24.5 120.5t-71.5 105t-124 76t-173 28.5h-412v-659h412z
" />
    <glyph glyph-name="uni0157" unicode="&#x157;" horiz-adv-x="731" 
d="M344 -155q0 26 19 45t45 19t45 -19t19 -45q0 -133 -123 -256l-33 33q73 73 73 162q-19 5 -32 23t-13 38zM221 640q64 148 179 238.5t222 90.5h36v-110h-73v33q-58 -11 -121 -54t-118 -109t-91 -162t-36 -201v-366h-73v878h-36v73h109v-311h2z" />
    <glyph glyph-name="Rcaron" unicode="&#x158;" horiz-adv-x="1243" 
d="M552 1628l253 201l45 -57l-272 -218h-59l-272 218l46 57l252 -201h7zM636 602q65 -31 125 -125l212 -333q28 -44 50.5 -57.5t62.5 -13.5h84v-73h-84q-57 0 -97 22.5t-78 83.5l-212 331q-25 39 -40 60.5t-36 40.5t-36 26.5t-45.5 13t-58.5 6.5t-81 1h-183v-585h-73v1317
h-36v73h521q112 0 202.5 -34t147 -91.5t86.5 -128.5t30 -149q0 -76 -30 -144.5t-86 -122t-145 -85t-200 -32.5h-1v-1h1zM631 658q96 0 173 28t124 75.5t71.5 105t24.5 120.5t-24.5 120.5t-71.5 105t-124 76t-173 28.5h-412v-659h412z" />
    <glyph glyph-name="rcaron" unicode="&#x159;" horiz-adv-x="731" 
d="M406 1189l253 201l45 -57l-272 -218h-59l-272 218l46 57l252 -201h7zM221 640q64 148 179 238.5t222 90.5h36v-110h-73v33q-58 -11 -121 -54t-118 -109t-91 -162t-36 -201v-366h-73v878h-36v73h109v-311h2z" />
    <glyph glyph-name="Sacute" unicode="&#x15a;" horiz-adv-x="1243" 
d="M574 1552l-51 52l203 204l53 -51zM146 230q74 -64 208 -119.5t268 -55.5q227 0 351 79.5t124 187.5q0 40 -12.5 76t-33 65t-55.5 56.5t-69 48.5t-86.5 44.5t-96 40.5t-106.5 40q-195 71 -268 108q-192 98 -219 235q-5 24 -5 50q0 142 136.5 232t339.5 90q116 0 245 -42.5
t219 -129.5l11 -11v-68h-73v37q-75 67 -185.5 104t-216.5 37q-170 0 -286.5 -70t-116.5 -179q0 -33 11.5 -62.5t29.5 -53.5t52 -48t65.5 -42t84 -40.5t94.5 -38.5t108 -40q51 -18 77 -28t76 -30t78 -34.5t70.5 -38.5t67.5 -45.5t54.5 -51.5t45 -61t26.5 -69.5t11 -80.5
q0 -149 -150 -244.5t-398 -95.5q-158 0 -310.5 66.5t-227.5 139.5l-11 11v68h73v-37z" />
    <glyph glyph-name="sacute" unicode="&#x15b;" 
d="M432 1115l-51 52l203 204l53 -51zM475 542q168 -56 224 -82q154 -74 175 -189q4 -20 4 -42q0 -109 -111 -178t-292 -69q-143 0 -243 44t-152 111l-7 9v55h73v-29q40 -47 120.5 -82t208.5 -35q160 0 245 53.5t85 120.5q0 37 -17.5 67.5t-43.5 52t-69.5 42t-81.5 34
t-93 31.5q-17 5 -25 8q-61 20 -99 34.5t-86.5 40t-76.5 51.5t-47.5 64.5t-19.5 84.5q0 90 100.5 160t228.5 70q199 0 319 -117l11 -11v-55h-74v24q-99 86 -256 86q-105 0 -180.5 -52.5t-75.5 -104.5q0 -30 14.5 -56t35.5 -44.5t57.5 -37t68.5 -31t80 -28.5z" />
    <glyph glyph-name="Scircumflex" unicode="&#x15c;" horiz-adv-x="1243" 
d="M621 1735h-7l-252 -201l-46 57l272 217h59l272 -217l-45 -57zM146 230q74 -64 208 -119.5t268 -55.5q227 0 351 79.5t124 187.5q0 40 -12.5 76t-33 65t-55.5 56.5t-69 48.5t-86.5 44.5t-96 40.5t-106.5 40q-195 71 -268 108q-192 98 -219 235q-5 24 -5 50
q0 142 136.5 232t339.5 90q116 0 245 -42.5t219 -129.5l11 -11v-68h-73v37q-75 67 -185.5 104t-216.5 37q-170 0 -286.5 -70t-116.5 -179q0 -33 11.5 -62.5t29.5 -53.5t52 -48t65.5 -42t84 -40.5t94.5 -38.5t108 -40q51 -18 77 -28t76 -30t78 -34.5t70.5 -38.5t67.5 -45.5
t54.5 -51.5t45 -61t26.5 -69.5t11 -80.5q0 -149 -150 -244.5t-398 -95.5q-158 0 -310.5 66.5t-227.5 139.5l-11 11v68h73v-37z" />
    <glyph glyph-name="scircumflex" unicode="&#x15d;" 
d="M479 1298h-7l-252 -201l-46 57l272 217h59l272 -217l-45 -57zM475 542q168 -56 224 -82q154 -74 175 -189q4 -20 4 -42q0 -109 -111 -178t-292 -69q-143 0 -243 44t-152 111l-7 9v55h73v-29q40 -47 120.5 -82t208.5 -35q160 0 245 53.5t85 120.5q0 37 -17.5 67.5
t-43.5 52t-69.5 42t-81.5 34t-93 31.5q-17 5 -25 8q-61 20 -99 34.5t-86.5 40t-76.5 51.5t-47.5 64.5t-19.5 84.5q0 90 100.5 160t228.5 70q199 0 319 -117l11 -11v-55h-74v24q-99 86 -256 86q-105 0 -180.5 -52.5t-75.5 -104.5q0 -30 14.5 -56t35.5 -44.5t57.5 -37
t68.5 -31t80 -28.5z" />
    <glyph glyph-name="Scedilla" unicode="&#x15e;" horiz-adv-x="1243" 
d="M146 267v-37q74 -64 208 -119.5t268 -55.5q227 0 351 79.5t124 187.5q0 40 -12.5 76t-33 65t-55.5 56.5t-69 48.5t-86.5 44.5t-96 40.5t-106.5 40q-195 71 -268 108q-192 98 -219 235q-5 24 -5 50q0 142 136.5 232t339.5 90q116 0 245 -42.5t219 -129.5l11 -11v-68h-73
v37q-75 67 -185.5 104t-216.5 37q-170 0 -286.5 -70t-116.5 -179q0 -33 11.5 -62.5t29.5 -53.5t52 -48t65.5 -42t84 -40.5t94.5 -38.5t108 -40q51 -18 77 -28t76 -30t78 -34.5t70.5 -38.5t67.5 -45.5t54.5 -51.5t45 -61t26.5 -69.5t11 -80.5q0 -145 -143.5 -240t-381.5 -100
l-20 -77q25 7 55 7q79 0 125.5 -52.5t46.5 -122.5q0 -74 -54.5 -116t-124.5 -42q-50 0 -93.5 22.5t-67.5 63.5l48 28q35 -59 113 -59q51 0 78.5 32.5t27.5 77.5t-26 79t-73 34q-9 0 -16.5 -1t-13 -2t-14 -4t-11.5 -4.5t-14 -6.5t-15 -7l-47 13l40 137q-151 8 -292.5 72.5
t-212.5 133.5l-11 11v68h73z" />
    <glyph glyph-name="scedilla" unicode="&#x15f;" 
d="M432 -168l-48 13l40 139q-122 8 -209 50.5t-135 102.5l-7 9v55h73v-29q40 -47 120.5 -82t208.5 -35q160 0 245 53.5t85 120.5q0 54 -36.5 95t-94.5 67.5t-128 49.5t-140.5 48.5t-128.5 56t-94.5 80t-36.5 113.5q0 90 100.5 160t228.5 70q199 0 319 -117l11 -11v-55h-74
v24q-99 86 -256 86q-105 0 -180.5 -52.5t-75.5 -104.5q0 -49 36.5 -87t94.5 -63t128 -47.5t140.5 -49t128.5 -59t94.5 -84.5t36.5 -120q0 -108 -109 -177t-288 -70l-20 -77q25 7 55 7q79 0 125.5 -52.5t46.5 -122.5q0 -74 -55 -116t-125 -42q-50 0 -93.5 22.5t-67.5 63.5
l48 28q35 -59 113 -59q51 0 78.5 32.5t27.5 77.5t-26 79t-72 34q-9 0 -16.5 -1t-13 -2t-14 -4t-11.5 -4.5t-14 -6.5t-15 -7z" />
    <glyph glyph-name="Scaron" unicode="&#x160;" horiz-adv-x="1243" 
d="M621 1626l253 201l45 -57l-272 -218h-59l-272 218l46 57l252 -201h7zM146 230q74 -64 208 -119.5t268 -55.5q227 0 351 79.5t124 187.5q0 40 -12.5 76t-33 65t-55.5 56.5t-69 48.5t-86.5 44.5t-96 40.5t-106.5 40q-195 71 -268 108q-192 98 -219 235q-5 24 -5 50
q0 142 136.5 232t339.5 90q116 0 245 -42.5t219 -129.5l11 -11v-68h-73v37q-75 67 -185.5 104t-216.5 37q-170 0 -286.5 -70t-116.5 -179q0 -33 11.5 -62.5t29.5 -53.5t52 -48t65.5 -42t84 -40.5t94.5 -38.5t108 -40q51 -18 77 -28t76 -30t78 -34.5t70.5 -38.5t67.5 -45.5
t54.5 -51.5t45 -61t26.5 -69.5t11 -80.5q0 -149 -150 -244.5t-398 -95.5q-158 0 -310.5 66.5t-227.5 139.5l-11 11v68h73v-37z" />
    <glyph glyph-name="scaron" unicode="&#x161;" 
d="M479 1189l253 201l45 -57l-272 -218h-59l-272 218l46 57l252 -201h7zM475 542q168 -56 224 -82q154 -74 175 -189q4 -20 4 -42q0 -109 -111 -178t-292 -69q-143 0 -243 44t-152 111l-7 9v55h73v-29q40 -47 120.5 -82t208.5 -35q160 0 245 53.5t85 120.5q0 37 -17.5 67.5
t-43.5 52t-69.5 42t-81.5 34t-93 31.5q-17 5 -25 8q-61 20 -99 34.5t-86.5 40t-76.5 51.5t-47.5 64.5t-19.5 84.5q0 90 100.5 160t228.5 70q199 0 319 -117l11 -11v-55h-74v24q-99 86 -256 86q-105 0 -180.5 -52.5t-75.5 -104.5q0 -30 14.5 -56t35.5 -44.5t57.5 -37
t68.5 -31t80 -28.5z" />
    <glyph glyph-name="uni0162" unicode="&#x162;" horiz-adv-x="1243" 
d="M605 -157l-45 13l42 144h-17v1317h-439v-37h-73v110h1097v-110h-73v37h-439v-1317l-23 -84q25 7 56 7q79 0 125.5 -52.5t46.5 -122.5q0 -74 -54.5 -116t-124.5 -42q-50 0 -93.5 22.5t-67.5 63.5l48 28q35 -59 113 -59q51 0 78.5 32.5t27.5 77.5t-26 79t-73 34
q-31 0 -86 -25z" />
    <glyph glyph-name="uni0163" unicode="&#x163;" horiz-adv-x="877" 
d="M73 878v73h146v219h74v-219h438v-73h-438v-585q0 -99 69 -168.5t168 -69.5q62 0 115.5 30t85.5 81v17h74v-37l-6 -9q-40 -71 -112 -113t-157 -42q-25 0 -49 3l-22 -80q25 7 57 7q79 0 125.5 -52.5t46.5 -122.5q0 -74 -55 -116t-125 -42q-50 0 -93.5 22.5t-67.5 63.5
l48 28q35 -59 113 -59q51 0 78.5 32.5t27.5 77.5t-26 79t-72 34q-31 0 -86 -25l-46 13l40 155q-91 34 -148 113.5t-57 179.5v585h-146z" />
    <glyph glyph-name="Tcaron" unicode="&#x164;" horiz-adv-x="1243" 
d="M625 1628l253 201l45 -57l-272 -218h-59l-272 218l46 57l252 -201h7zM73 1390h1097v-110h-73v37h-439v-1317h-73v1317h-439v-37h-73v110z" />
    <glyph glyph-name="tcaron" unicode="&#x165;" horiz-adv-x="1024" 
d="M841 1180q0 26 19 45t45 19t45 -19t19 -45q0 -133 -123 -256l-33 33q73 73 73 162q-19 5 -32 23t-13 38zM73 878v73h146v219h74v-219h438v-73h-438v-585q0 -99 69 -168.5t168 -69.5q62 0 115.5 30t85.5 81v17h74v-37l-6 -9q-40 -71 -112 -113t-157 -42q-129 0 -220 91
t-91 220v585h-146z" />
    <glyph glyph-name="Tbar" unicode="&#x166;" horiz-adv-x="1243" 
d="M73 1390h1097v-110h-73v37h-439v-293h220v-73h-220v-951h-73v951h-219v73h219v293h-439v-37h-73v110z" />
    <glyph glyph-name="tbar" unicode="&#x167;" horiz-adv-x="877" 
d="M73 878v73h146v219h74v-219h438v-73h-438v-220h365v-73h-365v-292q0 -99 69 -168.5t168 -69.5q62 0 115.5 30t85.5 81v17h74v-37l-6 -9q-40 -71 -112 -113t-157 -42q-129 0 -220 91t-91 220v292h-73v73h73v220h-146z" />
    <glyph glyph-name="Utilde" unicode="&#x168;" horiz-adv-x="1316" 
d="M728 1723q38 -19 62 -19q52 0 62 64l11 50l72 -13l-10 -49q-11 -62 -48 -92.5t-87 -30.5q-52 0 -88 20l-113 62q-38 19 -62 19q-52 0 -62 -64l-11 -50l-72 13l9 49q11 62 48.5 92.5t87.5 30.5q52 0 88 -20zM219 1390v-896q0 -118 59 -219.5t160.5 -160.5t219.5 -59
t219.5 59t160.5 160.5t59 219.5v896h73v-896q0 -212 -150 -362t-362 -150t-362 150t-150 362v823h-36v73h109z" />
    <glyph glyph-name="utilde" unicode="&#x169;" horiz-adv-x="1170" 
d="M655 1284q38 -19 62 -19q52 0 62 64l11 50l72 -13l-10 -49q-11 -62 -48 -92.5t-87 -30.5q-52 0 -88 20l-113 62q-38 19 -62 19q-52 0 -62 -64l-11 -50l-72 13l9 49q11 62 48.5 92.5t87.5 30.5q52 0 88 -20zM219 951v-73v-567q0 -122 79 -189t214 -67q116 0 216.5 61
t161.5 171t61 243v421h73v-878h37v-73h-110v271h-2q-63 -133 -178.5 -211t-258.5 -78q-166 0 -266 88.5t-100 240.5v567h-36v73h109z" />
    <glyph glyph-name="Umacron" unicode="&#x16a;" horiz-adv-x="1316" 
d="M951 1682h-585v74h585v-74zM219 1390v-896q0 -118 59 -219.5t160.5 -160.5t219.5 -59t219.5 59t160.5 160.5t59 219.5v896h73v-896q0 -212 -150 -362t-362 -150t-362 150t-150 362v823h-36v73h109z" />
    <glyph glyph-name="umacron" unicode="&#x16b;" horiz-adv-x="1170" 
d="M878 1243h-585v74h585v-74zM219 951v-73v-567q0 -122 79 -189t214 -67q116 0 216.5 61t161.5 171t61 243v421h73v-878h37v-73h-110v271h-2q-63 -133 -178.5 -211t-258.5 -78q-166 0 -266 88.5t-100 240.5v567h-36v73h109z" />
    <glyph glyph-name="Ubreve" unicode="&#x16c;" horiz-adv-x="1316" 
d="M658 1682q148 0 222 112l60 -42q-98 -143 -282 -143q-183 0 -281 143l60 42q74 -112 221 -112zM219 1390v-896q0 -118 59 -219.5t160.5 -160.5t219.5 -59t219.5 59t160.5 160.5t59 219.5v896h73v-896q0 -212 -150 -362t-362 -150t-362 150t-150 362v823h-36v73h109z" />
    <glyph glyph-name="ubreve" unicode="&#x16d;" horiz-adv-x="1170" 
d="M585 1243q148 0 222 112l60 -42q-98 -143 -282 -143q-183 0 -281 143l60 42q74 -112 221 -112zM219 951v-73v-567q0 -122 79 -189t214 -67q116 0 216.5 61t161.5 171t61 243v421h73v-878h37v-73h-110v271h-2q-63 -133 -178.5 -211t-258.5 -78q-166 0 -266 88.5
t-100 240.5v567h-36v73h109z" />
    <glyph glyph-name="Uring" unicode="&#x16e;" horiz-adv-x="1316" 
d="M658 1829q68 0 124 -55q59 -57 59 -128t-59 -128q-56 -55 -124 -55q-65 0 -124 57t-59 126q0 71 59 128q56 55 124 55zM658 1774q-45 0 -88 -40q-40 -40 -40 -88t40 -88t88 -40q45 0 88 40q40 40 40 88t-40 88q-43 40 -88 40zM219 1390v-896q0 -118 59 -219.5
t160.5 -160.5t219.5 -59t219.5 59t160.5 160.5t59 219.5v896h73v-896q0 -212 -150 -362t-362 -150t-362 150t-150 362v823h-36v73h109z" />
    <glyph glyph-name="uring" unicode="&#x16f;" horiz-adv-x="1170" 
d="M585 1390q68 0 124 -55q59 -57 59 -128t-59 -128q-56 -55 -124 -55q-65 0 -124 57t-59 126q0 71 59 128q56 55 124 55zM585 1335q-45 0 -88 -40q-40 -40 -40 -88t40 -88t88 -40q45 0 88 40q40 40 40 88t-40 88q-43 40 -88 40zM219 951v-73v-567q0 -122 79 -189t214 -67
q116 0 216.5 61t161.5 171t61 243v421h73v-878h37v-73h-110v271h-2q-63 -133 -178.5 -211t-258.5 -78q-166 0 -266 88.5t-100 240.5v567h-36v73h109z" />
    <glyph glyph-name="Uhungarumlaut" unicode="&#x170;" horiz-adv-x="1316" 
d="M825 1554l-53 52l204 204l52 -51zM459 1554l-53 52l205 204l51 -51zM219 1390v-896q0 -118 59 -219.5t160.5 -160.5t219.5 -59t219.5 59t160.5 160.5t59 219.5v896h73v-896q0 -212 -150 -362t-362 -150t-362 150t-150 362v823h-36v73h109z" />
    <glyph glyph-name="uhungarumlaut" unicode="&#x171;" horiz-adv-x="1170" 
d="M752 1115l-53 52l204 204l52 -51zM386 1115l-53 52l205 204l51 -51zM219 951v-73v-567q0 -122 79 -189t214 -67q116 0 216.5 61t161.5 171t61 243v421h73v-878h37v-73h-110v271h-2q-63 -133 -178.5 -211t-258.5 -78q-166 0 -266 88.5t-100 240.5v567h-36v73h109z" />
    <glyph glyph-name="Uogonek" unicode="&#x172;" horiz-adv-x="1316" 
d="M616 -203q0 -35 23.5 -62.5t80.5 -27.5q45 0 79 22l37 -62q-53 -33 -116 -33q-82 0 -129.5 47t-47.5 116q0 66 34 106t105 79h-24q-212 0 -362 150t-150 362v823h-36v73h109v-896q0 -118 59 -219.5t160.5 -160.5t219.5 -59t219.5 59t160.5 160.5t59 219.5v896h73v-896
q0 -150 -79 -274.5t-210 -186.5q-27 -16 -66.5 -38t-57.5 -32.5t-44.5 -26.5t-37.5 -25.5t-25.5 -23.5t-20 -26.5t-9.5 -28.5t-4 -35z" />
    <glyph glyph-name="uogonek" unicode="&#x173;" horiz-adv-x="1170" 
d="M219 951v-73v-567q0 -122 79 -189t214 -67q116 0 216.5 61t161.5 171t61 243v421h73v-878h37v-77q-123 -69 -152 -93q-48 -46 -50 -106q0 -35 24 -62.5t81 -27.5q44 0 78 22l37 -62q-53 -33 -115 -33q-82 0 -130 47t-48 116q0 72 39.5 113.5t125.5 85.5v275h-2
q-63 -133 -178.5 -211t-258.5 -78q-166 0 -266 88.5t-100 240.5v567h-36v73h109z" />
    <glyph glyph-name="Wcircumflex" unicode="&#x174;" horiz-adv-x="1974" 
d="M991 1737h-7l-252 -201l-46 57l272 217h59l272 -217l-45 -57zM55 1317v73h80l468 -1269l348 921v201h73v-201l342 -921l477 1282l70 -26l-520 -1393h-54l-352 947l-356 -947h-55l-492 1333h-29z" />
    <glyph glyph-name="wcircumflex" unicode="&#x175;" horiz-adv-x="1645" 
d="M844 1298h-7l-252 -201l-46 57l272 217h59l272 -217l-45 -57zM512 106l293 649v159h73v-159l292 -649l386 859l66 -29l-426 -952h-51l-304 674l-303 -674h-52l-400 894h-31v73h78z" />
    <glyph glyph-name="Ycircumflex" unicode="&#x176;" horiz-adv-x="1243" 
d="M625 1737h-7l-252 -201l-46 57l272 217h59l272 -217l-45 -57zM624 583l493 821l64 -36l-523 -869v-499h-73v499l-495 818h-35v73h75l490 -807h4z" />
    <glyph glyph-name="ycircumflex" unicode="&#x177;" horiz-adv-x="1097" 
d="M552 1298h-7l-252 -201l-46 57l272 217h59l272 -217l-45 -57zM1061 903l-553 -1146q-95 -196 -245 -196q-68 0 -127 40t-94 94l-5 9v38h73v-16q28 -39 69 -65.5t84 -26.5q104 0 180 156l65 137l-422 951h-31v73h78l416 -936h1l437 907v29h74v-48z" />
    <glyph glyph-name="Ydieresis" unicode="&#x178;" horiz-adv-x="1243" 
d="M777 1655q0 26 19 45t45 19t45 -19t19 -45t-19 -45t-45 -19t-45 19t-19 45zM347 1655q0 26 19 45t45 19t45 -19t19 -45t-19 -45t-45 -19t-45 19t-19 45zM624 583l493 821l64 -36l-523 -869v-499h-73v499l-495 818h-35v73h75l490 -807h4z" />
    <glyph glyph-name="Zacute" unicode="&#x179;" horiz-adv-x="1170" 
d="M541 1554l-51 52l203 204l53 -51zM1061 1390v-48l-880 -1267h-2v-2h845v37h73v-110h-1024v48l880 1267h2v2h-772v-37h-73v110h951z" />
    <glyph glyph-name="zacute" unicode="&#x17a;" horiz-adv-x="1024" 
d="M468 1115l-51 52l203 204l53 -51zM795 878h-612v-37h-73v110h804v-51l-722 -825v-2h686v37h73v-110h-878v51l722 825v2z" />
    <glyph glyph-name="Zdotaccent" unicode="&#x17b;" horiz-adv-x="1170" 
d="M521 1692q0 26 19 45t45 19t45 -19t19 -45t-19 -45t-45 -19t-45 19t-19 45zM1061 1390v-48l-880 -1267h-2v-2h845v37h73v-110h-1024v48l880 1267h2v2h-772v-37h-73v110h951z" />
    <glyph glyph-name="zdotaccent" unicode="&#x17c;" horiz-adv-x="1024" 
d="M448 1253q0 26 19 45t45 19t45 -19t19 -45t-19 -45t-45 -19t-45 19t-19 45zM795 878h-612v-37h-73v110h804v-51l-722 -825v-2h686v37h73v-110h-878v51l722 825v2z" />
    <glyph glyph-name="Zcaron" unicode="&#x17d;" horiz-adv-x="1170" 
d="M588 1628l253 201l45 -57l-272 -218h-59l-272 218l46 57l252 -201h7zM1061 1390v-48l-880 -1267h-2v-2h845v37h73v-110h-1024v48l880 1267h2v2h-772v-37h-73v110h951z" />
    <glyph glyph-name="zcaron" unicode="&#x17e;" horiz-adv-x="1024" 
d="M515 1189l253 201l45 -57l-272 -218h-59l-272 218l46 57l252 -201h7zM795 878h-612v-37h-73v110h804v-51l-722 -825v-2h686v37h73v-110h-878v51l722 825v2z" />
    <glyph glyph-name="florin" unicode="&#x192;" horiz-adv-x="1022" 
d="M512 -165q0 -114 -80 -194t-194 -80q-72 0 -134 34.5t-99 93.5l-5 9v46h73v-24q29 -39 72 -62.5t93 -23.5q84 0 142.5 58.5t58.5 142.5v896h-220v74h220v274q0 114 80 194t194 80q71 0 132.5 -34.5t98.5 -93.5l7 -9v-46h-73v24q-29 39 -72 62.5t-93 23.5
q-84 0 -142.5 -58.5t-58.5 -142.5v-274h293v-74h-293v-896z" />
    <glyph glyph-name="uni01CD" unicode="&#x1cd;" horiz-adv-x="1243" 
d="M643 1628l253 201l45 -57l-272 -218h-59l-272 218l46 57l252 -201h7zM640 1275l-331 -836h666zM1004 366h-724l-145 -366h-80v73h29l529 1333h54l556 -1393l-67 -26z" />
    <glyph glyph-name="uni01CE" unicode="&#x1ce;" horiz-adv-x="1097" 
d="M561 1189l253 201l45 -57l-272 -218h-59l-272 218l46 57l252 -201h7zM878 245v267h-403q-160 0 -244.5 -68.5t-84.5 -160.5q0 -96 96.5 -162t232.5 -66q122 0 240.5 52t162.5 138zM876 150q-70 -80 -180.5 -124t-220.5 -44q-166 0 -284 87.5t-118 213.5
q0 125 107.5 213.5t294.5 88.5h403v55q0 73 -28 125.5t-76.5 79.5t-101.5 39t-114 12q-148 0 -265 -55v-36h-74v80q62 39 154.5 61.5t184.5 22.5q61 0 116 -10.5t106.5 -35t88.5 -61.5t59.5 -94t22.5 -128v-567h36v-73h-109v150h-2z" />
    <glyph glyph-name="uni01CF" unicode="&#x1cf;" horiz-adv-x="365" 
d="M186 1628l253 201l45 -57l-272 -218h-59l-272 218l46 57l252 -201h7zM219 0h-73v1390h73v-1390z" />
    <glyph glyph-name="uni01D0" unicode="&#x1d0;" horiz-adv-x="365" 
d="M177 1189l253 201l45 -57l-272 -218h-59l-272 218l46 57l252 -201h7zM146 878h-36v73h109v-951h-73v878z" />
    <glyph glyph-name="uni01D1" unicode="&#x1d1;" horiz-adv-x="1572" 
d="M790 1628l253 201l45 -57l-272 -218h-59l-272 218l46 57l252 -201h7zM146 695q0 -130 51 -248.5t136.5 -204t204 -136.5t248.5 -51t248.5 51t204 136.5t136.5 204t51 248.5t-51 248.5t-136.5 204t-204 136.5t-248.5 51t-248.5 -51t-204 -136.5t-136.5 -204t-51 -248.5z
M786 1408q145 0 277 -56.5t227.5 -152t152 -227.5t56.5 -277t-56.5 -277t-152 -227.5t-227.5 -152t-277 -56.5t-277 56.5t-227.5 152t-152 227.5t-56.5 277t56.5 277t152 227.5t227.5 152t277 56.5z" />
    <glyph glyph-name="uni01D2" unicode="&#x1d2;" horiz-adv-x="1133" 
d="M570 1189l253 201l45 -57l-272 -218h-59l-272 218l46 57l252 -201h7zM146 475q0 -174 123.5 -297t297.5 -123t297 123t123 297t-123 297.5t-297 123.5t-297.5 -123.5t-123.5 -297.5zM567 969q134 0 247.5 -66.5t180 -180t66.5 -247.5t-66.5 -247.5t-180 -179.5
t-247.5 -66t-247.5 66t-180 179.5t-66.5 247.5t66.5 247.5t180 180t247.5 66.5z" />
    <glyph glyph-name="uni01D3" unicode="&#x1d3;" horiz-adv-x="1316" 
d="M662 1628l253 201l45 -57l-272 -218h-59l-272 218l46 57l252 -201h7zM219 1390v-896q0 -118 59 -219.5t160.5 -160.5t219.5 -59t219.5 59t160.5 160.5t59 219.5v896h73v-896q0 -212 -150 -362t-362 -150t-362 150t-150 362v823h-36v73h109z" />
    <glyph glyph-name="uni01D4" unicode="&#x1d4;" horiz-adv-x="1170" 
d="M588 1189l253 201l45 -57l-272 -218h-59l-272 218l46 57l252 -201h7zM219 951v-73v-567q0 -122 79 -189t214 -67q116 0 216.5 61t161.5 171t61 243v421h73v-878h37v-73h-110v271h-2q-63 -133 -178.5 -211t-258.5 -78q-166 0 -266 88.5t-100 240.5v567h-36v73h109z" />
    <glyph glyph-name="Gcaron" unicode="&#x1e6;" horiz-adv-x="1389" 
d="M771 1628l253 201l45 -57l-272 -218h-59l-272 218l46 57l252 -201h7zM951 585v73h366v-658h-74v170q-91 -81 -213.5 -134.5t-243.5 -53.5q-145 0 -277 56.5t-227.5 152t-152 227.5t-56.5 277t56.5 277t152 227.5t227.5 152t277 56.5q259 0 457 -166v-72h-73v37
q-173 128 -384 128q-130 0 -248.5 -51t-204 -136.5t-136.5 -204t-51 -248.5t51 -248.5t136.5 -204t204 -136.5t248.5 -51q132 0 250 50.5t207 141.5v338h-292z" />
    <glyph glyph-name="gcaron" unicode="&#x1e7;" horiz-adv-x="1024" 
d="M515 1189l253 201l45 -57l-272 -218h-59l-272 218l46 57l252 -201h7zM245 66q-55 -37 -95 -110t-40 -143q0 -80 58 -129.5t187 -49.5h373q103 0 154 41t51 98q0 53 -38 99t-105 62zM188 187q0 -30 55 -44l563 -138q90 -21 145 -87t55 -145q0 -90 -72 -151t-206 -61h-373
q-162 0 -240 71.5t-78 180.5q0 77 36.5 153.5t92.5 128.5q-51 32 -51 92q0 86 125 217q-94 96 -94 227q0 141 108 239.5t258 98.5q68 0 119 -18h356v-73h-224q115 -100 115 -247q0 -140 -108 -239t-258 -99q-118 0 -216 65q-52 -52 -80 -97.5t-28 -73.5zM219 631
q0 -109 85 -187t208 -78t208 78t85 187t-85.5 187t-207.5 78q-123 0 -208 -78t-85 -187z" />
    <glyph glyph-name="uni01E8" unicode="&#x1e8;" horiz-adv-x="1243" 
d="M625 1628l253 201l45 -57l-272 -218h-59l-272 218l46 57l252 -201h7zM223 494l761 896h113v-73h-78l-505 -593l497 -585q32 -38 63 -52t96 -14v-73q-82 0 -127.5 20.5t-87.5 70.5l-491 576l-245 -287v-380h-73v1390h73v-896h4z" />
    <glyph glyph-name="uni01E9" unicode="&#x1e9;" horiz-adv-x="1097" 
d="M588 1555l253 201l45 -57l-272 -218h-59l-272 218l46 57l252 -201h7zM221 300l618 651h112v-73h-81l-332 -353l343 -386q61 -66 143 -66v-73q-114 0 -196 91l-342 381l-267 -284v-188h-73v1317h-36v73h109v-1090h2z" />
    <glyph glyph-name="uni01EA" unicode="&#x1ea;" horiz-adv-x="1572" 
d="M752 -203q0 -35 23.5 -62.5t80.5 -27.5q44 0 78 22l37 -62q-53 -33 -115 -33q-82 0 -130 47t-48 116q0 70 37.5 108.5t121.5 78.5q-16 -2 -51 -2q-145 0 -277 56.5t-227.5 152t-152 227.5t-56.5 277t56.5 277t152 227.5t227.5 152t277 56.5t277 -56.5t227.5 -152
t152 -227.5t56.5 -277q0 -232 -134.5 -416.5t-347.5 -258.5q-38 -22 -86 -47.5t-70 -38t-48 -29.5t-36.5 -30.5t-17.5 -33t-7 -44.5zM146 695q0 -130 51 -248.5t136.5 -204t204 -136.5t248.5 -51t248.5 51t204 136.5t136.5 204t51 248.5t-51 248.5t-136.5 204t-204 136.5
t-248.5 51t-248.5 -51t-204 -136.5t-136.5 -204t-51 -248.5z" />
    <glyph glyph-name="uni01EB" unicode="&#x1eb;" horiz-adv-x="1133" 
d="M146 475q0 -174 123.5 -297t297.5 -123t297 123t123 297t-123 297.5t-297 123.5t-297.5 -123.5t-123.5 -297.5zM567 969q134 0 247.5 -66.5t180 -180t66.5 -247.5q0 -140 -72 -257t-192 -180q-31 -18 -77 -43.5t-65 -36.5t-47.5 -29.5t-39 -29.5t-23.5 -27.5t-16.5 -33.5
t-3.5 -39q0 -35 23.5 -62.5t80.5 -27.5q45 0 79 22l36 -62q-53 -33 -115 -33q-82 0 -129.5 47t-47.5 116q0 65 33.5 105.5t101.5 77.5h-20q-134 0 -247.5 66t-180 179.5t-66.5 247.5t66.5 247.5t180 180t247.5 66.5z" />
    <glyph glyph-name="uni01EC" unicode="&#x1ec;" horiz-adv-x="1572" 
d="M1079 1499h-585v74h585v-74zM752 -203q0 -35 23.5 -62.5t80.5 -27.5q44 0 78 22l37 -62q-53 -33 -115 -33q-82 0 -130 47t-48 116q0 70 37.5 108.5t121.5 78.5q-16 -2 -51 -2q-145 0 -277 56.5t-227.5 152t-152 227.5t-56.5 277t56.5 277t152 227.5t227.5 152t277 56.5
t277 -56.5t227.5 -152t152 -227.5t56.5 -277q0 -232 -134.5 -416.5t-347.5 -258.5q-38 -22 -86 -47.5t-70 -38t-48 -29.5t-36.5 -30.5t-17.5 -33t-7 -44.5zM146 695q0 -130 51 -248.5t136.5 -204t204 -136.5t248.5 -51t248.5 51t204 136.5t136.5 204t51 248.5t-51 248.5
t-136.5 204t-204 136.5t-248.5 51t-248.5 -51t-204 -136.5t-136.5 -204t-51 -248.5z" />
    <glyph glyph-name="uni01ED" unicode="&#x1ed;" horiz-adv-x="1133" 
d="M860 1060h-585v74h585v-74zM146 475q0 -174 123.5 -297t297.5 -123t297 123t123 297t-123 297.5t-297 123.5t-297.5 -123.5t-123.5 -297.5zM567 969q134 0 247.5 -66.5t180 -180t66.5 -247.5q0 -140 -72 -257t-192 -180q-31 -18 -77 -43.5t-65 -36.5t-47.5 -29.5
t-39 -29.5t-23.5 -27.5t-16.5 -33.5t-3.5 -39q0 -35 23.5 -62.5t80.5 -27.5q45 0 79 22l36 -62q-53 -33 -115 -33q-82 0 -129.5 47t-47.5 116q0 65 33.5 105.5t101.5 77.5h-20q-134 0 -247.5 66t-180 179.5t-66.5 247.5t66.5 247.5t180 180t247.5 66.5z" />
    <glyph glyph-name="uni01F4" unicode="&#x1f4;" horiz-adv-x="1389" 
d="M724 1554l-51 52l203 204l53 -51zM951 585v73h366v-658h-74v170q-91 -81 -213.5 -134.5t-243.5 -53.5q-145 0 -277 56.5t-227.5 152t-152 227.5t-56.5 277t56.5 277t152 227.5t227.5 152t277 56.5q259 0 457 -166v-72h-73v37q-173 128 -384 128q-130 0 -248.5 -51
t-204 -136.5t-136.5 -204t-51 -248.5t51 -248.5t136.5 -204t204 -136.5t248.5 -51q132 0 250 50.5t207 141.5v338h-292z" />
    <glyph glyph-name="uni01F5" unicode="&#x1f5;" horiz-adv-x="1024" 
d="M468 1115l-51 52l203 204l53 -51zM245 66q-55 -37 -95 -110t-40 -143q0 -80 58 -129.5t187 -49.5h373q103 0 154 41t51 98q0 53 -38 99t-105 62zM188 187q0 -30 55 -44l563 -138q90 -21 145 -87t55 -145q0 -90 -72 -151t-206 -61h-373q-162 0 -240 71.5t-78 180.5
q0 77 36.5 153.5t92.5 128.5q-51 32 -51 92q0 86 125 217q-94 96 -94 227q0 141 108 239.5t258 98.5q68 0 119 -18h356v-73h-224q115 -100 115 -247q0 -140 -108 -239t-258 -99q-118 0 -216 65q-52 -52 -80 -97.5t-28 -73.5zM219 631q0 -109 85 -187t208 -78t208 78t85 187
t-85.5 187t-207.5 78q-123 0 -208 -78t-85 -187z" />
    <glyph glyph-name="uni0200" unicode="&#x200;" horiz-adv-x="1243" 
d="M848 1554l-203 205l53 51l203 -204zM483 1554l-203 205l53 51l203 -204zM640 1275l-331 -836h666zM1004 366h-724l-145 -366h-80v73h29l529 1333h54l556 -1393l-67 -26z" />
    <glyph glyph-name="uni0201" unicode="&#x201;" horiz-adv-x="1097" 
d="M766 1115l-203 205l53 51l203 -204zM401 1115l-203 205l53 51l203 -204zM878 245v267h-403q-160 0 -244.5 -68.5t-84.5 -160.5q0 -96 96.5 -162t232.5 -66q122 0 240.5 52t162.5 138zM876 150q-70 -80 -180.5 -124t-220.5 -44q-166 0 -284 87.5t-118 213.5
q0 125 107.5 213.5t294.5 88.5h403v55q0 73 -28 125.5t-76.5 79.5t-101.5 39t-114 12q-148 0 -265 -55v-36h-74v80q62 39 154.5 61.5t184.5 22.5q61 0 116 -10.5t106.5 -35t88.5 -61.5t59.5 -94t22.5 -128v-567h36v-73h-109v150h-2z" />
    <glyph glyph-name="uni0218" unicode="&#x218;" horiz-adv-x="1243" 
d="M572 -184q0 26 19 45t45 19t45 -19t19 -45q0 -133 -123 -256l-33 33q73 73 73 162q-19 5 -32 23t-13 38zM146 230q74 -64 208 -119.5t268 -55.5q227 0 351 79.5t124 187.5q0 40 -12.5 76t-33 65t-55.5 56.5t-69 48.5t-86.5 44.5t-96 40.5t-106.5 40q-195 71 -268 108
q-192 98 -219 235q-5 24 -5 50q0 142 136.5 232t339.5 90q116 0 245 -42.5t219 -129.5l11 -11v-68h-73v37q-75 67 -185.5 104t-216.5 37q-170 0 -286.5 -70t-116.5 -179q0 -33 11.5 -62.5t29.5 -53.5t52 -48t65.5 -42t84 -40.5t94.5 -38.5t108 -40q51 -18 77 -28t76 -30
t78 -34.5t70.5 -38.5t67.5 -45.5t54.5 -51.5t45 -61t26.5 -69.5t11 -80.5q0 -149 -150 -244.5t-398 -95.5q-158 0 -310.5 66.5t-227.5 139.5l-11 11v68h73v-37z" />
    <glyph glyph-name="uni0219" unicode="&#x219;" 
d="M425 -184q0 26 19 45t45 19t45 -19t19 -45q0 -133 -123 -256l-33 33q73 73 73 162q-19 5 -32 23t-13 38zM475 542q168 -56 224 -82q154 -74 175 -189q4 -20 4 -42q0 -109 -111 -178t-292 -69q-143 0 -243 44t-152 111l-7 9v55h73v-29q40 -47 120.5 -82t208.5 -35
q160 0 245 53.5t85 120.5q0 37 -17.5 67.5t-43.5 52t-69.5 42t-81.5 34t-93 31.5q-17 5 -25 8q-61 20 -99 34.5t-86.5 40t-76.5 51.5t-47.5 64.5t-19.5 84.5q0 90 100.5 160t228.5 70q199 0 319 -117l11 -11v-55h-74v24q-99 86 -256 86q-105 0 -180.5 -52.5t-75.5 -104.5
q0 -30 14.5 -56t35.5 -44.5t57.5 -37t68.5 -31t80 -28.5z" />
    <glyph glyph-name="uni021A" unicode="&#x21a;" horiz-adv-x="1243" 
d="M572 -166q0 26 19 45t45 19t45 -19t19 -45q0 -133 -123 -256l-33 33q73 73 73 162q-19 5 -32 23t-13 38zM73 1390h1097v-110h-73v37h-439v-1317h-73v1317h-439v-37h-73v110z" />
    <glyph glyph-name="uni021B" unicode="&#x21b;" horiz-adv-x="877" 
d="M389 -184q0 26 19 45t45 19t45 -19t19 -45q0 -133 -123 -256l-33 33q73 73 73 162q-19 5 -32 23t-13 38zM73 878v73h146v219h74v-219h438v-73h-438v-585q0 -99 69 -168.5t168 -69.5q62 0 115.5 30t85.5 81v17h74v-37l-6 -9q-40 -71 -112 -113t-157 -42q-129 0 -220 91
t-91 220v585h-146z" />
    <glyph glyph-name="uni0226" unicode="&#x226;" horiz-adv-x="1243" 
d="M576 1692q0 26 19 45t45 19t45 -19t19 -45t-19 -45t-45 -19t-45 19t-19 45zM640 1275l-331 -836h666zM1004 366h-724l-145 -366h-80v73h29l529 1333h54l556 -1393l-67 -26z" />
    <glyph glyph-name="uni0227" unicode="&#x227;" horiz-adv-x="1097" 
d="M494 1253q0 26 19 45t45 19t45 -19t19 -45t-19 -45t-45 -19t-45 19t-19 45zM878 245v267h-403q-160 0 -244.5 -68.5t-84.5 -160.5q0 -96 96.5 -162t232.5 -66q122 0 240.5 52t162.5 138zM876 150q-70 -80 -180.5 -124t-220.5 -44q-166 0 -284 87.5t-118 213.5
q0 125 107.5 213.5t294.5 88.5h403v55q0 73 -28 125.5t-76.5 79.5t-101.5 39t-114 12q-148 0 -265 -55v-36h-74v80q62 39 154.5 61.5t184.5 22.5q61 0 116 -10.5t106.5 -35t88.5 -61.5t59.5 -94t22.5 -128v-567h36v-73h-109v150h-2z" />
    <glyph glyph-name="uni0237" unicode="&#x237;" horiz-adv-x="329" 
d="M110 951h109v-1116q0 -114 -80 -194t-194 -80q-72 0 -133.5 34.5t-98.5 93.5l-6 9v46h74v-24q29 -39 71.5 -62.5t92.5 -23.5q84 0 142.5 58.5t58.5 142.5v1043h-36v73z" />
    <glyph glyph-name="circumflex" unicode="&#x2c6;" horiz-adv-x="804" 
d="M406 1298h-7l-253 -201l-45 57l272 217h59l272 -217l-46 -57z" />
    <glyph glyph-name="caron" unicode="&#x2c7;" horiz-adv-x="804" 
d="M406 1189l252 201l46 -57l-272 -218h-59l-272 218l45 57l253 -201h7z" />
    <glyph glyph-name="uni02C9" unicode="&#x2c9;" horiz-adv-x="731" 
d="M658 1243h-585v74h585v-74z" />
    <glyph glyph-name="uni02CA" unicode="&#x2ca;" horiz-adv-x="438" 
d="M121 1115l-52 52l203 204l53 -51z" />
    <glyph glyph-name="uni02CB" unicode="&#x2cb;" horiz-adv-x="438" 
d="M294 1115l-203 205l53 51l203 -204z" />
    <glyph glyph-name="breve" unicode="&#x2d8;" horiz-adv-x="585" 
d="M293 1243q147 0 221 112l60 -42q-98 -143 -281 -143q-184 0 -282 143l60 42q74 -112 222 -112z" />
    <glyph glyph-name="dotaccent" unicode="&#x2d9;" horiz-adv-x="292" 
d="M82 1253q0 26 19 45t45 19t45 -19t19 -45t-19 -45t-45 -19t-45 19t-19 45z" />
    <glyph glyph-name="ring" unicode="&#x2da;" horiz-adv-x="512" 
d="M256 1390q68 0 124 -55q59 -57 59 -128t-59 -128q-56 -55 -124 -55q-65 0 -124 57t-59 126q0 71 59 128q56 55 124 55zM256 1335q-45 0 -88 -40q-40 -40 -40 -88t40 -88t88 -40q45 0 88 40q40 40 40 88t-40 88q-43 40 -88 40z" />
    <glyph glyph-name="ogonek" unicode="&#x2db;" horiz-adv-x="512" 
d="M146 -203q0 -35 24 -62.5t81 -27.5q44 0 78 22l37 -62q-53 -33 -115 -33q-82 0 -130 47t-48 116q0 37 12 67t30.5 50.5t52 42t64 36.5t79.5 39.5t86 46.5l22 -42q-30 -17 -76.5 -43.5t-65.5 -37.5t-48 -29.5t-39.5 -29t-23.5 -27.5t-16.5 -34t-3.5 -39z" />
    <glyph glyph-name="tilde" unicode="&#x2dc;" horiz-adv-x="585" 
d="M362 1284q38 -19 62 -19q52 0 62 64l11 50l72 -13l-9 -49q-11 -62 -48.5 -92.5t-87.5 -30.5q-52 0 -88 20l-113 62q-38 19 -62 19q-52 0 -62 -64l-11 -50l-72 13l10 49q11 62 48 92.5t87 30.5q52 0 88 -20z" />
    <glyph glyph-name="hungarumlaut" unicode="&#x2dd;" horiz-adv-x="877" 
d="M605 1115l-53 52l205 204l51 -51zM240 1115l-53 52l204 204l52 -51z" />
    <glyph glyph-name="uni02F5" unicode="&#x2f5;" horiz-adv-x="804" 
d="M684 1115l-203 205l53 51l203 -204zM318 1115l-203 205l53 51l203 -204z" />
    <glyph glyph-name="gravecomb" unicode="&#x300;" horiz-adv-x="0" 
d="M-230 1115l-203 205l53 51l203 -204z" />
    <glyph glyph-name="acutecomb" unicode="&#x301;" horiz-adv-x="0" 
d="M-318 1115l-51 52l203 204l53 -51z" />
    <glyph glyph-name="uni0302" unicode="&#x302;" horiz-adv-x="0" 
d="M-399 1298h-7l-252 -201l-46 57l272 217h59l272 -217l-45 -57z" />
    <glyph glyph-name="tildecomb" unicode="&#x303;" horiz-adv-x="0" 
d="M-223 1284q38 -19 62 -19q52 0 62 64l11 50l72 -13l-10 -49q-11 -62 -48 -92.5t-87 -30.5q-52 0 -88 20l-113 62q-38 19 -62 19q-52 0 -62 -64l-11 -50l-72 13l9 49q11 62 48.5 92.5t87.5 30.5q52 0 88 -20z" />
    <glyph glyph-name="uni0304" unicode="&#x304;" horiz-adv-x="0" 
d="M-73 1243h-585v74h585v-74z" />
    <glyph glyph-name="uni0305" unicode="&#x305;" horiz-adv-x="0" 
d="M0 1243h-731v74h731v-74z" />
    <glyph glyph-name="uni0306" unicode="&#x306;" horiz-adv-x="0" 
d="M-293 1243q148 0 222 112l60 -42q-98 -143 -282 -143q-183 0 -281 143l60 42q74 -112 221 -112z" />
    <glyph glyph-name="uni0307" unicode="&#x307;" horiz-adv-x="0" 
d="M-210 1253q0 26 19 45t45 19t45 -19t19 -45t-19 -45t-45 -19t-45 19t-19 45z" />
    <glyph glyph-name="uni0308" unicode="&#x308;" horiz-adv-x="0" 
d="M-210 1216q0 26 19 45t45 19t45 -19t19 -45t-19 -45t-45 -19t-45 19t-19 45zM-640 1216q0 26 19 45t45 19t45 -19t19 -45t-19 -45t-45 -19t-45 19t-19 45z" />
    <glyph glyph-name="hookabovecomb" unicode="&#x309;" horiz-adv-x="292" 
d="M55 1225q0 38 26.5 65t64.5 27t65 -27t27 -65q0 -69 -29.5 -239t-62.5 -170t-62 170t-29 239z" />
    <glyph glyph-name="uni030A" unicode="&#x30a;" horiz-adv-x="0" 
d="M-256 1390q68 0 124 -55q59 -57 59 -128t-59 -128q-56 -55 -124 -55q-65 0 -124 57t-59 126q0 71 59 128q56 55 124 55zM-256 1335q-45 0 -88 -40q-40 -40 -40 -88t40 -88t88 -40q45 0 88 40q40 40 40 88t-40 88q-43 40 -88 40z" />
    <glyph glyph-name="uni030B" unicode="&#x30b;" horiz-adv-x="0" 
d="M-272 1115l-53 52l204 204l52 -51zM-638 1115l-53 52l205 204l51 -51z" />
    <glyph glyph-name="uni030C" unicode="&#x30c;" horiz-adv-x="0" 
d="M-399 1189l253 201l45 -57l-272 -218h-59l-272 218l46 57l252 -201h7z" />
    <glyph glyph-name="uni030D" unicode="&#x30d;" horiz-adv-x="292" 
d="M55 1225q0 38 26.5 65t64.5 27t65 -27t27 -65t-27 -64.5t-65 -26.5t-64.5 26.5t-26.5 64.5z" />
    <glyph glyph-name="uni030F" unicode="&#x30f;" horiz-adv-x="0" 
d="M-121 1115l-203 205l53 51l203 -204zM-486 1115l-203 205l53 51l203 -204z" />
    <glyph glyph-name="uni0311" unicode="&#x311;" horiz-adv-x="0" 
d="M-293 1280q-148 0 -221 -110l-60 41q97 142 281 142q185 0 282 -142l-60 -41q-73 110 -222 110z" />
    <glyph glyph-name="uni03A9" unicode="&#x3a9;" horiz-adv-x="1536" 
d="M1353 0h-402v135l46 19q175 69 284 226t109 351q0 127 -49 242t-132.5 198.5t-198.5 132.5t-242 49q-126 0 -241 -49.5t-198.5 -133t-133 -198.5t-49.5 -241q0 -194 109 -351t284 -226l46 -19v-135h-402v73h329v11q-195 78 -317 254t-122 393q0 141 55 270t148 222
t222 148t270 55t270 -55t222 -148t148 -222t55 -270q0 -217 -122 -393t-317 -254v-11h329v-73z" />
    <glyph glyph-name="pi" unicode="&#x3c0;" horiz-adv-x="1097" 
d="M1024 951v-73h-146v-732q0 -30 21.5 -51.5t51.5 -21.5h36v-73h-36q-60 0 -103 43t-43 103v732h-512v-878h-74v878h-146v73h951z" />
    <glyph glyph-name="Wgrave" unicode="&#x1e80;" horiz-adv-x="1974" 
d="M1032 1554l-203 205l53 51l203 -204zM55 1317v73h80l468 -1269l348 921v201h73v-201l342 -921l477 1282l70 -26l-520 -1393h-54l-352 947l-356 -947h-55l-492 1333h-29z" />
    <glyph glyph-name="wgrave" unicode="&#x1e81;" horiz-adv-x="1645" 
d="M885 1115l-203 205l53 51l203 -204zM512 106l293 649v159h73v-159l292 -649l386 859l66 -29l-426 -952h-51l-304 674l-303 -674h-52l-400 894h-31v73h78z" />
    <glyph glyph-name="Wacute" unicode="&#x1e82;" horiz-adv-x="1974" 
d="M944 1554l-52 51l203 205l53 -51zM987 927h-1l-355 -962h-55l-492 1352h-29v73h80l467 -1280h3l346 934v199h73v-201l340 -932h4l477 1293l68 -26l-520 -1412h-54z" />
    <glyph glyph-name="wacute" unicode="&#x1e83;" horiz-adv-x="1645" 
d="M797 1115l-51 52l203 204l53 -51zM512 106l293 649v159h73v-159l292 -649l386 859l66 -29l-426 -952h-51l-304 674l-303 -674h-52l-400 894h-31v73h78z" />
    <glyph glyph-name="Wdieresis" unicode="&#x1e84;" horiz-adv-x="1974" 
d="M1143 1655q0 26 19 45t45 19t45 -19t19 -45t-19 -45t-45 -19t-45 19t-19 45zM713 1655q0 26 19 45t45 19t45 -19t19 -45t-19 -45t-45 -19t-45 19t-19 45zM987 927h-1l-355 -962h-55l-492 1352h-29v73h80l467 -1280h3l346 934v199h73v-201l340 -932h4l477 1293l68 -26
l-520 -1412h-54z" />
    <glyph glyph-name="wdieresis" unicode="&#x1e85;" horiz-adv-x="1645" 
d="M997 1216q0 26 19 45t45 19t45 -19t19 -45t-19 -45t-45 -19t-45 19t-19 45zM567 1216q0 26 19 45t45 19t45 -19t19 -45t-19 -45t-45 -19t-45 19t-19 45zM512 106l293 649v159h73v-159l292 -649l386 859l66 -29l-426 -952h-51l-304 674l-303 -674h-52l-400 894h-31v73h78z
" />
    <glyph glyph-name="uni1E86" unicode="&#x1e86;" horiz-adv-x="1974" 
d="M923 1691q0 26 19 45t45 19t45 -19t19 -45t-19 -45t-45 -19t-45 19t-19 45zM987 927h-1l-355 -962h-55l-492 1352h-29v73h80l467 -1280h3l346 934v199h73v-201l340 -932h4l477 1293l68 -26l-520 -1412h-54z" />
    <glyph glyph-name="uni1E87" unicode="&#x1e87;" horiz-adv-x="1645" 
d="M777 1253q0 26 19 45t45 19t45 -19t19 -45t-19 -45t-45 -19t-45 19t-19 45zM512 106l293 649v159h73v-159l292 -649l386 859l66 -29l-426 -952h-51l-304 674l-303 -674h-52l-400 894h-31v73h78z" />
    <glyph glyph-name="uni1E8E" unicode="&#x1e8e;" horiz-adv-x="1243" 
d="M558 1691q0 26 19 45t45 19t45 -19t19 -45t-19 -45t-45 -19t-45 19t-19 45zM624 583l497 825l64 -37l-527 -872v-499h-73v499l-495 818h-35v73h75l490 -807h4z" />
    <glyph glyph-name="uni1E8F" unicode="&#x1e8f;" horiz-adv-x="1097" 
d="M485 1253q0 26 19 45t45 19t45 -19t19 -45t-19 -45t-45 -19t-45 19t-19 45zM1061 903l-553 -1146q-95 -196 -245 -196q-68 0 -127 40t-94 94l-5 9v38h73v-16q28 -39 69 -65.5t84 -26.5q104 0 180 156l65 137l-422 951h-31v73h78l416 -936h1l437 907v29h74v-48z" />
    <glyph glyph-name="uni1E9E" unicode="&#x1e9e;" horiz-adv-x="1316" 
d="M439 177q48 -58 147.5 -90t218.5 -32q99 0 182 22.5t133 65t50 95.5q0 56 -40.5 97.5t-105 68t-142.5 48.5t-155.5 46.5t-142 55t-105 80.5t-40.5 116q0 70 34 123t94.5 83.5t135.5 45.5t164 15q36 0 120 -8v26q0 95 -58.5 165t-148 102.5t-195.5 32.5q-153 0 -259.5 -66
t-106.5 -172v-1097h-73v878h-73v73h73v146q0 76 38.5 137t102 98t140 56.5t158.5 19.5q89 0 172 -23t152 -67t110.5 -117.5t41.5 -165.5v-102h-41q-83 11 -153 11q-52 0 -99.5 -5t-95.5 -19t-82.5 -35t-56 -56t-21.5 -79q0 -51 40.5 -89.5t105 -63t142.5 -46t155.5 -47
t142 -57.5t105 -85.5t40.5 -123.5q0 -114 -124 -185t-314 -71q-130 0 -250.5 39.5t-181.5 121.5l-7 9v49h73v-24z" />
    <glyph glyph-name="Ygrave" unicode="&#x1ef2;" horiz-adv-x="1243" 
d="M666 1554l-203 205l53 51l203 -204zM624 583l493 821l64 -36l-523 -869v-499h-73v499l-495 818h-35v73h75l490 -807h4z" />
    <glyph glyph-name="ygrave" unicode="&#x1ef3;" horiz-adv-x="1097" 
d="M593 1115l-203 205l53 51l203 -204zM1061 903l-553 -1146q-95 -196 -245 -196q-68 0 -127 40t-94 94l-5 9v38h73v-16q28 -39 69 -65.5t84 -26.5q104 0 180 156l65 137l-422 951h-31v73h78l416 -936h1l437 907v29h74v-48z" />
    <glyph glyph-name="uni2000" unicode="&#x2000;" 
 />
    <glyph glyph-name="uni2001" unicode="&#x2001;" horiz-adv-x="1828" 
 />
    <glyph glyph-name="uni2002" unicode="&#x2002;" 
 />
    <glyph glyph-name="uni2003" unicode="&#x2003;" horiz-adv-x="1828" 
 />
    <glyph glyph-name="uni2004" unicode="&#x2004;" horiz-adv-x="658" 
 />
    <glyph glyph-name="uni2005" unicode="&#x2005;" horiz-adv-x="512" 
 />
    <glyph glyph-name="uni2006" unicode="&#x2006;" horiz-adv-x="292" 
 />
    <glyph glyph-name="uni2007" unicode="&#x2007;" horiz-adv-x="1097" 
 />
    <glyph glyph-name="uni2008" unicode="&#x2008;" horiz-adv-x="365" 
 />
    <glyph glyph-name="uni2009" unicode="&#x2009;" horiz-adv-x="365" 
 />
    <glyph glyph-name="uni200A" unicode="&#x200a;" horiz-adv-x="146" 
 />
    <glyph glyph-name="uni200B" unicode="&#x200b;" horiz-adv-x="0" 
 />
    <glyph glyph-name="uni2010" unicode="&#x2010;" horiz-adv-x="658" 
d="M585 512h-512v73h512v-73z" />
    <glyph glyph-name="uni2011" unicode="&#x2011;" horiz-adv-x="658" 
d="M585 512h-512v73h512v-73z" />
    <glyph glyph-name="figuredash" unicode="&#x2012;" horiz-adv-x="1097" 
d="M1024 512h-951v73h951v-73z" />
    <glyph glyph-name="endash" unicode="&#x2013;" 
d="M878 512h-805v73h805v-73z" />
    <glyph glyph-name="emdash" unicode="&#x2014;" horiz-adv-x="1828" 
d="M1755 512h-1682v73h1682v-73z" />
    <glyph glyph-name="uni2015" unicode="&#x2015;" horiz-adv-x="2048" 
d="M1975 512h-1902v73h1902v-73z" />
    <glyph glyph-name="quoteleft" unicode="&#x2018;" horiz-adv-x="365" 
d="M256 1189q0 -26 -19 -45t-45 -19t-45 19t-19 45q0 133 123 256l32 -33q-73 -73 -73 -163q20 -5 33 -22.5t13 -37.5z" />
    <glyph glyph-name="quoteright" unicode="&#x2019;" horiz-adv-x="365" 
d="M110 1381q0 26 19 45t45 19t45 -19t19 -45q0 -133 -123 -256l-33 32q73 73 73 163q-19 5 -32 23t-13 38z" />
    <glyph glyph-name="quotesinglbase" unicode="&#x201a;" horiz-adv-x="365" 
d="M110 46q0 26 19 45t45 19t45 -19t19 -45q0 -133 -123 -256l-33 33q73 73 73 162q-19 5 -32 23t-13 38z" />
    <glyph glyph-name="quotereversed" unicode="&#x201b;" horiz-adv-x="365" 
d="M210 1381q0 -20 -13 -38t-32 -23q0 -90 73 -163l-33 -32q-123 123 -123 256q0 26 19 45t45 19t45 -19t19 -45z" />
    <glyph glyph-name="quotedblleft" unicode="&#x201c;" horiz-adv-x="585" 
d="M256 1189q0 -26 -19 -45t-45 -19t-45 19t-19 45q0 133 123 256l32 -33q-73 -73 -73 -163q20 -5 33 -22.5t13 -37.5zM475 1189q0 -26 -19 -45t-45 -19t-45 19t-19 45q0 133 123 256l33 -33q-73 -73 -73 -163q19 -5 32 -22.5t13 -37.5z" />
    <glyph glyph-name="quotedblright" unicode="&#x201d;" horiz-adv-x="585" 
d="M329 1381q0 26 19 45t45 19t45 -19t19 -45q0 -134 -122 -256l-33 33q73 73 73 162q-19 5 -32.5 23t-13.5 38zM110 1381q0 26 19 45t45 19t45 -19t19 -45q0 -133 -123 -256l-33 33q73 73 73 162q-19 5 -32 23t-13 38z" />
    <glyph glyph-name="quotedblbase" unicode="&#x201e;" horiz-adv-x="585" 
d="M329 46q0 26 19 45t45 19t45 -19t19 -45q0 -134 -122 -256l-33 33q73 73 73 162q-19 5 -32.5 23t-13.5 38zM110 46q0 26 19 45t45 19t45 -19t19 -45q0 -133 -123 -256l-33 33q73 73 73 162q-19 5 -32 23t-13 38z" />
    <glyph glyph-name="uni201F" unicode="&#x201f;" horiz-adv-x="585" 
d="M210 1381q0 -20 -13 -38t-32 -23q0 -90 73 -163l-33 -32q-123 123 -123 256q0 26 19 45t45 19t45 -19t19 -45zM430 1381q0 -20 -13.5 -38t-32.5 -23q0 -90 73 -163l-33 -32q-122 122 -122 256q0 26 19 45t45 19t45 -19t19 -45z" />
    <glyph glyph-name="dagger" unicode="&#x2020;" horiz-adv-x="1097" 
d="M73 859v110l439 -18l-18 439h109l-18 -439l439 18v-110l-439 19l18 -1171h-109l18 1171z" />
    <glyph glyph-name="daggerdbl" unicode="&#x2021;" horiz-adv-x="1097" 
d="M73 859v110l439 -18l-18 439h109l-18 -439l439 18v-110l-439 19v-329v-330l439 19v-110l-439 18l18 -439h-109l18 439l-439 -18v110l439 -19v330v329z" />
    <glyph glyph-name="bullet" unicode="&#x2022;" horiz-adv-x="512" 
d="M73 475q0 76 53.5 129.5t129.5 53.5t129.5 -53.5t53.5 -129.5t-53.5 -129t-129.5 -53t-129.5 53t-53.5 129z" />
    <glyph glyph-name="uni2023" unicode="&#x2023;" horiz-adv-x="438" 
d="M73 658l293 -183l-293 -182v365z" />
    <glyph glyph-name="onedotenleader" unicode="&#x2024;" horiz-adv-x="365" 
d="M110 46q0 26 19 45t45 19t45 -19t19 -45t-19 -45t-45 -19t-45 19t-19 45z" />
    <glyph glyph-name="twodotenleader" unicode="&#x2025;" horiz-adv-x="658" 
d="M402 46q0 26 19 45t45 19t45 -19t19 -45t-19 -45t-45 -19t-45 19t-19 45zM110 46q0 26 19 45t45 19t45 -19t19 -45t-19 -45t-45 -19t-45 19t-19 45z" />
    <glyph glyph-name="ellipsis" unicode="&#x2026;" 
d="M695 46q0 26 19 45t45 19t45 -19t19 -45t-19 -45t-45 -19t-45 19t-19 45zM402 46q0 26 19 45t45 19t45 -19t19 -45t-19 -45t-45 -19t-45 19t-19 45zM110 46q0 26 19 45t45 19t45 -19t19 -45t-19 -45t-45 -19t-45 19t-19 45z" />
    <glyph glyph-name="perthousand" unicode="&#x2030;" horiz-adv-x="1974" 
d="M1143 1267l55 -47l-1024 -1171l-55 48zM585 1061q0 -105 -68 -180.5t-188 -75.5t-188 75.5t-68 180.5q0 104 67.5 180t188.5 76t188.5 -76t67.5 -180zM329 1243q-89 0 -136 -54t-47 -128q0 -75 47 -129t136 -54t136 54t47 129t-46.5 128.5t-136.5 53.5zM1243 256
q0 -105 -68 -180.5t-188 -75.5t-188 75.5t-68 180.5q0 104 67.5 180t188.5 76t188.5 -76t67.5 -180zM987 439q-89 0 -135.5 -54.5t-46.5 -128.5q0 -75 46.5 -129t135.5 -54t136 54t47 129t-46.5 129t-136.5 54zM1902 256q0 -105 -68 -180.5t-188 -75.5t-188 75.5t-68 180.5
q0 104 68 180t188 76t188 -76t68 -180zM1646 439q-89 0 -136 -54.5t-47 -128.5q0 -75 47 -129t136 -54t136 54t47 129t-46.5 129t-136.5 54z" />
    <glyph glyph-name="guilsinglleft" unicode="&#x2039;" horiz-adv-x="438" 
d="M128 477v-5l238 -287l-57 -46l-254 307v59l254 311l57 -48z" />
    <glyph glyph-name="guilsinglright" unicode="&#x203a;" horiz-adv-x="438" 
d="M311 477l-238 291l57 48l254 -311v-59l-254 -307l-57 46l238 287v5z" />
    <glyph glyph-name="fraction" unicode="&#x2044;" horiz-adv-x="219" 
d="M594 1267l55 -47l-1024 -1171l-55 48z" />
    <glyph glyph-name="uni2070" unicode="&#x2070;" horiz-adv-x="731" 
d="M658 1280q0 -109 -36 -205t-104 -155.5t-152 -59.5t-152 59.5t-104.5 155.5t-36.5 205t36.5 205t104.5 156t152 60t152 -60t104 -156t36 -205zM366 1628q-61 0 -112 -49t-79.5 -129t-28.5 -170q0 -141 64 -244t156 -103q61 0 112 49t79 128.5t28 169.5q0 141 -63.5 244.5
t-155.5 103.5z" />
    <glyph glyph-name="uni2074" unicode="&#x2074;" horiz-adv-x="658" 
d="M439 1390h73v-292h73v-74h-73v-146h-73v146h-402v61l5 9q151 229 207 350t56 239h74q0 -128 -54.5 -252.5t-191.5 -332.5h306v292z" />
    <glyph glyph-name="uni2075" unicode="&#x2075;" horiz-adv-x="658" 
d="M73 1275q3 62 12 186.5t12 186.5l2 35h431v-114h-73v41h-289l-14 -214q84 67 175 67q106 0 181 -88.5t75 -212.5q0 -125 -78 -213.5t-187 -88.5q-68 0 -138 36.5t-105 100.5l-4 9v9v24h73v-15q26 -40 75.5 -65.5t98.5 -25.5q79 0 135.5 67t56.5 162q0 94 -53.5 161
t-129.5 67q-52 0 -110 -37.5t-75 -90.5z" />
    <glyph glyph-name="uni2076" unicode="&#x2076;" horiz-adv-x="658" 
d="M146 1152q0 -92 57.5 -155.5t136.5 -63.5q69 0 120.5 62.5t51.5 156.5t-51.5 157t-120.5 63q-79 0 -136.5 -64t-57.5 -156zM340 1445q104 0 174.5 -87t70.5 -206t-70.5 -205.5t-174.5 -86.5q-112 0 -189.5 86t-77.5 206v42q0 45 1 81t7 91t15.5 97.5t29 89t45.5 77.5
t66.5 51t91.5 20q126 0 205 -102l7 -10v-40h-73v15q-56 64 -139 64q-154 0 -183 -274q79 91 194 91z" />
    <glyph glyph-name="uni2077" unicode="&#x2077;" horiz-adv-x="585" 
d="M37 1683h519v-61l-106 -142q-157 -214 -157 -602h-74q0 411 172 646l64 86h-347v-37h-71v110z" />
    <glyph glyph-name="uni2078" unicode="&#x2078;" horiz-adv-x="658" 
d="M541 1494q0 -51 -29 -95t-77 -71v-2q68 -29 109 -87t41 -129q0 -104 -75 -177t-181 -73t-181 73t-75 177q0 71 41 129t109 87v2q-48 27 -77 71t-29 95q0 86 62 146.5t150 60.5t150 -60.5t62 -146.5zM512 1110q0 73 -53.5 125.5t-129.5 52.5t-129.5 -52.5t-53.5 -125.5
t53.5 -125t129.5 -52t129.5 52t53.5 125zM190 1494q0 -55 40.5 -94t98.5 -39t98.5 39t40.5 94t-40.5 94.5t-98.5 39.5t-98.5 -39.5t-40.5 -94.5z" />
    <glyph glyph-name="uni2079" unicode="&#x2079;" horiz-adv-x="658" 
d="M512 1408q0 92 -57.5 156t-136.5 64q-69 0 -120.5 -63t-51.5 -157t51.5 -156.5t120.5 -62.5q79 0 136.5 63.5t57.5 155.5zM318 1116q-104 0 -174.5 86.5t-70.5 205.5t70.5 206t174.5 87q112 0 189.5 -86.5t77.5 -206.5v-42q0 -45 -1 -81t-7 -91t-15.5 -97t-29 -89
t-45.5 -77.5t-66.5 -50.5t-91.5 -20q-126 0 -205 102l-7 9v41h73v-15q56 -64 139 -64q154 0 183 274q-79 -91 -194 -91z" />
    <glyph glyph-name="uni2080" unicode="&#x2080;" horiz-adv-x="731" 
d="M658 -37q0 -109 -36 -205t-104 -155.5t-152 -59.5t-152 59.5t-104.5 155.5t-36.5 205t36.5 205t104.5 156t152 60t152 -60t104 -156t36 -205zM366 311q-61 0 -112 -49t-79.5 -129t-28.5 -170q0 -141 64 -244t156 -103q61 0 112 49t79 128.5t28 169.5q0 141 -63.5 244.5
t-155.5 103.5z" />
    <glyph glyph-name="uni2081" unicode="&#x2081;" horiz-adv-x="365" 
d="M146 245l-34 -38l-55 47l98 112h64v-805h-73v684z" />
    <glyph glyph-name="uni2082" unicode="&#x2082;" horiz-adv-x="658" 
d="M585 -439h-512v62l285 262q87 80 120.5 135t33.5 106v2q0 76 -53.5 129.5t-129.5 53.5t-129.5 -53.5t-53.5 -129.5h-73q0 106 75 181t181 75t181 -75t75 -181v-2q0 -70 -41.5 -140t-135.5 -156l-214 -196h318v33h73v-106z" />
    <glyph glyph-name="uni2083" unicode="&#x2083;" horiz-adv-x="658" 
d="M146 -207q0 -73 53.5 -125t129.5 -52t129.5 52t53.5 125t-53.5 125.5t-129.5 52.5v73q58 0 98.5 39t40.5 94t-40.5 94.5t-98.5 39.5t-98.5 -39.5t-40.5 -94.5h-73q0 86 62 146.5t150 60.5t150 -60.5t62 -146.5q0 -51 -29 -95t-77 -71v-2q68 -29 109 -87t41 -129
q0 -104 -75 -177t-181 -73t-181 73t-75 177h73z" />
    <glyph glyph-name="uni2084" unicode="&#x2084;" horiz-adv-x="658" 
d="M439 73h73v-292h73v-74h-73v-146h-73v146h-402v61l5 9q151 229 207 350t56 239h74q0 -128 -54.5 -252.5t-191.5 -332.5h306v292z" />
    <glyph glyph-name="uni2085" unicode="&#x2085;" horiz-adv-x="658" 
d="M73 -42q3 62 12 186.5t12 186.5l2 35h431v-114h-73v41h-289l-14 -214q84 67 175 67q106 0 181 -88.5t75 -212.5q0 -125 -78 -213.5t-187 -88.5q-68 0 -138 36.5t-105 100.5l-4 9v9v24h73v-15q26 -40 75.5 -65.5t98.5 -25.5q79 0 135.5 67t56.5 162q0 94 -53.5 161
t-129.5 67q-52 0 -110 -37.5t-75 -90.5z" />
    <glyph glyph-name="uni2086" unicode="&#x2086;" horiz-adv-x="658" 
d="M146 -165q0 -92 57.5 -155.5t136.5 -63.5q69 0 120.5 62.5t51.5 156.5t-51.5 157t-120.5 63q-79 0 -136.5 -64t-57.5 -156zM340 128q104 0 174.5 -87t70.5 -206t-70.5 -205.5t-174.5 -86.5q-112 0 -189.5 86t-77.5 206v42q0 45 1 81t7 91t15.5 97.5t29 89t45.5 77.5
t66.5 51t91.5 20q126 0 205 -102l7 -10v-40h-73v15q-56 64 -139 64q-154 0 -183 -274q79 91 194 91z" />
    <glyph glyph-name="uni2087" unicode="&#x2087;" horiz-adv-x="585" 
d="M37 366h519v-61l-106 -142q-157 -214 -157 -602h-74q0 411 172 646l64 86h-347v-37h-71v110z" />
    <glyph glyph-name="uni2088" unicode="&#x2088;" horiz-adv-x="658" 
d="M541 177q0 -51 -29 -95t-77 -71v-2q68 -29 109 -87t41 -129q0 -104 -75 -177t-181 -73t-181 73t-75 177q0 71 41 129t109 87v2q-48 27 -77 71t-29 95q0 86 62 146.5t150 60.5t150 -60.5t62 -146.5zM512 -207q0 73 -53.5 125.5t-129.5 52.5t-129.5 -52.5t-53.5 -125.5
t53.5 -125t129.5 -52t129.5 52t53.5 125zM190 177q0 -55 40.5 -94t98.5 -39t98.5 39t40.5 94t-40.5 94.5t-98.5 39.5t-98.5 -39.5t-40.5 -94.5z" />
    <glyph glyph-name="uni2089" unicode="&#x2089;" horiz-adv-x="658" 
d="M512 91q0 92 -57.5 156t-136.5 64q-69 0 -120.5 -63t-51.5 -157t51.5 -156.5t120.5 -62.5q79 0 136.5 63.5t57.5 155.5zM318 -201q-104 0 -174.5 86.5t-70.5 205.5t70.5 206t174.5 87q112 0 189.5 -86.5t77.5 -206.5v-42q0 -45 -1 -81t-7 -91t-15.5 -97t-29 -89
t-45.5 -77.5t-66.5 -50.5t-91.5 -20q-126 0 -205 102l-7 9v41h73v-15q56 -64 139 -64q154 0 183 274q-79 -91 -194 -91z" />
    <glyph glyph-name="Euro" unicode="&#x20ac;" horiz-adv-x="1389" 
d="M245 512q60 -208 235 -341.5t398 -133.5q212 0 380 120l44 -58q-193 -136 -424 -136q-253 0 -450 155t-258 394h-133l9 73h108q-8 59 -8 110v36h-73l9 74h72q40 266 245 443.5t479 177.5q237 0 424 -135l15 -11v-73h-74v35q-167 111 -365 111q-243 0 -426 -156.5
t-223 -391.5h749l-9 -74h-748q0 -7 -1 -18t-1 -18q0 -36 10 -110h713l-9 -73h-688z" />
    <glyph glyph-name="trademark" unicode="&#x2122;" horiz-adv-x="2048" 
d="M805 1390v-73h-293v-805h-73v805h-293v73h659zM1337 490l-342 741l-86 -719h-66v73h2l97 810h56l372 -804l371 804h56l114 -865l-71 -9l-94 711l-342 -742h-67z" />
    <glyph glyph-name="Omega" unicode="&#x2126;" horiz-adv-x="1536" 
d="M1390 0h-439v135l46 19q175 69 284 226t109 351q0 127 -49 242t-132.5 198.5t-198.5 132.5t-242 49q-126 0 -241 -49.5t-198.5 -133t-133 -198.5t-49.5 -241q0 -194 109 -351t284 -226l46 -19v-135h-439v73h366v11q-195 78 -317 254t-122 393q0 141 55 270t148 222
t222 148t270 55t270 -55t222 -148t148 -222t55 -270q0 -217 -122 -393t-317 -254v-11h366v-73z" />
    <glyph glyph-name="arrowleft" unicode="&#x2190;" horiz-adv-x="1462" 
d="M176 512h1214v-73h-1214l208 -256l-57 -46l-254 309v59l254 309l57 -46z" />
    <glyph glyph-name="arrowup" unicode="&#x2191;" horiz-adv-x="804" 
d="M439 1214v-1214h-73v1214l-256 -208l-46 56l309 255h59l309 -255l-46 -56z" />
    <glyph glyph-name="arrowright" unicode="&#x2192;" horiz-adv-x="1462" 
d="M73 439v73h1214l-208 256l57 46l254 -309v-59l-254 -309l-57 46l208 256h-1214z" />
    <glyph glyph-name="arrowdown" unicode="&#x2193;" horiz-adv-x="804" 
d="M366 1317h73v-1215l256 209l46 -57l-309 -254h-59l-309 254l46 57l256 -209v1215z" />
    <glyph glyph-name="arrowboth" unicode="&#x2194;" horiz-adv-x="1462" 
d="M1287 439h-1111l208 -256l-57 -46l-254 309v59l254 309l57 -46l-208 -256h1111l-208 256l57 46l254 -309v-59l-254 -309l-57 46z" />
    <glyph glyph-name="arrowupdn" unicode="&#x2195;" horiz-adv-x="804" 
d="M439 1214v-1112l256 209l46 -57l-309 -254h-59l-309 254l46 57l256 -209v1112l-256 -208l-46 56l309 255h59l309 -255l-46 -56z" />
    <glyph glyph-name="arrowdblleft" unicode="&#x21d0;" horiz-adv-x="1462" 
d="M146 477v-3l88 -108h1156v-73h-1096l90 -110l-57 -46l-254 309v59l254 309l57 -46l-90 -110h1096v-73h-1156z" />
    <glyph glyph-name="arrowdblup" unicode="&#x21d1;" horiz-adv-x="804" 
d="M404 1243h-4l-107 -87v-1156h-74v1095l-109 -89l-46 56l309 255h59l309 -255l-46 -56l-110 89v-1095h-73v1156z" />
    <glyph glyph-name="arrowdblright" unicode="&#x21d2;" horiz-adv-x="1462" 
d="M1168 658l-89 110l57 46l254 -309v-59l-254 -309l-57 46l89 110h-1095v73h1156l88 108v3l-88 108h-1156v73h1095z" />
    <glyph glyph-name="arrowdbldown" unicode="&#x21d3;" horiz-adv-x="804" 
d="M585 221l110 90l46 -57l-309 -254h-59l-309 254l46 57l109 -90v1096h74v-1156l107 -88h4l108 88v1156h73v-1096z" />
    <glyph glyph-name="arrowdblboth" unicode="&#x21d4;" horiz-adv-x="1462" 
d="M1168 658zM1168 293zM1229 585h-995l-88 -108v-3l88 -108h995l88 108v3zM1168 658l-89 110l57 46l254 -309v-59l-254 -309l-57 46l89 110h-874l90 -110l-57 -46l-254 309v59l254 309l57 -46l-90 -110h874z" />
    <glyph glyph-name="uni21D5" unicode="&#x21d5;" horiz-adv-x="804" 
d="M585 1095v-874l110 90l46 -57l-309 -254h-59l-309 254l46 57l109 -90v874l-109 -89l-46 56l309 255h59l309 -255l-46 -56zM404 1243h-4l-107 -87v-995l107 -88h4l108 88v995z" />
    <glyph glyph-name="partialdiff" unicode="&#x2202;" 
d="M481 914q-57 0 -114.5 -30.5t-107.5 -87.5t-81.5 -151t-31.5 -208q0 -97 26 -176t68.5 -126.5t93 -72.5t101.5 -25q170 0 270 165.5t100 444.5q0 79 -4 117q-73 68 -162 109t-158 41zM786 874q-14 87 -38.5 158t-61 128t-88.5 88.5t-115 31.5q-76 0 -150 -51v-22h-73
l3 58l13 11q100 77 210 77q74 0 135.5 -31t103 -85.5t72.5 -123t48 -150t25 -159t8 -157.5q0 -308 -121.5 -496t-324.5 -188q-69 0 -133 32t-114.5 90t-81 148.5t-30.5 199.5q0 127 36.5 234t96 175.5t132.5 106.5t148 38q68 0 148 -30.5t152 -82.5z" />
    <glyph glyph-name="emptyset" unicode="&#x2205;" horiz-adv-x="1462" 
d="M208 84l-51 51l84 84q-80 90 -124 202.5t-44 236.5q0 134 52 256t140 210.5t210 140.5t256 52q251 0 441 -169l82 83l52 -52l-83 -82q167 -188 167 -439q0 -134 -52 -256t-140.5 -210t-210.5 -140t-256 -52q-249 0 -438 168zM1170 1044l-826 -825q164 -146 387 -146
q159 0 294 78t213.5 213t78.5 294q0 221 -147 386zM1119 1097q-164 146 -388 146q-119 0 -227.5 -46t-187 -124.5t-124.5 -187t-46 -227.5q0 -222 147 -387z" />
    <glyph glyph-name="Delta" unicode="&#x2206;" horiz-adv-x="1024" 
d="M571 1170l398 -1170h-914l398 1170h118zM516 1097h-8l-353 -1024h714z" />
    <glyph glyph-name="uni220A" unicode="&#x220a;" 
d="M221 512h584v-73h-584q13 -124 107.5 -207.5t220.5 -85.5h256v-73h-256q-166 2 -284.5 119.5t-118.5 282.5q0 166 118.5 284.5t284.5 118.5h256v-73h-256q-126 0 -220 -84.5t-108 -208.5z" />
    <glyph glyph-name="product" unicode="&#x220f;" horiz-adv-x="1243" 
d="M73 -366v1756h1097v-1756h-73v1683h-951v-1683h-73z" />
    <glyph glyph-name="summation" unicode="&#x2211;" horiz-adv-x="1243" 
d="M1170 -256v-110h-1097v62l739 816l-739 816v62h1097v-110h-73v37h-914l706 -781v-48l-706 -781h914v37h73z" />
    <glyph glyph-name="minus" unicode="&#x2212;" 
d="M878 658h-805v73h805v-73z" />
    <glyph glyph-name="radical" unicode="&#x221a;" horiz-adv-x="1024" 
d="M55 379l228 58l123 -344l410 1370h208v-73h-154l-427 -1430h-66l-141 391l-163 -42z" />
    <glyph glyph-name="infinity" unicode="&#x221e;" horiz-adv-x="2048" 
d="M973 512l-11 11q-9 9 -39 39.5t-41 41.5t-40 37.5t-44 38t-43.5 33.5t-48.5 31.5t-50 24t-56.5 20.5t-59 11t-65.5 5q-153 0 -241 -82.5t-88 -210.5q0 -127 87.5 -210t241.5 -83q33 0 65.5 5t58.5 11t56.5 21t49.5 23.5t49 31.5t43.5 33t44 38.5t40 37.5t41.5 41.5
t39 39.5zM1075 512l11 -11q7 -7 39 -39.5t41.5 -41.5t40 -37.5t44 -38.5t43.5 -33t49 -31.5t49.5 -23.5t56.5 -21t58.5 -11t65.5 -5q154 0 241.5 83t87.5 210q0 128 -88 210.5t-241 82.5q-33 0 -65.5 -5t-59 -11t-56.5 -20.5t-50 -24t-48.5 -31.5t-43.5 -33.5t-44 -38
t-40 -37.5t-41 -41.5t-39 -39.5zM1013 450q-9 -9 -41.5 -42.5t-46.5 -47t-47 -44t-54.5 -45t-56 -38.5t-64.5 -36.5t-67.5 -26t-77.5 -19t-83 -5.5q-185 0 -293.5 105t-108.5 261t109 261t293 105q43 0 83 -5.5t77.5 -19t67.5 -26t64.5 -36.5t56 -38.5t54.5 -45t47 -44
t46.5 -47t41.5 -42.5l11 -11l11 11q9 9 41.5 42.5t46.5 47t47 44t54.5 45t56 38.5t64.5 36.5t67.5 26t77.5 19t83 5.5q184 0 293 -105t109 -261t-108.5 -261t-293.5 -105q-43 0 -83 5.5t-77.5 19t-67.5 26t-64.5 36.5t-56 38.5t-54.5 45t-47 44t-46.5 47t-41.5 42.5l-11 11z
" />
    <glyph glyph-name="logicaland" unicode="&#x2227;" horiz-adv-x="1024" 
d="M514 731h-4l-369 -603l-62 37l391 640h84l391 -640l-62 -37z" />
    <glyph glyph-name="logicalor" unicode="&#x2228;" horiz-adv-x="1024" 
d="M945 786l-391 -640h-84l-391 640l62 37l369 -604h4l369 604z" />
    <glyph glyph-name="intersection" unicode="&#x2229;" 
d="M73 400q2 166 119.5 284.5t282.5 118.5q166 0 284.5 -118.5t118.5 -284.5v-256h-73v256q0 136 -97 233t-233 97q-135 0 -231 -97t-98 -233v-256h-73v256z" />
    <glyph glyph-name="union" unicode="&#x222a;" 
d="M146 549q2 -136 98 -233t231 -97q136 0 233 97t97 233v256h73v-256q0 -166 -118.5 -284.5t-284.5 -118.5q-165 0 -282.5 118.5t-119.5 284.5v256h73v-256z" />
    <glyph glyph-name="integral" unicode="&#x222b;" horiz-adv-x="736" 
d="M192 -293q41 0 69.5 29.5t31.5 73.5l73 1554q3 72 52.5 122t120.5 50q58 0 103 -33l-44 -58q-25 18 -59 18q-41 0 -69 -29t-31 -74l-73 -1554q-3 -72 -53 -122t-121 -50q-57 0 -102 33l43 59q26 -19 59 -19z" />
    <glyph glyph-name="uni222C" unicode="&#x222c;" horiz-adv-x="1097" 
d="M558 -293q41 0 69 29t31 74l73 1554q3 72 53 122t121 50q58 0 103 -33l-44 -58q-25 18 -59 18q-41 0 -69 -29t-31 -74l-74 -1554q-3 -72 -52.5 -122t-120.5 -50q-58 0 -103 33l44 59q26 -19 59 -19zM177 -293q41 0 69.5 29.5t31.5 73.5l73 1554q3 72 53 122t121 50
q57 0 102 -33l-44 -58q-25 18 -58 18q-41 0 -69.5 -29.5t-31.5 -73.5l-73 -1554q-3 -72 -53 -122t-121 -50q-57 0 -102 33l44 59q26 -19 58 -19z" />
    <glyph glyph-name="uni222D" unicode="&#x222d;" horiz-adv-x="1466" 
d="M192 -293q41 0 69.5 29.5t31.5 73.5l73 1554q3 72 52.5 122t120.5 50q58 0 103 -33l-44 -58q-25 18 -59 18q-41 0 -69 -29t-31 -74l-73 -1554q-3 -72 -53 -122t-121 -50q-57 0 -102 33l43 59q26 -19 59 -19zM558 -293q41 0 69 29t31 74l73 1554q3 72 53 122t121 50
q58 0 103 -33l-44 -58q-25 18 -59 18q-41 0 -69 -29t-31 -74l-74 -1554q-3 -72 -52.5 -122t-120.5 -50q-58 0 -103 33l44 59q26 -19 59 -19zM923 -293q41 0 69.5 29.5t31.5 73.5l73 1554q3 72 53 122t121 50q57 0 102 -33l-44 -58q-25 18 -58 18q-41 0 -69.5 -29.5
t-31.5 -73.5l-73 -1554q-3 -72 -53 -122t-121 -50q-57 0 -102 33l44 59q26 -19 58 -19z" />
    <glyph glyph-name="similar" unicode="&#x223c;" horiz-adv-x="804" 
d="M602 607q-32 0 -90 22l-245 84q-54 18 -64 18q-3 0 -9 -3q-38 -17 -57 -73l-69 22q31 91 97 118q24 10 38 10q19 0 90 -22l245 -84q57 -19 64 -19q1 0 9 4q35 16 56 75l70 -24q-32 -88 -97 -117q-24 -11 -38 -11z" />
    <glyph glyph-name="uni223D" unicode="&#x223d;" horiz-adv-x="804" 
d="M203 607q-14 0 -38 11q-65 29 -97 117l69 24q20 -58 57 -75q8 -4 9 -4q7 0 64 19l245 84q71 22 90 22q14 0 38 -10q66 -27 97 -118l-70 -22q-19 57 -56 73q-6 3 -9 3q-10 0 -64 -18l-245 -84q-58 -22 -90 -22z" />
    <glyph glyph-name="approxequal" unicode="&#x2248;" horiz-adv-x="804" 
d="M208 900q30 0 88 -22l245 -81q48 -14 57 -14t16.5 1.5t13 4t11 7t9 8t6.5 9t5 9.5t4 10t2.5 8.5t2 7.5t1.5 6l73 -13q-11 -61 -49 -96.5t-95 -35.5q-24 0 -90 22l-245 81q-47 15 -55 15q-27 0 -44.5 -15.5t-21 -26.5t-7.5 -28l-73 11q11 65 51 98.5t95 33.5zM208 581
q33 0 88 -21l245 -85q48 -14 57 -14q10 0 18 2t14.5 5.5t11.5 7.5t9 10.5t6.5 10.5t4.5 11t3 10t3 10l1 6l73 -13q-11 -61 -49 -97t-95 -36q-24 0 -90 22l-245 84q-44 14 -55 14q-57 0 -73 -73l-73 13q11 65 51 99t95 34z" />
    <glyph glyph-name="notequal" unicode="&#x2260;" 
d="M252 201l-65 37l118 201h-232v73h274l172 293h-446v73h488l138 237l65 -36l-119 -201h233v-73h-275l-171 -293h446v-73h-489z" />
    <glyph glyph-name="lessequal" unicode="&#x2264;" horiz-adv-x="658" 
d="M622 318l-42 -60l-507 360v82l508 346l41 -62l-476 -322v-7zM622 73h-549v73h549v-73z" />
    <glyph glyph-name="greaterequal" unicode="&#x2265;" horiz-adv-x="658" 
d="M73 318l476 337v7l-476 322l40 62l509 -346v-82l-507 -360zM73 73v73h549v-73h-549z" />
    <glyph glyph-name="propersubset" unicode="&#x2282;" 
d="M549 73q-166 2 -284.5 119.5t-118.5 282.5q0 166 118.5 284.5t284.5 118.5h256v-73h-256q-136 0 -233 -97t-97 -233q0 -135 97 -231t233 -98h256v-73h-256z" />
    <glyph glyph-name="uni22C0" unicode="&#x22c0;" horiz-adv-x="1462" 
d="M735 1317h-7l-584 -1677l-69 25l602 1725h109l602 -1725l-70 -25z" />
    <glyph glyph-name="uni22C1" unicode="&#x22c1;" horiz-adv-x="1462" 
d="M1388 1359l-602 -1725h-109l-602 1725l69 25l584 -1677h7l583 1677z" />
    <glyph glyph-name="uni2300" unicode="&#x2300;" horiz-adv-x="1170" 
d="M944 1068l51 -51l-75 -75q104 -121 104 -284q0 -118 -59 -219.5t-160.5 -160.5t-219.5 -59q-161 0 -283 105l-75 -75l-51 51l75 75q-105 123 -105 283q0 118 59 219.5t160.5 160.5t219.5 59q163 0 284 -104zM817 942q-103 82 -232 82q-151 0 -258.5 -107.5t-107.5 -258.5
q0 -128 83 -232zM869 891l-516 -516q103 -82 232 -82q151 0 258.5 107t107.5 258q0 130 -82 233z" />
    <glyph glyph-name="lozenge" unicode="&#x25ca;" horiz-adv-x="877" 
d="M479 1390l327 -695l-327 -695h-80l-328 695l328 695h80zM439 88l287 607l-287 607l-287 -607z" />
    <glyph glyph-name="uniE000" unicode="&#xe000;" horiz-adv-x="877" 
d="M73 878v73h146v219h74v-219h512v-73h-512v-585q0 -99 69 -168.5t168 -69.5q62 0 115.5 30t85.5 81v17h74v-37l-6 -9q-40 -71 -112 -113t-157 -42q-129 0 -220 91t-91 220v585h-146z" />
    <glyph glyph-name="uniE001" unicode="&#xe001;" horiz-adv-x="658" 
d="M658 1381v-64h-73v11q-31 7 -55 7q-99 0 -168 -69.5t-69 -168.5v-146h292v-73h-292v-878h-74v878h-146v73h146v146q0 129 91 220t220 91q70 0 128 -27z" />
    <glyph glyph-name="uniE002" unicode="&#xe002;" horiz-adv-x="731" 
d="M658 329q0 -109 -36 -205t-104 -155.5t-152 -59.5t-152 59.5t-104.5 155.5t-36.5 205t36.5 205t104.5 156t152 60t152 -60t104 -156t36 -205zM366 677q-61 0 -112 -49t-79.5 -129t-28.5 -170q0 -141 64 -244t156 -103q61 0 112 49t79 128.5t28 169.5q0 141 -63.5 244.5
t-155.5 103.5z" />
    <glyph glyph-name="uniE003" unicode="&#xe003;" horiz-adv-x="365" 
d="M146 611l-34 -38l-55 47l98 112h64v-805h-73v684z" />
    <glyph glyph-name="uniE004" unicode="&#xe004;" horiz-adv-x="658" 
d="M585 -73h-512v62l285 262q87 80 120.5 135t33.5 106v2q0 76 -53.5 129.5t-129.5 53.5t-129.5 -53.5t-53.5 -129.5h-73q0 106 75 181t181 75t181 -75t75 -181v-2q0 -70 -41.5 -140t-135.5 -156l-214 -196h318v33h73v-106z" />
    <glyph glyph-name="uniE005" unicode="&#xe005;" horiz-adv-x="658" 
d="M146 159q0 -73 53.5 -125t129.5 -52t129.5 52t53.5 125t-53.5 125.5t-129.5 52.5v73q58 0 98.5 39t40.5 94t-40.5 94.5t-98.5 39.5t-98.5 -39.5t-40.5 -94.5h-73q0 86 62 146.5t150 60.5t150 -60.5t62 -146.5q0 -51 -29 -95t-77 -71v-2q68 -29 109 -87t41 -129
q0 -104 -75 -177t-181 -73t-181 73t-75 177h73z" />
    <glyph glyph-name="uniE006" unicode="&#xe006;" horiz-adv-x="658" 
d="M439 439h73v-292h73v-74h-73v-146h-73v146h-402v61l5 9q151 229 207 350t56 239h74q0 -128 -54.5 -252.5t-191.5 -332.5h306v292z" />
    <glyph glyph-name="uniE007" unicode="&#xe007;" horiz-adv-x="658" 
d="M73 324q3 62 12 186.5t12 186.5l2 35h431v-114h-73v41h-289l-14 -214q84 67 175 67q106 0 181 -88.5t75 -212.5q0 -125 -78 -213.5t-187 -88.5q-68 0 -138 36.5t-105 100.5l-4 9v9v24h73v-15q26 -40 75.5 -65.5t98.5 -25.5q79 0 135.5 67t56.5 162q0 94 -53.5 161
t-129.5 67q-52 0 -110 -37.5t-75 -90.5z" />
    <glyph glyph-name="uniE008" unicode="&#xe008;" horiz-adv-x="658" 
d="M146 201q0 -92 57.5 -155.5t136.5 -63.5q69 0 120.5 62.5t51.5 156.5t-51.5 157t-120.5 63q-79 0 -136.5 -64t-57.5 -156zM340 494q104 0 174.5 -87t70.5 -206t-70.5 -205.5t-174.5 -86.5q-112 0 -189.5 86t-77.5 206v42q0 45 1 81t7 91t15.5 97.5t29 89t45.5 77.5
t66.5 51t91.5 20q126 0 205 -102l7 -10v-40h-73v15q-56 64 -139 64q-154 0 -183 -274q79 91 194 91z" />
    <glyph glyph-name="uniE009" unicode="&#xe009;" horiz-adv-x="585" 
d="M37 732h519v-61l-106 -142q-157 -214 -157 -602h-74q0 411 172 646l64 86h-347v-37h-71v110z" />
    <glyph glyph-name="uniE00A" unicode="&#xe00a;" horiz-adv-x="658" 
d="M541 543q0 -51 -29 -95t-77 -71v-2q68 -29 109 -87t41 -129q0 -104 -75 -177t-181 -73t-181 73t-75 177q0 71 41 129t109 87v2q-48 27 -77 71t-29 95q0 86 62 146.5t150 60.5t150 -60.5t62 -146.5zM512 159q0 73 -53.5 125.5t-129.5 52.5t-129.5 -52.5t-53.5 -125.5
t53.5 -125t129.5 -52t129.5 52t53.5 125zM190 543q0 -55 40.5 -94t98.5 -39t98.5 39t40.5 94t-40.5 94.5t-98.5 39.5t-98.5 -39.5t-40.5 -94.5z" />
    <glyph glyph-name="uniE00B" unicode="&#xe00b;" horiz-adv-x="658" 
d="M512 457q0 92 -57.5 156t-136.5 64q-69 0 -120.5 -63t-51.5 -157t51.5 -156.5t120.5 -62.5q79 0 136.5 63.5t57.5 155.5zM318 165q-104 0 -174.5 86.5t-70.5 205.5t70.5 206t174.5 87q112 0 189.5 -86.5t77.5 -206.5v-42q0 -45 -1 -81t-7 -91t-15.5 -97t-29 -89
t-45.5 -77.5t-66.5 -50.5t-91.5 -20q-126 0 -205 102l-7 9v41h73v-15q56 -64 139 -64q154 0 183 274q-79 -91 -194 -91z" />
    <glyph glyph-name="uniE00C" unicode="&#xe00c;" horiz-adv-x="731" 
d="M658 987q0 -109 -36 -205t-104 -155.5t-152 -59.5t-152 59.5t-104.5 155.5t-36.5 205t36.5 205t104.5 156t152 60t152 -60t104 -156t36 -205zM366 1335q-61 0 -112 -49t-79.5 -129t-28.5 -170q0 -141 64 -244t156 -103q61 0 112 49t79 128.5t28 169.5q0 141 -63.5 244.5
t-155.5 103.5z" />
    <glyph glyph-name="uniE00D" unicode="&#xe00d;" horiz-adv-x="365" 
d="M146 1269l-34 -38l-55 47l98 112h64v-805h-73v684z" />
    <glyph glyph-name="uniE00E" unicode="&#xe00e;" horiz-adv-x="658" 
d="M585 585h-512v62l285 262q87 80 120.5 135t33.5 106v2q0 76 -53.5 129.5t-129.5 53.5t-129.5 -53.5t-53.5 -129.5h-73q0 106 75 181t181 75t181 -75t75 -181v-2q0 -70 -41.5 -140t-135.5 -156l-214 -196h318v33h73v-106z" />
    <glyph glyph-name="uniE00F" unicode="&#xe00f;" horiz-adv-x="658" 
d="M146 817q0 -73 53.5 -125t129.5 -52t129.5 52t53.5 125t-53.5 125.5t-129.5 52.5v73q58 0 98.5 39t40.5 94t-40.5 94.5t-98.5 39.5t-98.5 -39.5t-40.5 -94.5h-73q0 86 62 146.5t150 60.5t150 -60.5t62 -146.5q0 -51 -29 -95t-77 -71v-2q68 -29 109 -87t41 -129
q0 -104 -75 -177t-181 -73t-181 73t-75 177h73z" />
    <glyph glyph-name="uniE010" unicode="&#xe010;" horiz-adv-x="658" 
d="M439 1097h73v-292h73v-74h-73v-146h-73v146h-402v61l5 9q151 229 207 350t56 239h74q0 -128 -54.5 -252.5t-191.5 -332.5h306v292z" />
    <glyph glyph-name="uniE011" unicode="&#xe011;" horiz-adv-x="658" 
d="M73 982q3 62 12 186.5t12 186.5l2 35h431v-114h-73v41h-289l-14 -214q84 67 175 67q106 0 181 -88.5t75 -212.5q0 -125 -78 -213.5t-187 -88.5q-68 0 -138 36.5t-105 100.5l-4 9v9v24h73v-15q26 -40 75.5 -65.5t98.5 -25.5q79 0 135.5 67t56.5 162q0 94 -53.5 161
t-129.5 67q-52 0 -110 -37.5t-75 -90.5z" />
    <glyph glyph-name="uniE012" unicode="&#xe012;" horiz-adv-x="658" 
d="M146 859q0 -92 57.5 -155.5t136.5 -63.5q69 0 120.5 62.5t51.5 156.5t-51.5 157t-120.5 63q-79 0 -136.5 -64t-57.5 -156zM340 1152q104 0 174.5 -87t70.5 -206t-70.5 -205.5t-174.5 -86.5q-112 0 -189.5 86t-77.5 206v42q0 45 1 81t7 91t15.5 97.5t29 89t45.5 77.5
t66.5 51t91.5 20q126 0 205 -102l7 -10v-40h-73v15q-56 64 -139 64q-154 0 -183 -274q79 91 194 91z" />
    <glyph glyph-name="uniE013" unicode="&#xe013;" horiz-adv-x="585" 
d="M37 1390h519v-61l-106 -142q-157 -214 -157 -602h-74q0 411 172 646l64 86h-347v-37h-71v110z" />
    <glyph glyph-name="uniE014" unicode="&#xe014;" horiz-adv-x="658" 
d="M541 1201q0 -51 -29 -95t-77 -71v-2q68 -29 109 -87t41 -129q0 -104 -75 -177t-181 -73t-181 73t-75 177q0 71 41 129t109 87v2q-48 27 -77 71t-29 95q0 86 62 146.5t150 60.5t150 -60.5t62 -146.5zM512 817q0 73 -53.5 125.5t-129.5 52.5t-129.5 -52.5t-53.5 -125.5
t53.5 -125t129.5 -52t129.5 52t53.5 125zM190 1201q0 -55 40.5 -94t98.5 -39t98.5 39t40.5 94t-40.5 94.5t-98.5 39.5t-98.5 -39.5t-40.5 -94.5z" />
    <glyph glyph-name="uniE015" unicode="&#xe015;" horiz-adv-x="658" 
d="M512 1115q0 92 -57.5 156t-136.5 64q-69 0 -120.5 -63t-51.5 -157t51.5 -156.5t120.5 -62.5q79 0 136.5 63.5t57.5 155.5zM318 823q-104 0 -174.5 86.5t-70.5 205.5t70.5 206t174.5 87q112 0 189.5 -86.5t77.5 -206.5v-42q0 -45 -1 -81t-7 -91t-15.5 -97t-29 -89
t-45.5 -77.5t-66.5 -50.5t-91.5 -20q-126 0 -205 102l-7 9v41h73v-15q56 -64 139 -64q154 0 183 274q-79 -91 -194 -91z" />
    <glyph glyph-name="uniE016" unicode="&#xe016;" horiz-adv-x="475" 
d="M256 1253q0 26 19 45t45 19t45 -19t19 -45t-19 -45t-45 -19t-45 19t-19 45zM219 951h147v-1116q0 -114 -80.5 -194t-194.5 -80h-18v73h18q84 0 143 58.5t59 142.5v1043h-74v73z" />
    <glyph glyph-name="uniE017" unicode="&#xe017;" horiz-adv-x="475" 
d="M333 1298h-8l-179 -142l-45 56l199 159h58l200 -159l-46 -56zM219 951h147v-1116q0 -114 -80.5 -194t-194.5 -80h-18v73h18q84 0 143 58.5t59 142.5v1043h-74v73z" />
    <glyph glyph-name="uniE018" unicode="&#xe018;" horiz-adv-x="475" 
d="M219 951h147v-1116q0 -114 -80.5 -194t-194.5 -80h-18v73h18q84 0 143 58.5t59 142.5v1043h-74v73z" />
    <glyph glyph-name="uniE019" unicode="&#xe019;" horiz-adv-x="877" 
d="M73 878v73h146v219h74v-219h512v-73h-512v-585q0 -99 69 -168.5t168 -69.5q62 0 115.5 30t85.5 81v17h74v-37l-6 -9q-40 -71 -112 -113t-157 -42q-25 0 -49 3l-22 -80q25 7 57 7q79 0 125.5 -52.5t46.5 -122.5q0 -74 -55 -116t-125 -42q-50 0 -93.5 22.5t-67.5 63.5
l48 28q35 -59 113 -59q51 0 78.5 32.5t27.5 77.5t-26 79t-72 34q-31 0 -86 -25l-46 13l40 155q-91 34 -148 113.5t-57 179.5v585h-146z" />
    <glyph glyph-name="uniE01A" unicode="&#xe01a;" horiz-adv-x="877" 
d="M73 878v73h146v219h74v-219h512v-73h-512v-220h365v-73h-365v-292q0 -99 69 -168.5t168 -69.5q62 0 115.5 30t85.5 81v17h74v-37l-6 -9q-40 -71 -112 -113t-157 -42q-129 0 -220 91t-91 220v292h-73v73h73v220h-146z" />
    <glyph glyph-name="uniE01B" unicode="&#xe01b;" horiz-adv-x="877" 
d="M389 -184q0 26 19 45t45 19t45 -19t19 -45q0 -133 -123 -256l-33 33q73 73 73 162q-19 5 -32 23t-13 38zM73 878v73h146v219h74v-219h512v-73h-512v-585q0 -99 69 -168.5t168 -69.5q62 0 115.5 30t85.5 81v17h74v-37l-6 -9q-40 -71 -112 -113t-157 -42q-129 0 -220 91
t-91 220v585h-146z" />
    <glyph glyph-name="uniE051" unicode="&#xe051;" 
d="M713 293l-238 552l-237 -552h475zM37 0v73h27l386 896h51l410 -954l-66 -30l-101 234h-537l-94 -219h-76z" />
    <glyph glyph-name="uniE052" unicode="&#xe052;" 
d="M219 585h213q69 0 122.5 15.5t82.5 39.5t43.5 50t14.5 51q0 54 -65.5 95.5t-197.5 41.5h-213v-293zM219 512v-439h322q131 0 197.5 53.5t66.5 138.5q0 90 -75.5 167t-202.5 80h-308zM631 560v-2q113 -31 180 -114t67 -179q0 -117 -88.5 -191t-248.5 -74h-395v878h-36v73
h322q157 0 246.5 -59.5t89.5 -150.5q0 -58 -35.5 -106t-101.5 -75z" />
    <glyph glyph-name="uniE053" unicode="&#xe053;" horiz-adv-x="1024" 
d="M841 794q-120 102 -274 102q-174 0 -297.5 -123.5t-123.5 -297.5t123.5 -297t297.5 -123q89 0 168.5 35t138.5 98l55 -51q-69 -74 -162.5 -114.5t-199.5 -40.5q-134 0 -247.5 66t-180 179.5t-66.5 247.5t66.5 247.5t180 180t247.5 66.5q189 0 334 -132l13 -10v-59h-73v26
z" />
    <glyph glyph-name="uniE054" unicode="&#xe054;" horiz-adv-x="1024" 
d="M219 73h233q177 0 301.5 117.5t124.5 284.5t-124.5 285t-301.5 118h-233v-805zM146 878h-36v73h338q208 0 355.5 -139.5t147.5 -336.5q0 -129 -67.5 -238.5t-183 -173t-252.5 -63.5h-302v878z" />
    <glyph glyph-name="uniE055" unicode="&#xe055;" horiz-adv-x="877" 
d="M219 878v-366h366v-73h-366v-366h512v37h74v-110h-659v878h-36v73h621v-110h-73v37h-439z" />
    <glyph glyph-name="uniE056" unicode="&#xe056;" horiz-adv-x="877" 
d="M146 878h-36v73h695v-110h-74v37h-512v-366h366v-73h-366v-439h-73v878z" />
    <glyph glyph-name="uniE057" unicode="&#xe057;" horiz-adv-x="1024" 
d="M567 896q-174 0 -297.5 -123t-123.5 -298t122.5 -297.5t298.5 -122.5q82 0 173 48.5t138 110.5v152h-192v73h265v-439h-62l-9 137h-2q-60 -65 -143.5 -110t-167.5 -45q-134 0 -247.5 66t-180 179.5t-66.5 247.5t66.5 247.5t180.5 180t247 66.5q189 0 334 -132l13 -10v-59
h-73v26q-120 102 -274 102z" />
    <glyph glyph-name="uniE058" unicode="&#xe058;" horiz-adv-x="1024" 
d="M146 951h73v-439h586v439h73v-951h-73v439h-586v-439h-73v951z" />
    <glyph glyph-name="uniE059" unicode="&#xe059;" horiz-adv-x="365" 
d="M219 0h-73v951h73v-951z" />
    <glyph glyph-name="uniE05A" unicode="&#xe05a;" horiz-adv-x="658" 
d="M146 82q50 -27 110 -27q73 0 128 45.5t55 122.5v655h-329v73h402v-728q0 -110 -77 -175.5t-179 -65.5q-94 0 -168 51l-15 11v66h73v-28z" />
    <glyph glyph-name="uniE05B" unicode="&#xe05b;" 
d="M759 878l-309 -357l325 -397q27 -34 41 -42.5t36 -8.5h26v-73h-26q-41 0 -68 16t-64 61l-318 387l-181 -210h-2v-254h-73v951h73v-587l505 587h81v-73h-46z" />
    <glyph glyph-name="uniE05C" unicode="&#xe05c;" horiz-adv-x="877" 
d="M731 110h74v-110h-659v951h73v-878h512v37z" />
    <glyph glyph-name="uniE05D" unicode="&#xe05d;" horiz-adv-x="1389" 
d="M55 0v73h27l115 896h57l441 -894l441 894h56l125 -965l-74 -11l-106 817l-407 -828h-70l-408 828l-106 -810h-91z" />
    <glyph glyph-name="uniE05E" unicode="&#xe05e;" horiz-adv-x="1024" 
d="M232 951l573 -841v841h73v-969h-75l-584 859v-841h-73v878h-36v73h122z" />
    <glyph glyph-name="uniE05F" unicode="&#xe05f;" horiz-adv-x="1097" 
d="M549 969q129 0 238.5 -66.5t173 -180.5t63.5 -247t-63.5 -246.5t-173 -180t-238.5 -66.5q-197 0 -336.5 145t-139.5 348q0 133 63.5 247t173.5 180.5t239 66.5zM146 475q0 -175 119 -297.5t284 -122.5t283.5 122.5t118.5 297.5t-118.5 298t-283.5 123t-284 -123
t-119 -298z" />
    <glyph glyph-name="uniE060" unicode="&#xe060;" 
d="M219 878v-512h309q114 0 195.5 75.5t81.5 182.5t-81 180.5t-196 73.5h-309zM146 878h-36v73h420q145 0 246.5 -95.5t101.5 -233.5t-98 -233.5t-239 -95.5h-322v-293h-73v878z" />
    <glyph glyph-name="uniE061" unicode="&#xe061;" horiz-adv-x="1097" 
d="M549 896q-172 0 -287.5 -122.5t-115.5 -298.5t115.5 -298t287.5 -122t287 122t115 298t-115 298.5t-287 122.5zM567 -18q-110 0 -191 -55.5t-127 -136.5q77 42 159 42q63 0 127 -19t107 -42.5t93.5 -42.5t91.5 -19q42 0 69 30.5t27 59.5h74q0 -61 -49.5 -112t-120.5 -51
q-49 0 -104.5 19t-98 42.5t-101.5 42.5t-115 19t-114 -29t-69 -68l-7 -28h-81v37q0 83 66.5 184.5t176.5 155.5q-139 52 -223 178.5t-84 285.5q0 206 136.5 350t339.5 144t339 -144t136 -350q0 -202 -130 -344t-327 -149z" />
    <glyph glyph-name="uniE062" unicode="&#xe062;" 
d="M455 439q127 0 201.5 69.5t74.5 160.5q0 87 -70.5 148t-203.5 61h-238v-439h236zM852 0q-40 0 -67.5 16.5t-64.5 60.5l-149 183q-6 7 -20 24.5t-18 21.5t-14.5 16.5t-15 14.5t-14 9.5t-17 8.5t-19 5t-24 4t-28 1t-35.5 1h-147v-366h-73v878h-36v73h347q85 0 153 -23.5
t109.5 -63.5t63.5 -89.5t22 -103.5q0 -98 -67 -178t-189 -107q29 -20 76 -79l150 -183q28 -32 41.5 -41.5t35.5 -9.5h26v-73h-26z" />
    <glyph glyph-name="uniE063" unicode="&#xe063;" 
d="M146 172q40 -47 120.5 -82t208.5 -35q160 0 245 53.5t85 120.5q0 54 -36.5 95t-94.5 67.5t-128 49.5t-140.5 48.5t-128.5 56t-94.5 80t-36.5 113.5q0 90 100.5 160t228.5 70q199 0 319 -117l11 -11v-55h-74v24q-99 86 -256 86q-105 0 -180.5 -52.5t-75.5 -104.5
q0 -49 36.5 -87t94.5 -63t128 -47.5t140.5 -49t128.5 -59t94.5 -84.5t36.5 -120q0 -109 -111 -178t-292 -69q-143 0 -243 44t-152 111l-7 9v55h73v-29z" />
    <glyph glyph-name="uniE064" unicode="&#xe064;" 
d="M73 951h805v-110h-73v37h-293v-878h-73v878h-293v-37h-73v110z" />
    <glyph glyph-name="uniE065" unicode="&#xe065;" horiz-adv-x="1024" 
d="M219 347q0 -121 86 -206.5t207 -85.5t207 85.5t86 206.5v604h73v-604q0 -151 -107.5 -258t-258.5 -107t-258.5 107t-107.5 258v531h-36v73h109v-604z" />
    <glyph glyph-name="uniE066" unicode="&#xe066;" 
d="M112 951l363 -845l370 859l66 -29l-410 -954h-51l-384 896h-29v73h75z" />
    <glyph glyph-name="uniE067" unicode="&#xe067;" horiz-adv-x="1389" 
d="M133 951l306 -828l219 630v161h73v-161l220 -630l311 841l69 -26l-353 -954h-55l-228 652l-229 -652h-55l-331 894h-25v73h78z" />
    <glyph glyph-name="uniE068" unicode="&#xe068;" 
d="M157 951l318 -395l337 419l58 -48l-347 -430l384 -473l-59 -48l-373 465l-373 -465l-58 48l384 473l-305 381h-32v73h66z" />
    <glyph glyph-name="uniE069" unicode="&#xe069;" 
d="M139 951l336 -534l353 561l63 -40l-379 -600v-338h-73v338l-340 540h-44v73h84z" />
    <glyph glyph-name="uniE06A" unicode="&#xe06a;" horiz-adv-x="877" 
d="M786 903l-618 -830h563v37h74v-110h-750v42l622 836h-512v-37h-74v110h695v-48z" />
    <glyph glyph-name="uniE06B" unicode="&#xe06b;" 
d="M520 1115l-203 205l53 51l203 -204zM713 293l-238 552l-237 -552h475zM37 0v73h27l386 896h51l410 -954l-66 -30l-101 234h-537l-94 -219h-76z" />
    <glyph glyph-name="uniE06C" unicode="&#xe06c;" 
d="M432 1115l-51 52l203 204l53 -51zM713 293l-238 552l-237 -552h475zM37 0v73h27l386 896h51l410 -954l-66 -30l-101 234h-537l-94 -219h-76z" />
    <glyph glyph-name="uniE06D" unicode="&#xe06d;" 
d="M479 1298h-7l-252 -201l-46 57l272 217h59l272 -217l-45 -57zM713 293l-238 552l-237 -552h475zM37 0v73h27l386 896h51l410 -954l-66 -30l-101 234h-537l-94 -219h-76z" />
    <glyph glyph-name="uniE06E" unicode="&#xe06e;" 
d="M545 1284q38 -19 62 -19q52 0 62 64l11 50l72 -13l-10 -49q-11 -62 -48 -92.5t-87 -30.5q-52 0 -88 20l-113 62q-38 19 -62 19q-52 0 -62 -64l-11 -50l-72 13l9 49q11 62 48.5 92.5t87.5 30.5q52 0 88 -20zM713 293l-238 552l-237 -552h475zM37 0v73h27l386 896h51
l410 -954l-66 -30l-101 234h-537l-94 -219h-76z" />
    <glyph glyph-name="uniE06F" unicode="&#xe06f;" 
d="M631 1216q0 26 19 45t45 19t45 -19t19 -45t-19 -45t-45 -19t-45 19t-19 45zM201 1216q0 26 19 45t45 19t45 -19t19 -45t-19 -45t-45 -19t-45 19t-19 45zM713 293l-238 552l-237 -552h475zM37 0v73h27l386 896h51l410 -954l-66 -30l-101 234h-537l-94 -219h-76z" />
    <glyph glyph-name="uniE070" unicode="&#xe070;" 
d="M475 1390q68 0 124 -55q59 -57 59 -128t-59 -128q-56 -55 -124 -55q-65 0 -124 57t-59 126q0 71 59 128q56 55 124 55zM475 1335q-45 0 -88 -40q-40 -40 -40 -88t40 -88t88 -40q45 0 88 40q40 40 40 88t-40 88q-43 40 -88 40zM713 293l-238 552l-237 -552h475zM37 0v73
h27l386 896h51l410 -954l-66 -30l-101 234h-537l-94 -219h-76z" />
    <glyph glyph-name="uniE071" unicode="&#xe071;" horiz-adv-x="1316" 
d="M658 878h-97l-296 -585h393v585zM118 0h-81v73h36l444 878h653v-110h-73v37h-366v-366h293v-73h-293v-366h439v37h73v-110h-585v219h-429z" />
    <glyph glyph-name="uniE072" unicode="&#xe072;" horiz-adv-x="987" 
d="M841 794q-120 102 -274 102q-174 0 -297.5 -123.5t-123.5 -297.5t123.5 -297t297.5 -123q89 0 168.5 35t138.5 98l55 -51q-69 -74 -162.5 -114.5t-199.5 -40.5q-22 0 -33 2l-24 -86q25 7 57 7q79 0 125.5 -53t46.5 -123q0 -74 -54.5 -115.5t-124.5 -41.5
q-50 0 -93.5 22.5t-67.5 63.5l47 27q34 -58 114 -58q51 0 78.5 32.5t27.5 77.5t-26 79t-73 34q-9 0 -17 -1t-13 -2t-14 -4.5t-12.5 -5t-14.5 -6.5t-15 -7l-46 13l42 152q-173 32 -288.5 169.5t-115.5 316.5q0 134 66.5 247.5t180 180t247.5 66.5q189 0 334 -132l13 -10v-59
h-73v26z" />
    <glyph glyph-name="uniE073" unicode="&#xe073;" horiz-adv-x="877" 
d="M483 1115l-203 205l53 51l203 -204zM219 878v-366h366v-73h-366v-366h512v37h74v-110h-659v878h-36v73h621v-110h-73v37h-439z" />
    <glyph glyph-name="uniE074" unicode="&#xe074;" horiz-adv-x="877" 
d="M395 1115l-51 52l203 204l53 -51zM219 878v-366h366v-73h-366v-366h512v37h74v-110h-659v878h-36v73h621v-110h-73v37h-439z" />
    <glyph glyph-name="uniE075" unicode="&#xe075;" horiz-adv-x="877" 
d="M442 1298h-7l-252 -201l-46 57l272 217h59l272 -217l-45 -57zM219 878v-366h366v-73h-366v-366h512v37h74v-110h-659v878h-36v73h621v-110h-73v37h-439z" />
    <glyph glyph-name="uniE076" unicode="&#xe076;" horiz-adv-x="877" 
d="M595 1216q0 26 19 45t45 19t45 -19t19 -45t-19 -45t-45 -19t-45 19t-19 45zM165 1216q0 26 19 45t45 19t45 -19t19 -45t-19 -45t-45 -19t-45 19t-19 45zM219 878v-366h366v-73h-366v-366h512v37h74v-110h-659v878h-36v73h621v-110h-73v37h-439z" />
    <glyph glyph-name="uniE077" unicode="&#xe077;" horiz-adv-x="365" 
d="M227 1115l-203 205l53 51l203 -204zM219 0h-73v951h73v-951z" />
    <glyph glyph-name="uniE078" unicode="&#xe078;" horiz-adv-x="365" 
d="M139 1115l-51 52l203 204l53 -51zM219 0h-73v951h73v-951z" />
    <glyph glyph-name="uniE079" unicode="&#xe079;" horiz-adv-x="365" 
d="M186 1298h-7l-252 -201l-46 57l272 217h59l272 -217l-45 -57zM219 0h-73v951h73v-951z" />
    <glyph glyph-name="uniE07A" unicode="&#xe07a;" horiz-adv-x="365" 
d="M339 1216q0 26 19 45t45 19t45 -19t19 -45t-19 -45t-45 -19t-45 19t-19 45zM-91 1216q0 26 19 45t45 19t45 -19t19 -45t-19 -45t-45 -19t-45 19t-19 45zM219 0h-73v951h73v-951z" />
    <glyph glyph-name="uniE07B" unicode="&#xe07b;" horiz-adv-x="1024" 
d="M219 73h233q177 0 301.5 117.5t124.5 284.5t-124.5 285t-301.5 118h-233v-366h220v-73h-220v-366zM110 951h338q208 0 355.5 -139.5t147.5 -336.5q0 -129 -67.5 -238.5t-183 -173t-252.5 -63.5h-302v439h-109v73h109v366h-36v73z" />
    <glyph glyph-name="uniE07C" unicode="&#xe07c;" horiz-adv-x="1024" 
d="M582 1284q38 -19 62 -19q52 0 62 64l11 50l72 -13l-10 -49q-11 -62 -48 -92.5t-87 -30.5q-52 0 -88 20l-113 62q-38 19 -62 19q-52 0 -62 -64l-11 -50l-72 13l9 49q11 62 48.5 92.5t87.5 30.5q52 0 88 -20zM232 951l573 -841v841h73v-969h-75l-584 859v-841h-73v878h-36
v73h122z" />
    <glyph glyph-name="uniE07D" unicode="&#xe07d;" horiz-adv-x="1097" 
d="M593 1115l-203 205l53 51l203 -204zM549 969q129 0 238.5 -66.5t173 -180.5t63.5 -247t-63.5 -246.5t-173 -180t-238.5 -66.5q-197 0 -336.5 145t-139.5 348q0 133 63.5 247t173.5 180.5t239 66.5zM146 475q0 -175 119 -297.5t284 -122.5t283.5 122.5t118.5 297.5
t-118.5 298t-283.5 123t-284 -123t-119 -298z" />
    <glyph glyph-name="uniE07E" unicode="&#xe07e;" horiz-adv-x="1097" 
d="M505 1115l-51 52l203 204l53 -51zM549 969q129 0 238.5 -66.5t173 -180.5t63.5 -247t-63.5 -246.5t-173 -180t-238.5 -66.5q-197 0 -336.5 145t-139.5 348q0 133 63.5 247t173.5 180.5t239 66.5zM146 475q0 -175 119 -297.5t284 -122.5t283.5 122.5t118.5 297.5
t-118.5 298t-283.5 123t-284 -123t-119 -298z" />
    <glyph glyph-name="uniE07F" unicode="&#xe07f;" horiz-adv-x="1097" 
d="M552 1298h-7l-252 -201l-46 57l272 217h59l272 -217l-45 -57zM549 969q129 0 238.5 -66.5t173 -180.5t63.5 -247t-63.5 -246.5t-173 -180t-238.5 -66.5q-197 0 -336.5 145t-139.5 348q0 133 63.5 247t173.5 180.5t239 66.5zM146 475q0 -175 119 -297.5t284 -122.5
t283.5 122.5t118.5 297.5t-118.5 298t-283.5 123t-284 -123t-119 -298z" />
    <glyph glyph-name="uniE080" unicode="&#xe080;" horiz-adv-x="1097" 
d="M618 1284q38 -19 62 -19q52 0 62 64l11 50l72 -13l-10 -49q-11 -62 -48 -92.5t-87 -30.5q-52 0 -88 20l-113 62q-38 19 -62 19q-52 0 -62 -64l-11 -50l-72 13l9 49q11 62 48.5 92.5t87.5 30.5q52 0 88 -20zM549 969q129 0 238.5 -66.5t173 -180.5t63.5 -247t-63.5 -246.5
t-173 -180t-238.5 -66.5q-197 0 -336.5 145t-139.5 348q0 133 63.5 247t173.5 180.5t239 66.5zM146 475q0 -175 119 -297.5t284 -122.5t283.5 122.5t118.5 297.5t-118.5 298t-283.5 123t-284 -123t-119 -298z" />
    <glyph glyph-name="uniE081" unicode="&#xe081;" horiz-adv-x="1097" 
d="M704 1216q0 26 19 45t45 19t45 -19t19 -45t-19 -45t-45 -19t-45 19t-19 45zM274 1216q0 26 19 45t45 19t45 -19t19 -45t-19 -45t-45 -19t-45 19t-19 45zM549 969q129 0 238.5 -66.5t173 -180.5t63.5 -247t-63.5 -246.5t-173 -180t-238.5 -66.5q-197 0 -336.5 145
t-139.5 348q0 133 63.5 247t173.5 180.5t239 66.5zM146 475q0 -175 119 -297.5t284 -122.5t283.5 122.5t118.5 297.5t-118.5 298t-283.5 123t-284 -123t-119 -298z" />
    <glyph glyph-name="uniE082" unicode="&#xe082;" horiz-adv-x="1170" 
d="M154 -7l-52 51l95 95q-124 141 -124 336q0 212 150 362t362 150q196 0 337 -124l95 95l51 -51l-95 -95q124 -141 124 -337q0 -212 -150 -362t-362 -150q-194 0 -336 125zM920 759l-618 -618q121 -104 283 -104q119 0 220 59t160 160t59 219q0 163 -104 284zM869 810
q-121 104 -284 104q-118 0 -219.5 -59t-160.5 -160.5t-59 -219.5q0 -161 105 -283z" />
    <glyph glyph-name="uniE083" unicode="&#xe083;" horiz-adv-x="1024" 
d="M556 1115l-203 205l53 51l203 -204zM219 347q0 -121 86 -206.5t207 -85.5t207 85.5t86 206.5v604h73v-604q0 -151 -107.5 -258t-258.5 -107t-258.5 107t-107.5 258v531h-36v73h109v-604z" />
    <glyph glyph-name="uniE084" unicode="&#xe084;" horiz-adv-x="1024" 
d="M468 1115l-51 52l203 204l53 -51zM219 347q0 -121 86 -206.5t207 -85.5t207 85.5t86 206.5v604h73v-604q0 -151 -107.5 -258t-258.5 -107t-258.5 107t-107.5 258v531h-36v73h109v-604z" />
    <glyph glyph-name="uniE085" unicode="&#xe085;" horiz-adv-x="1024" 
d="M515 1298h-7l-252 -201l-46 57l272 217h59l272 -217l-45 -57zM219 347q0 -121 86 -206.5t207 -85.5t207 85.5t86 206.5v604h73v-604q0 -151 -107.5 -258t-258.5 -107t-258.5 107t-107.5 258v531h-36v73h109v-604z" />
    <glyph glyph-name="uniE086" unicode="&#xe086;" horiz-adv-x="1024" 
d="M668 1216q0 26 19 45t45 19t45 -19t19 -45t-19 -45t-45 -19t-45 19t-19 45zM238 1216q0 26 19 45t45 19t45 -19t19 -45t-19 -45t-45 -19t-45 19t-19 45zM219 347q0 -121 86 -206.5t207 -85.5t207 85.5t86 206.5v604h73v-604q0 -151 -107.5 -258t-258.5 -107t-258.5 107
t-107.5 258v531h-36v73h109v-604z" />
    <glyph glyph-name="uniE087" unicode="&#xe087;" 
d="M432 1115l-51 52l203 204l53 -51zM139 951l336 -534l353 561l63 -40l-379 -600v-338h-73v338l-340 540h-44v73h84z" />
    <glyph glyph-name="uniE088" unicode="&#xe088;" 
d="M219 805v-512h309q114 0 195.5 75t81.5 182t-81 181t-196 74h-309zM146 951h73v-73h311q145 0 246.5 -95.5t101.5 -233.5t-98 -234t-239 -96h-322v-219h-73v951z" />
    <glyph glyph-name="uniE089" unicode="&#xe089;" 
d="M768 1243h-585v74h585v-74zM713 293l-238 552l-237 -552h475zM37 0v73h27l386 896h51l410 -954l-66 -30l-101 234h-537l-94 -219h-76z" />
    <glyph glyph-name="uniE08A" unicode="&#xe08a;" 
d="M475 1243q148 0 222 112l60 -42q-98 -143 -282 -143q-183 0 -281 143l60 42q74 -112 221 -112zM713 293l-238 552l-237 -552h475zM37 0v73h27l386 896h51l410 -954l-66 -30l-101 234h-537l-94 -219h-76z" />
    <glyph glyph-name="uniE08B" unicode="&#xe08b;" 
d="M450 969h51l410 -954l-19 -10q-173 -101 -173 -202q0 -42 31 -69t77 -27q44 0 78 22l37 -62q-53 -33 -115 -33q-77 0 -129.5 47.5t-52.5 115.5q0 121 183 227l-84 195h-537l-94 -219h-76v73h27zM713 293l-238 552l-237 -552h475z" />
    <glyph glyph-name="uniE08C" unicode="&#xe08c;" horiz-adv-x="1024" 
d="M505 1115l-51 52l203 204l53 -51zM841 794q-120 102 -274 102q-174 0 -297.5 -123.5t-123.5 -297.5t123.5 -297t297.5 -123q89 0 168.5 35t138.5 98l55 -51q-69 -74 -162.5 -114.5t-199.5 -40.5q-134 0 -247.5 66t-180 179.5t-66.5 247.5t66.5 247.5t180 180t247.5 66.5
q189 0 334 -132l13 -10v-59h-73v26z" />
    <glyph glyph-name="uniE08D" unicode="&#xe08d;" horiz-adv-x="1024" 
d="M552 1298h-7l-252 -201l-46 57l272 217h59l272 -217l-45 -57zM841 794q-120 102 -274 102q-174 0 -297.5 -123.5t-123.5 -297.5t123.5 -297t297.5 -123q89 0 168.5 35t138.5 98l55 -51q-69 -74 -162.5 -114.5t-199.5 -40.5q-134 0 -247.5 66t-180 179.5t-66.5 247.5
t66.5 247.5t180 180t247.5 66.5q189 0 334 -132l13 -10v-59h-73v26z" />
    <glyph glyph-name="uniE08E" unicode="&#xe08e;" horiz-adv-x="1024" 
d="M485 1253q0 26 19 45t45 19t45 -19t19 -45t-19 -45t-45 -19t-45 19t-19 45zM841 794q-120 102 -274 102q-174 0 -297.5 -123.5t-123.5 -297.5t123.5 -297t297.5 -123q89 0 168.5 35t138.5 98l55 -51q-69 -74 -162.5 -114.5t-199.5 -40.5q-134 0 -247.5 66t-180 179.5
t-66.5 247.5t66.5 247.5t180 180t247.5 66.5q189 0 334 -132l13 -10v-59h-73v26z" />
    <glyph glyph-name="uniE08F" unicode="&#xe08f;" horiz-adv-x="1024" 
d="M552 1189l253 201l45 -57l-272 -218h-59l-272 218l46 57l252 -201h7zM841 794q-120 102 -274 102q-174 0 -297.5 -123.5t-123.5 -297.5t123.5 -297t297.5 -123q89 0 168.5 35t138.5 98l55 -51q-69 -74 -162.5 -114.5t-199.5 -40.5q-134 0 -247.5 66t-180 179.5
t-66.5 247.5t66.5 247.5t180 180t247.5 66.5q189 0 334 -132l13 -10v-59h-73v26z" />
    <glyph glyph-name="uniE090" unicode="&#xe090;" horiz-adv-x="1024" 
d="M937 1328q0 26 19 45t45 19t45 -19t19 -45q0 -133 -123 -256l-33 33q73 73 73 162q-19 5 -32 23t-13 38zM219 73h233q177 0 301.5 117.5t124.5 284.5t-124.5 285t-301.5 118h-233v-805zM146 878h-36v73h338q208 0 355.5 -139.5t147.5 -336.5q0 -129 -67.5 -238.5
t-183 -173t-252.5 -63.5h-302v878z" />
    <glyph glyph-name="uniE091" unicode="&#xe091;" horiz-adv-x="1024" 
d="M219 73h233q177 0 301.5 117.5t124.5 284.5t-124.5 285t-301.5 118h-233v-366h220v-73h-220v-366zM146 951h302q208 0 355.5 -139.5t147.5 -336.5q0 -129 -67.5 -238.5t-183 -173t-252.5 -63.5h-302v439h-109v73h109v439z" />
    <glyph glyph-name="uniE092" unicode="&#xe092;" horiz-adv-x="877" 
d="M732 1243h-585v74h585v-74zM219 878v-366h366v-73h-366v-366h512v37h74v-110h-659v878h-36v73h621v-110h-73v37h-439z" />
    <glyph glyph-name="uniE093" unicode="&#xe093;" horiz-adv-x="877" 
d="M438 1243q148 0 222 112l60 -42q-98 -143 -282 -143q-183 0 -281 143l60 42q74 -112 221 -112zM219 878v-366h366v-73h-366v-366h512v37h74v-110h-659v878h-36v73h621v-110h-73v37h-439z" />
    <glyph glyph-name="uniE094" unicode="&#xe094;" horiz-adv-x="877" 
d="M375 1253q0 26 19 45t45 19t45 -19t19 -45t-19 -45t-45 -19t-45 19t-19 45zM219 878v-366h366v-73h-366v-366h512v37h74v-110h-659v878h-36v73h621v-110h-73v37h-439z" />
    <glyph glyph-name="uniE095" unicode="&#xe095;" horiz-adv-x="877" 
d="M146 0v878h-36v73h621v-110h-73v37h-439v-366h366v-73h-366v-366h512v37h74v-75l-63 -35q-127 -73 -154 -95q-51 -50 -54 -108q0 -35 23.5 -62.5t80.5 -27.5q45 0 79 22l36 -62q-53 -33 -115 -33q-82 0 -129.5 47t-47.5 116q0 39 11.5 69t38 54t52.5 40t72 40h-489z" />
    <glyph glyph-name="uniE096" unicode="&#xe096;" horiz-adv-x="877" 
d="M442 1189l253 201l45 -57l-272 -218h-59l-272 218l46 57l252 -201h7zM219 878v-366h366v-73h-366v-366h512v37h74v-110h-659v878h-36v73h621v-110h-73v37h-439z" />
    <glyph glyph-name="uniE097" unicode="&#xe097;" horiz-adv-x="1024" 
d="M552 1276h-7l-252 -201l-46 57l272 217h59l272 -217l-45 -57zM567 896q-174 0 -297.5 -123t-123.5 -298t122.5 -297.5t298.5 -122.5q82 0 173 48.5t138 110.5v152h-192v73h265v-439h-62l-9 137h-2q-60 -65 -143.5 -110t-167.5 -45q-134 0 -247.5 66t-180 179.5
t-66.5 247.5t66.5 247.5t180.5 180t247 66.5q189 0 334 -132l13 -10v-59h-73v26q-120 102 -274 102z" />
    <glyph glyph-name="uniE098" unicode="&#xe098;" horiz-adv-x="1024" 
d="M548 1221q148 0 222 112l60 -42q-98 -143 -282 -143q-183 0 -281 143l60 42q74 -112 221 -112zM567 896q-174 0 -297.5 -123t-123.5 -298t122.5 -297.5t298.5 -122.5q82 0 173 48.5t138 110.5v152h-192v73h265v-439h-62l-9 137h-2q-60 -65 -143.5 -110t-167.5 -45
q-134 0 -247.5 66t-180 179.5t-66.5 247.5t66.5 247.5t180.5 180t247 66.5q189 0 334 -132l13 -10v-59h-73v26q-120 102 -274 102z" />
    <glyph glyph-name="uniE099" unicode="&#xe099;" horiz-adv-x="1024" 
d="M485 1231q0 26 19 45t45 19t45 -19t19 -45t-19 -45t-45 -19t-45 19t-19 45zM567 896q-174 0 -297.5 -123t-123.5 -298t122.5 -297.5t298.5 -122.5q82 0 173 48.5t138 110.5v152h-192v73h265v-439h-62l-9 137h-2q-60 -65 -143.5 -110t-167.5 -45q-134 0 -247.5 66
t-180 179.5t-66.5 247.5t66.5 247.5t180.5 180t247 66.5q189 0 334 -132l13 -10v-59h-73v26q-120 102 -274 102z" />
    <glyph glyph-name="uniE09A" unicode="&#xe09a;" horiz-adv-x="1024" 
d="M567 896q-174 0 -297.5 -123t-123.5 -298t122.5 -297.5t298.5 -122.5q82 0 173 48.5t138 110.5v152h-192v73h265v-439h-62l-9 137h-2q-60 -65 -143.5 -110t-167.5 -45q-134 0 -247.5 66t-180 179.5t-66.5 247.5t66.5 247.5t180.5 180t247 66.5q189 0 334 -132l13 -10v-59
h-73v26q-120 102 -274 102zM445.997 -183q-0.000976562 26 18.9971 45q18.999 19 44.999 19t45.001 -19q19.002 -19 19.0029 -45q0.0078125 -133 -122.984 -256l-33.002 33q72.9951 73 72.9902 162q-19 5 -32.001 23q-13.002 18 -13.0029 38z" />
    <glyph glyph-name="uniE09B" unicode="&#xe09b;" horiz-adv-x="1024" 
d="M515 1298h-7l-252 -201l-46 57l272 217h59l272 -217l-45 -57zM146 951h73v-439h586v439h73v-951h-73v439h-586v-439h-73v951z" />
    <glyph glyph-name="uniE09C" unicode="&#xe09c;" horiz-adv-x="1024" 
d="M73 658v73h73v220h73v-220h586v220h73v-220h73v-73h-73v-658h-73v439h-586v-439h-73v658h-73zM805 658h-586v-146h586v146z" />
    <glyph glyph-name="uniE09D" unicode="&#xe09d;" horiz-adv-x="365" 
d="M219 0h-73v951h73v-951zM400 1269q-3 -17 -5 -22q-23 -73 -93 -73q-37 0 -79 24l-117 66q-20 12 -42 12q-17 0 -24 -22q-1 -2 -3 -11l-10 -51l-71 15l9 47q1 4 3.5 12t2.5 10q24 73 93 73q42 0 79 -21l117 -66q25 -15 42 -15q16 0 23 24q2 6 0 -3q1 3 4 16l9 47l72 -11z
" />
    <glyph glyph-name="uniE09E" unicode="&#xe09e;" horiz-adv-x="365" 
d="M219 0h-73v951h73v-951zM366 1243h-366v74h366v-74z" />
    <glyph glyph-name="uniE09F" unicode="&#xe09f;" horiz-adv-x="365" 
d="M182 1243q148 0 222 112l60 -42q-98 -143 -282 -143q-183 0 -281 143l60 42q74 -112 221 -112zM219 0h-73v951h73v-951z" />
    <glyph glyph-name="uniE0A0" unicode="&#xe0a0;" horiz-adv-x="365" 
d="M219 -18q-105 -59 -140 -92.5t-35 -92.5q0 -35 23.5 -62.5t80.5 -27.5q45 0 79 22l36 -62q-53 -33 -115 -33q-82 0 -129.5 47t-47.5 116q0 39 11.5 69t37.5 54t53 40.5t73 39.5v951h73v-969z" />
    <glyph glyph-name="uniE0A1" unicode="&#xe0a1;" horiz-adv-x="658" 
d="M296 1298h-7l-252 -201l-46 57l272 217h59l272 -217l-45 -57zM146 82q50 -27 110 -27q73 0 128 45.5t55 122.5v655h-329v73h402v-728q0 -110 -77 -175.5t-179 -65.5q-94 0 -168 51l-15 11v66h73v-28z" />
    <glyph glyph-name="uniE0A2" unicode="&#xe0a2;" 
d="M462 -166q0 26 19 45t45 19t45 -19t19 -45q0 -133 -123 -256l-33 33q73 73 73 162q-19 5 -32 23t-13 38zM759 878l-309 -357l325 -397q27 -34 41 -42.5t36 -8.5h26v-73h-26q-41 0 -68 16t-64 61l-318 387l-181 -210h-2v-254h-73v951h73v-587l505 587h81v-73h-46z" />
    <glyph glyph-name="uniE0A3" unicode="&#xe0a3;" horiz-adv-x="877" 
d="M395 1115l-51 52l203 204l53 -51zM731 110h74v-110h-659v951h73v-878h512v37z" />
    <glyph glyph-name="uniE0A4" unicode="&#xe0a4;" horiz-adv-x="877" 
d="M425 -166q0 26 19 45t45 19t45 -19t19 -45q0 -133 -123 -256l-33 33q73 73 73 162q-19 5 -32 23t-13 38zM731 110h74v-110h-659v951h73v-878h512v37z" />
    <glyph glyph-name="uniE0A5" unicode="&#xe0a5;" horiz-adv-x="877" 
d="M503 1328q0 26 19 45t45 19t45 -19t19 -45q0 -133 -123 -256l-33 33q73 73 73 162q-19 5 -32 23t-13 38zM731 110h74v-110h-659v951h73v-878h512v37z" />
    <glyph glyph-name="uniE0A6" unicode="&#xe0a6;" horiz-adv-x="877" 
d="M512 485q0 26 19 45t45 19t45 -19t19 -45t-19 -45t-45 -19t-45 19t-19 45z" />
    <glyph glyph-name="uniE0A7" unicode="&#xe0a7;" horiz-adv-x="877" 
d="M59 304l-44 58l131 95v494h73v-443l297 212l44 -58l-341 -243v-346h512v37h74v-110h-659v366z" />
    <glyph glyph-name="uniE0A8" unicode="&#xe0a8;" horiz-adv-x="1024" 
d="M468 1115l-51 52l203 204l53 -51zM232 951l573 -841v841h73v-969h-75l-584 859v-841h-73v878h-36v73h122z" />
    <glyph glyph-name="uniE0A9" unicode="&#xe0a9;" horiz-adv-x="1024" 
d="M444 -184q0 26 19 45t45 19t45 -19t19 -45q0 -133 -123 -256l-33 33q73 73 73 162q-19 5 -32 23t-13 38zM232 951l573 -841v841h73v-969h-75l-584 859v-841h-73v878h-36v73h122z" />
    <glyph glyph-name="uniE0AA" unicode="&#xe0aa;" horiz-adv-x="1024" 
d="M515 1189l253 201l45 -57l-272 -218h-59l-272 218l46 57l252 -201h7zM232 951l573 -841v841h73v-969h-75l-584 859v-841h-73v878h-36v73h122z" />
    <glyph glyph-name="uniE0AB" unicode="&#xe0ab;" horiz-adv-x="1170" 
d="M146 878h-36v73h109v-247q68 122 185 193.5t254 71.5q166 0 266 -88.5t100 -240.5v-786q0 -101 -45.5 -175.5t-126.5 -113.5l-7 -4h-9h-50v73h41q124 66 124 220v786q0 122 -79 189t-214 67q-116 0 -216.5 -61t-161.5 -171t-61 -243v-421h-73v878z" />
    <glyph glyph-name="uniE0AC" unicode="&#xe0ac;" horiz-adv-x="1097" 
d="M841 1243h-585v74h585v-74zM549 969q129 0 238.5 -66.5t173 -180.5t63.5 -247t-63.5 -246.5t-173 -180t-238.5 -66.5q-197 0 -336.5 145t-139.5 348q0 133 63.5 247t173.5 180.5t239 66.5zM146 475q0 -175 119 -297.5t284 -122.5t283.5 122.5t118.5 297.5t-118.5 298
t-283.5 123t-284 -123t-119 -298z" />
    <glyph glyph-name="uniE0AD" unicode="&#xe0ad;" horiz-adv-x="1097" 
d="M548 1243q148 0 222 112l60 -42q-98 -143 -282 -143q-183 0 -281 143l60 42q74 -112 221 -112zM549 969q129 0 238.5 -66.5t173 -180.5t63.5 -247t-63.5 -246.5t-173 -180t-238.5 -66.5q-197 0 -336.5 145t-139.5 348q0 133 63.5 247t173.5 180.5t239 66.5zM146 475
q0 -175 119 -297.5t284 -122.5t283.5 122.5t118.5 297.5t-118.5 298t-283.5 123t-284 -123t-119 -298z" />
    <glyph glyph-name="uniE0AE" unicode="&#xe0ae;" horiz-adv-x="1097" 
d="M715 1115l-53 52l204 204l52 -51zM349 1115l-53 52l205 204l51 -51zM549 969q129 0 238.5 -66.5t173 -180.5t63.5 -247t-63.5 -246.5t-173 -180t-238.5 -66.5q-197 0 -336.5 145t-139.5 348q0 133 63.5 247t173.5 180.5t239 66.5zM146 475q0 -175 119 -297.5t284 -122.5
t283.5 122.5t118.5 297.5t-118.5 298t-283.5 123t-284 -123t-119 -298z" />
    <glyph glyph-name="uniE0AF" unicode="&#xe0af;" horiz-adv-x="1316" 
d="M658 73v805h-86q-177 0 -301.5 -118t-124.5 -285t124.5 -284.5t301.5 -117.5h86zM1170 110h73v-110h-667q-137 0 -252.5 63.5t-183 173t-67.5 238.5q0 197 147.5 336.5t355.5 139.5h594v-110h-73v37h-366v-366h293v-73h-293v-366h439v37z" />
    <glyph glyph-name="uniE0B0" unicode="&#xe0b0;" 
d="M395 1115l-51 52l203 204l53 -51zM455 439q127 0 201.5 69.5t74.5 160.5q0 87 -70.5 148t-203.5 61h-238v-439h236zM852 0q-40 0 -67.5 16.5t-64.5 60.5l-149 183q-6 7 -20 24.5t-18 21.5t-14.5 16.5t-15 14.5t-14 9.5t-17 8.5t-19 5t-24 4t-28 1t-35.5 1h-147v-366h-73
v878h-36v73h347q85 0 153 -23.5t109.5 -63.5t63.5 -89.5t22 -103.5q0 -98 -67 -178t-189 -107q29 -20 76 -79l150 -183q28 -32 41.5 -41.5t35.5 -9.5h26v-73h-26z" />
    <glyph glyph-name="uniE0B1" unicode="&#xe0b1;" 
d="M444 -166q0 26 19 45t45 19t45 -19t19 -45q0 -133 -123 -256l-33 33q73 73 73 162q-19 5 -32 23t-13 38zM455 439q127 0 201.5 69.5t74.5 160.5q0 87 -70.5 148t-203.5 61h-238v-439h236zM852 0q-40 0 -67.5 16.5t-64.5 60.5l-149 183q-6 7 -20 24.5t-18 21.5t-14.5 16.5
t-15 14.5t-14 9.5t-17 8.5t-19 5t-24 4t-28 1t-35.5 1h-147v-366h-73v878h-36v73h347q85 0 153 -23.5t109.5 -63.5t63.5 -89.5t22 -103.5q0 -98 -67 -178t-189 -107q29 -20 76 -79l150 -183q28 -32 41.5 -41.5t35.5 -9.5h26v-73h-26z" />
    <glyph glyph-name="uniE0B2" unicode="&#xe0b2;" 
d="M442 1189l253 201l45 -57l-272 -218h-59l-272 218l46 57l252 -201h7zM455 439q127 0 201.5 69.5t74.5 160.5q0 87 -70.5 148t-203.5 61h-238v-439h236zM852 0q-40 0 -67.5 16.5t-64.5 60.5l-149 183q-6 7 -20 24.5t-18 21.5t-14.5 16.5t-15 14.5t-14 9.5t-17 8.5t-19 5
t-24 4t-28 1t-35.5 1h-147v-366h-73v878h-36v73h347q85 0 153 -23.5t109.5 -63.5t63.5 -89.5t22 -103.5q0 -98 -67 -178t-189 -107q29 -20 76 -79l150 -183q28 -32 41.5 -41.5t35.5 -9.5h26v-73h-26z" />
    <glyph glyph-name="uniE0B3" unicode="&#xe0b3;" 
d="M432 1115l-51 52l203 204l53 -51zM146 172q40 -47 120.5 -82t208.5 -35q160 0 245 53.5t85 120.5q0 54 -36.5 95t-94.5 67.5t-128 49.5t-140.5 48.5t-128.5 56t-94.5 80t-36.5 113.5q0 90 100.5 160t228.5 70q199 0 319 -117l11 -11v-55h-74v24q-99 86 -256 86
q-105 0 -180.5 -52.5t-75.5 -104.5q0 -49 36.5 -87t94.5 -63t128 -47.5t140.5 -49t128.5 -59t94.5 -84.5t36.5 -120q0 -109 -111 -178t-292 -69q-143 0 -243 44t-152 111l-7 9v55h73v-29z" />
    <glyph glyph-name="uniE0B4" unicode="&#xe0b4;" 
d="M479 1298h-7l-252 -201l-46 57l272 217h59l272 -217l-45 -57zM146 172q40 -47 120.5 -82t208.5 -35q160 0 245 53.5t85 120.5q0 54 -36.5 95t-94.5 67.5t-128 49.5t-140.5 48.5t-128.5 56t-94.5 80t-36.5 113.5q0 90 100.5 160t228.5 70q199 0 319 -117l11 -11v-55h-74
v24q-99 86 -256 86q-105 0 -180.5 -52.5t-75.5 -104.5q0 -49 36.5 -87t94.5 -63t128 -47.5t140.5 -49t128.5 -59t94.5 -84.5t36.5 -120q0 -109 -111 -178t-292 -69q-143 0 -243 44t-152 111l-7 9v55h73v-29z" />
    <glyph glyph-name="uniE0B5" unicode="&#xe0b5;" 
d="M408 -176l-46 13l42 148q-114 11 -196 53t-128 99l-7 9v55h73v-29q40 -47 120.5 -82t208.5 -35q160 0 245 53.5t85 120.5q0 54 -36.5 95t-94.5 67.5t-128 49.5t-140.5 48.5t-128.5 56t-94.5 80t-36.5 113.5q0 90 100.5 160t228.5 70q199 0 319 -117l11 -11v-55h-74v24
q-99 86 -256 86q-105 0 -180.5 -52.5t-75.5 -104.5q0 -49 36.5 -87t94.5 -63t128 -47.5t140.5 -49t128.5 -59t94.5 -84.5t36.5 -120q0 -109 -111 -178t-292 -69h-16l-22 -84q25 7 57 7q79 0 125.5 -53t46.5 -123q0 -74 -55 -115.5t-125 -41.5q-50 0 -93.5 22.5t-67.5 63.5
l48 27q34 -58 113 -58q51 0 78.5 32.5t27.5 77.5t-26 79t-72 34q-9 0 -17 -1t-13 -2t-14 -4.5t-12.5 -5t-14.5 -6.5t-15 -7z" />
    <glyph glyph-name="uniE0B6" unicode="&#xe0b6;" 
d="M479 1189l253 201l45 -57l-272 -218h-59l-272 218l46 57l252 -201h7zM146 172q40 -47 120.5 -82t208.5 -35q160 0 245 53.5t85 120.5q0 54 -36.5 95t-94.5 67.5t-128 49.5t-140.5 48.5t-128.5 56t-94.5 80t-36.5 113.5q0 90 100.5 160t228.5 70q199 0 319 -117l11 -11
v-55h-74v24q-99 86 -256 86q-105 0 -180.5 -52.5t-75.5 -104.5q0 -49 36.5 -87t94.5 -63t128 -47.5t140.5 -49t128.5 -59t94.5 -84.5t36.5 -120q0 -109 -111 -178t-292 -69q-143 0 -243 44t-152 111l-7 9v55h73v-29z" />
    <glyph glyph-name="uniE0B7" unicode="&#xe0b7;" 
d="M448 -157l-46 13l42 144h-5v878h-293v-37h-73v110h805v-110h-73v37h-293v-878h-11l-24 -84q25 7 57 7q79 0 125.5 -52.5t46.5 -122.5q0 -74 -54.5 -116t-124.5 -42q-50 0 -93.5 22.5t-67.5 63.5l47 28q35 -59 114 -59q51 0 78.5 32.5t27.5 77.5t-26 79t-73 34
q-31 0 -86 -25z" />
    <glyph glyph-name="uniE0B8" unicode="&#xe0b8;" 
d="M479 1189l253 201l45 -57l-272 -218h-59l-272 218l46 57l252 -201h7zM73 951h805v-110h-73v37h-293v-878h-73v878h-293v-37h-73v110z" />
    <glyph glyph-name="uniE0B9" unicode="&#xe0b9;" 
d="M512 878v-220h146v-73h-146v-585h-73v585h-146v73h146v220h-293v-37h-73v110h805v-110h-73v37h-293z" />
    <glyph glyph-name="uniE0BA" unicode="&#xe0ba;" horiz-adv-x="1024" 
d="M582 1284q38 -19 62 -19q52 0 62 64l11 50l72 -13l-10 -49q-11 -62 -48 -92.5t-87 -30.5q-52 0 -88 20l-113 62q-38 19 -62 19q-52 0 -62 -64l-11 -50l-72 13l9 49q11 62 48.5 92.5t87.5 30.5q52 0 88 -20zM219 347q0 -121 86 -206.5t207 -85.5t207 85.5t86 206.5v604h73
v-604q0 -151 -107.5 -258t-258.5 -107t-258.5 107t-107.5 258v531h-36v73h109v-604z" />
    <glyph glyph-name="uniE0BB" unicode="&#xe0bb;" horiz-adv-x="1024" 
d="M805 1243h-585v74h585v-74zM219 347q0 -121 86 -206.5t207 -85.5t207 85.5t86 206.5v604h73v-604q0 -151 -107.5 -258t-258.5 -107t-258.5 107t-107.5 258v531h-36v73h109v-604z" />
    <glyph glyph-name="uniE0BC" unicode="&#xe0bc;" horiz-adv-x="1024" 
d="M512 1243q148 0 222 112l60 -42q-98 -143 -282 -143q-183 0 -281 143l60 42q74 -112 221 -112zM219 347q0 -121 86 -206.5t207 -85.5t207 85.5t86 206.5v604h73v-604q0 -151 -107.5 -258t-258.5 -107t-258.5 107t-107.5 258v531h-36v73h109v-604z" />
    <glyph glyph-name="uniE0BD" unicode="&#xe0bd;" horiz-adv-x="1024" 
d="M512 1390q68 0 124 -55q59 -57 59 -128t-59 -128q-56 -55 -124 -55q-65 0 -124 57t-59 126q0 71 59 128q56 55 124 55zM512 1335q-45 0 -88 -40q-40 -40 -40 -88t40 -88t88 -40q45 0 88 40q40 40 40 88t-40 88q-43 40 -88 40zM219 347q0 -121 86 -206.5t207 -85.5
t207 85.5t86 206.5v604h73v-604q0 -151 -107.5 -258t-258.5 -107t-258.5 107t-107.5 258v531h-36v73h109v-604z" />
    <glyph glyph-name="uniE0BE" unicode="&#xe0be;" horiz-adv-x="1024" 
d="M679 1115l-53 52l204 204l52 -51zM313 1115l-53 52l205 204l51 -51zM219 347q0 -121 86 -206.5t207 -85.5t207 85.5t86 206.5v604h73v-604q0 -151 -107.5 -258t-258.5 -107t-258.5 107t-107.5 258v531h-36v73h109v-604z" />
    <glyph glyph-name="uniE0BF" unicode="&#xe0bf;" horiz-adv-x="1024" 
d="M443 -203q0 -35 23.5 -62.5t80.5 -27.5q44 0 78 22l37 -62q-53 -33 -115 -33q-82 0 -130 47t-48 116q0 63 32.5 105t96.5 80q-147 5 -249.5 111.5t-102.5 253.5v531h-36v73h109v-604q0 -121 86 -206.5t207 -85.5t207 85.5t86 206.5v604h73v-604q0 -111 -61 -201.5
t-160 -133.5q-68 -39 -99 -58.5t-62.5 -46.5t-42 -52t-10.5 -58z" />
    <glyph glyph-name="uniE0C0" unicode="&#xe0c0;" horiz-adv-x="1389" 
d="M698 1298h-7l-252 -201l-46 57l272 217h59l272 -217l-45 -57zM133 951l306 -828l219 630v161h73v-161l220 -630l311 841l69 -26l-353 -954h-55l-228 652l-229 -652h-55l-331 894h-25v73h78z" />
    <glyph glyph-name="uniE0C1" unicode="&#xe0c1;" 
d="M479 1298h-7l-252 -201l-46 57l272 217h59l272 -217l-45 -57zM139 951l336 -534l353 561l63 -40l-379 -600v-338h-73v338l-340 540h-44v73h84z" />
    <glyph glyph-name="uniE0C2" unicode="&#xe0c2;" 
d="M631 1216q0 26 19 45t45 19t45 -19t19 -45t-19 -45t-45 -19t-45 19t-19 45zM201 1216q0 26 19 45t45 19t45 -19t19 -45t-19 -45t-45 -19t-45 19t-19 45zM139 951l336 -534l353 561l63 -40l-379 -600v-338h-73v338l-340 540h-44v73h84z" />
    <glyph glyph-name="uniE0C3" unicode="&#xe0c3;" horiz-adv-x="877" 
d="M395 1115l-51 52l203 204l53 -51zM786 903l-618 -830h563v37h74v-110h-750v42l622 836h-512v-37h-74v110h695v-48z" />
    <glyph glyph-name="uniE0C4" unicode="&#xe0c4;" horiz-adv-x="877" 
d="M375 1253q0 26 19 45t45 19t45 -19t19 -45t-19 -45t-45 -19t-45 19t-19 45zM786 903l-618 -830h563v37h74v-110h-750v42l622 836h-512v-37h-74v110h695v-48z" />
    <glyph glyph-name="uniE0C5" unicode="&#xe0c5;" horiz-adv-x="877" 
d="M442 1189l253 201l45 -57l-272 -218h-59l-272 218l46 57l252 -201h7zM786 903l-618 -830h563v37h74v-110h-750v42l622 836h-512v-37h-74v110h695v-48z" />
    <glyph glyph-name="uniE0C6" unicode="&#xe0c6;" 
d="M479 1189l253 201l45 -57l-272 -218h-59l-272 218l46 57l252 -201h7zM713 293l-238 552l-237 -552h475zM37 0v73h27l386 896h51l410 -954l-66 -30l-101 234h-537l-94 -219h-76z" />
    <glyph glyph-name="uniE0C7" unicode="&#xe0c7;" horiz-adv-x="365" 
d="M186 1189l253 201l45 -57l-272 -218h-59l-272 218l46 57l252 -201h7zM219 0h-73v951h73v-951z" />
    <glyph glyph-name="uniE0C8" unicode="&#xe0c8;" horiz-adv-x="1097" 
d="M552 1189l253 201l45 -57l-272 -218h-59l-272 218l46 57l252 -201h7zM549 969q129 0 238.5 -66.5t173 -180.5t63.5 -247t-63.5 -246.5t-173 -180t-238.5 -66.5q-197 0 -336.5 145t-139.5 348q0 133 63.5 247t173.5 180.5t239 66.5zM146 475q0 -175 119 -297.5t284 -122.5
t283.5 122.5t118.5 297.5t-118.5 298t-283.5 123t-284 -123t-119 -298z" />
    <glyph glyph-name="uniE0C9" unicode="&#xe0c9;" horiz-adv-x="1024" 
d="M515 1189l253 201l45 -57l-272 -218h-59l-272 218l46 57l252 -201h7zM219 347q0 -121 86 -206.5t207 -85.5t207 85.5t86 206.5v604h73v-604q0 -151 -107.5 -258t-258.5 -107t-258.5 107t-107.5 258v531h-36v73h109v-604z" />
    <glyph glyph-name="uniE0CA" unicode="&#xe0ca;" horiz-adv-x="1024" 
d="M552 1167l253 201l45 -57l-272 -218h-59l-272 218l46 57l252 -201h7zM567 896q-174 0 -297.5 -123t-123.5 -298t122.5 -297.5t298.5 -122.5q82 0 173 48.5t138 110.5v152h-192v73h265v-439h-62l-9 137h-2q-60 -65 -143.5 -110t-167.5 -45q-134 0 -247.5 66t-180 179.5
t-66.5 247.5t66.5 247.5t180.5 180t247 66.5q189 0 334 -132l13 -10v-59h-73v26q-120 102 -274 102z" />
    <glyph glyph-name="uniE0CB" unicode="&#xe0cb;" 
d="M442 1189l253 201l45 -57l-272 -218h-59l-272 218l46 57l252 -201h7zM759 878l-309 -357l325 -397q27 -34 41 -42.5t36 -8.5h26v-73h-26q-41 0 -68 16t-64 61l-318 387l-181 -210h-2v-254h-73v951h73v-587l505 587h81v-73h-46z" />
    <glyph glyph-name="uniE0CC" unicode="&#xe0cc;" horiz-adv-x="1097" 
d="M494 -203q0 -35 23.5 -62.5t80.5 -27.5q45 0 79 22l36 -62q-53 -33 -115 -33q-82 0 -129.5 47t-47.5 116q0 66 34 106t105 79h-11q-197 0 -336.5 145t-139.5 348q0 133 63.5 247t173.5 180.5t239 66.5t238.5 -66.5t173 -180.5t63.5 -247q0 -141 -70.5 -258.5
t-187.5 -179.5q-30 -17 -77 -43.5t-65 -37t-47.5 -29.5t-39.5 -29.5t-23 -27.5t-16.5 -34t-3.5 -39zM146 475q0 -175 119 -297.5t284 -122.5t283.5 122.5t118.5 297.5t-118.5 298t-283.5 123t-284 -123t-119 -298z" />
    <glyph glyph-name="uniE0CD" unicode="&#xe0cd;" horiz-adv-x="1097" 
d="M841 1071h-585v74h585v-74zM494 -203q0 -35 23.5 -62.5t80.5 -27.5q45 0 79 22l36 -62q-53 -33 -115 -33q-82 0 -129.5 47t-47.5 116q0 66 34 106t105 79h-11q-197 0 -336.5 145t-139.5 348q0 133 63.5 247t173.5 180.5t239 66.5t238.5 -66.5t173 -180.5t63.5 -247
q0 -141 -70.5 -258.5t-187.5 -179.5q-30 -17 -77 -43.5t-65 -37t-47.5 -29.5t-39.5 -29.5t-23 -27.5t-16.5 -34t-3.5 -39zM146 475q0 -175 119 -297.5t284 -122.5t283.5 122.5t118.5 297.5t-118.5 298t-283.5 123t-284 -123t-119 -298z" />
    <glyph glyph-name="uniE0CE" unicode="&#xe0ce;" horiz-adv-x="1024" 
d="M505 1093l-51 52l203 204l53 -51zM567 896q-174 0 -297.5 -123t-123.5 -298t122.5 -297.5t298.5 -122.5q82 0 173 48.5t138 110.5v152h-192v73h265v-439h-62l-9 137h-2q-60 -65 -143.5 -110t-167.5 -45q-134 0 -247.5 66t-180 179.5t-66.5 247.5t66.5 247.5t180.5 180
t247 66.5q189 0 334 -132l13 -10v-59h-73v26q-120 102 -274 102z" />
    <glyph glyph-name="uniE0CF" unicode="&#xe0cf;" 
d="M684 1115l-203 205l53 51l203 -204zM319 1115l-203 205l53 51l203 -204zM713 293l-238 552l-237 -552h475zM37 0v73h27l386 896h51l410 -954l-66 -30l-101 234h-537l-94 -219h-76z" />
    <glyph glyph-name="uniE0D0" unicode="&#xe0d0;" 
d="M425 -184q0 26 19 45t45 19t45 -19t19 -45q0 -133 -123 -256l-33 33q73 73 73 162q-19 5 -32 23t-13 38zM146 172q40 -47 120.5 -82t208.5 -35q160 0 245 53.5t85 120.5q0 54 -36.5 95t-94.5 67.5t-128 49.5t-140.5 48.5t-128.5 56t-94.5 80t-36.5 113.5q0 90 100.5 160
t228.5 70q199 0 319 -117l11 -11v-55h-74v24q-99 86 -256 86q-105 0 -180.5 -52.5t-75.5 -104.5q0 -49 36.5 -87t94.5 -63t128 -47.5t140.5 -49t128.5 -59t94.5 -84.5t36.5 -120q0 -109 -111 -178t-292 -69q-143 0 -243 44t-152 111l-7 9v55h73v-29z" />
    <glyph glyph-name="uniE0D1" unicode="&#xe0d1;" 
d="M425 -166q0 26 19 45t45 19t45 -19t19 -45q0 -133 -123 -256l-33 33q73 73 73 162q-19 5 -32 23t-13 38zM73 951h805v-110h-73v37h-293v-878h-73v878h-293v-37h-73v110z" />
    <glyph glyph-name="uniE0D2" unicode="&#xe0d2;" 
d="M412 1253q0 26 19 45t45 19t45 -19t19 -45t-19 -45t-45 -19t-45 19t-19 45zM713 293l-238 552l-237 -552h475zM37 0v73h27l386 896h51l410 -954l-66 -30l-101 234h-537l-94 -219h-76z" />
    <glyph glyph-name="uniE0D3" unicode="&#xe0d3;" horiz-adv-x="1389" 
d="M739 1115l-203 205l53 51l203 -204zM133 951l306 -828l219 630v161h73v-161l220 -630l311 841l69 -26l-353 -954h-55l-228 652l-229 -652h-55l-331 894h-25v73h78z" />
    <glyph glyph-name="uniE0D4" unicode="&#xe0d4;" horiz-adv-x="1389" 
d="M651 1115l-51 52l203 204l53 -51zM133 951l306 -828l219 630v161h73v-161l220 -630l311 841l69 -26l-353 -954h-55l-228 652l-229 -652h-55l-331 894h-25v73h78z" />
    <glyph glyph-name="uniE0D5" unicode="&#xe0d5;" horiz-adv-x="1389" 
d="M851 1216q0 26 19 45t45 19t45 -19t19 -45t-19 -45t-45 -19t-45 19t-19 45zM421 1216q0 26 19 45t45 19t45 -19t19 -45t-19 -45t-45 -19t-45 19t-19 45zM133 951l306 -828l219 630v161h73v-161l220 -630l311 841l69 -26l-353 -954h-55l-228 652l-229 -652h-55l-331 894
h-25v73h78z" />
    <glyph glyph-name="uniE0D6" unicode="&#xe0d6;" horiz-adv-x="1389" 
d="M631 1253q0 26 19 45t45 19t45 -19t19 -45t-19 -45t-45 -19t-45 19t-19 45zM133 951l306 -828l219 630v161h73v-161l220 -630l311 841l69 -26l-353 -954h-55l-228 652l-229 -652h-55l-331 894h-25v73h78z" />
    <glyph glyph-name="uniE0D7" unicode="&#xe0d7;" 
d="M412 1253q0 26 19 45t45 19t45 -19t19 -45t-19 -45t-45 -19t-45 19t-19 45zM139 951l336 -534l353 561l63 -40l-379 -600v-338h-73v338l-340 540h-44v73h84z" />
    <glyph glyph-name="uniE0D8" unicode="&#xe0d8;" horiz-adv-x="1024" 
d="M329 82v64h73v-32q37 -27 99.5 -43t131.5 -16q108 0 176.5 39.5t68.5 82.5q0 41 -38 72t-95 48.5t-123 39.5t-123 44.5t-95 63.5t-38 96q0 85 85.5 139.5t199.5 54.5q20 0 64 -4q-16 72 -90.5 118.5t-167.5 46.5q-95 0 -166.5 -45t-71.5 -110v-741h-73v585h-73v73h73v83
q0 99 93.5 163.5t217.5 64.5q138 0 236.5 -77.5t98.5 -192.5v-50q-109 13 -141 13q-90 0 -151 -38t-61 -83q0 -32 28 -57t73.5 -42t100 -33.5t109 -36t100 -43.5t73.5 -63t28 -89q0 -85 -94.5 -140t-223.5 -55q-84 0 -170 24.5t-134 75.5z" />
    <glyph glyph-name="uniE0D9" unicode="&#xe0d9;" 
d="M520 1115l-203 205l53 51l203 -204zM139 951l336 -534l353 561l63 -40l-379 -600v-338h-73v338l-340 540h-44v73h84z" />
    <glyph glyph-name="uniEFEE" unicode="&#xefee;" 
d="M649 256l-9 -73h-317q41 -90 124 -145.5t182 -55.5q105 0 201 70l43 -59q-116 -84 -244 -84q-130 0 -235.5 76t-150.5 198h-188l9 73h160q-6 36 -6 73q0 25 1 37h-128l10 73h131q36 136 145.5 223.5t249.5 87.5q89 0 187 -56l27 -16v-93h-73v50q-78 42 -141 42
q-108 0 -196.5 -66.5t-122.5 -171.5h378l-9 -73h-384q-2 -24 -2 -37q0 -39 7 -73h351z" />
    <glyph glyph-name="uniEFEF" unicode="&#xefef;" horiz-adv-x="1022" 
d="M649 896l-9 -73h-317q41 -90 124 -145.5t182 -55.5q105 0 201 70l43 -59q-116 -84 -244 -84q-130 0 -235.5 76t-150.5 198h-188l9 73h160q-6 36 -6 73q0 25 1 37h-128l10 73h131q36 136 145.5 223.5t249.5 87.5q89 0 187 -56l27 -16v-93h-73v50q-78 42 -141 42
q-108 0 -196.5 -66.5t-122.5 -171.5h378l-9 -73h-384q-2 -24 -2 -37q0 -39 7 -73h351z" />
    </font>
</defs>
</svg>
